<svg width="85" height="87" viewBox="0 0 85 87" fill="none" xmlns="http://www.w3.org/2000/svg">
<path d="M38.0744 3.875C38.1629 3.875 38.2463 3.89193 38.3244 3.92578C38.4051 3.95964 38.4741 4.00651 38.5314 4.06641C38.5913 4.1263 38.6382 4.19661 38.672 4.27734C38.7059 4.35547 38.7228 4.4401 38.7228 4.53125C38.7228 4.61979 38.7059 4.70312 38.672 4.78125C38.6382 4.85938 38.5913 4.92839 38.5314 4.98828C38.4741 5.04557 38.4051 5.09115 38.3244 5.125C38.2463 5.15885 38.1629 5.17578 38.0744 5.17578C37.9832 5.17578 37.8986 5.15885 37.8205 5.125C37.7423 5.09115 37.6733 5.04557 37.6134 4.98828C37.5561 4.92839 37.5106 4.85938 37.4767 4.78125C37.4429 4.70312 37.4259 4.61979 37.4259 4.53125C37.4259 4.4401 37.4429 4.35547 37.4767 4.27734C37.5106 4.19661 37.5561 4.1263 37.6134 4.06641C37.6733 4.00651 37.7423 3.95964 37.8205 3.92578C37.8986 3.89193 37.9832 3.875 38.0744 3.875Z" fill="white"/>
<path d="M44.4242 5.10547H43.6664L43.3109 3.99219H41.1859L40.8266 5.10547H40.1039L41.7992 0H42.7523L44.4242 5.10547ZM43.1117 3.37109L42.2484 0.640625L41.3852 3.37109H43.1117Z" fill="white"/>
<path d="M46.3913 3.875C46.4798 3.875 46.5631 3.89193 46.6413 3.92578C46.722 3.95964 46.791 4.00651 46.8483 4.06641C46.9082 4.1263 46.9551 4.19661 46.9889 4.27734C47.0228 4.35547 47.0397 4.4401 47.0397 4.53125C47.0397 4.61979 47.0228 4.70312 46.9889 4.78125C46.9551 4.85938 46.9082 4.92839 46.8483 4.98828C46.791 5.04557 46.722 5.09115 46.6413 5.125C46.5631 5.15885 46.4798 5.17578 46.3913 5.17578C46.3001 5.17578 46.2155 5.15885 46.1373 5.125C46.0592 5.09115 45.9902 5.04557 45.9303 4.98828C45.873 4.92839 45.8274 4.85938 45.7936 4.78125C45.7597 4.70312 45.7428 4.61979 45.7428 4.53125C45.7428 4.4401 45.7597 4.35547 45.7936 4.27734C45.8274 4.19661 45.873 4.1263 45.9303 4.06641C45.9902 4.00651 46.0592 3.95964 46.1373 3.92578C46.2155 3.89193 46.3001 3.875 46.3913 3.875Z" fill="white"/>
<path d="M33.9159 12.875C34.0045 12.875 34.0878 12.8919 34.1659 12.9258C34.2467 12.9596 34.3157 13.0065 34.373 13.0664C34.4329 13.1263 34.4797 13.1966 34.5136 13.2773C34.5474 13.3555 34.5644 13.4401 34.5644 13.5312C34.5644 13.6198 34.5474 13.7031 34.5136 13.7812C34.4797 13.8594 34.4329 13.9284 34.373 13.9883C34.3157 14.0456 34.2467 14.0911 34.1659 14.125C34.0878 14.1589 34.0045 14.1758 33.9159 14.1758C33.8248 14.1758 33.7402 14.1589 33.662 14.125C33.5839 14.0911 33.5149 14.0456 33.455 13.9883C33.3977 13.9284 33.3521 13.8594 33.3183 13.7812C33.2844 13.7031 33.2675 13.6198 33.2675 13.5312C33.2675 13.4401 33.2844 13.3555 33.3183 13.2773C33.3521 13.1966 33.3977 13.1263 33.455 13.0664C33.5149 13.0065 33.5839 12.9596 33.662 12.9258C33.7402 12.8919 33.8248 12.875 33.9159 12.875Z" fill="white"/>
<path d="M39.8752 12.5781C39.8752 12.8229 39.827 13.0404 39.7306 13.2305C39.6369 13.418 39.5015 13.5768 39.3244 13.707C39.1499 13.8372 38.9377 13.9362 38.6877 14.0039C38.4403 14.0716 38.1642 14.1055 37.8595 14.1055H36.5236V9H37.9845C39.1226 9 39.6916 9.41406 39.6916 10.2422C39.6916 10.5182 39.6252 10.7552 39.4923 10.9531C39.3621 11.151 39.1486 11.2982 38.8517 11.3945C38.9897 11.4206 39.1199 11.4648 39.2423 11.5273C39.3673 11.5898 39.4767 11.6706 39.5705 11.7695C39.6642 11.8685 39.7384 11.9857 39.7931 12.1211C39.8478 12.2565 39.8752 12.4089 39.8752 12.5781ZM38.9689 10.3359C38.9689 10.2318 38.9533 10.1341 38.922 10.043C38.8908 9.94922 38.8361 9.86979 38.758 9.80469C38.6798 9.73698 38.5744 9.68359 38.4416 9.64453C38.3088 9.60547 38.1408 9.58594 37.9377 9.58594H37.2189V11.1836H37.9142C38.0731 11.1836 38.2163 11.1667 38.3439 11.1328C38.4741 11.099 38.5848 11.0469 38.6759 10.9766C38.7697 10.9062 38.8413 10.819 38.8908 10.7148C38.9429 10.6081 38.9689 10.4818 38.9689 10.3359ZM39.1369 12.6016C39.1369 12.4714 39.1095 12.3542 39.0548 12.25C39.0002 12.1458 38.9207 12.0586 38.8166 11.9883C38.7124 11.9154 38.5848 11.8594 38.4338 11.8203C38.2853 11.7812 38.1173 11.7617 37.9298 11.7617H37.2189V13.5195H37.9533C38.3517 13.5195 38.6486 13.4453 38.8439 13.2969C39.0392 13.1484 39.1369 12.9167 39.1369 12.6016Z" fill="white"/>
<path d="M43.9516 13.9141C43.5427 14.0833 43.1143 14.168 42.6664 14.168C41.9451 14.168 41.3904 13.9531 41.0023 13.5234C40.6169 13.0911 40.4242 12.4531 40.4242 11.6094C40.4242 11.2005 40.4776 10.8307 40.5844 10.5C40.6911 10.1693 40.8435 9.88932 41.0414 9.66016C41.2393 9.42839 41.4789 9.25 41.7602 9.125C42.0414 9 42.3565 8.9375 42.7055 8.9375C42.9424 8.9375 43.1625 8.95833 43.3656 9C43.5687 9.03906 43.7641 9.10026 43.9516 9.18359V9.86719C43.7667 9.76562 43.5753 9.6888 43.3773 9.63672C43.1794 9.58203 42.9633 9.55469 42.7289 9.55469C42.4893 9.55469 42.2719 9.60026 42.0766 9.69141C41.8839 9.77995 41.7198 9.91016 41.5844 10.082C41.449 10.2513 41.3448 10.4596 41.2719 10.707C41.199 10.9518 41.1625 11.2318 41.1625 11.5469C41.1625 12.2083 41.2966 12.707 41.5648 13.043C41.8331 13.3789 42.2263 13.5469 42.7445 13.5469C42.9633 13.5469 43.1729 13.5221 43.3734 13.4727C43.574 13.4206 43.7667 13.349 43.9516 13.2578V13.9141Z" fill="white"/>
<path d="M48.3366 11.4961C48.3366 11.7409 48.317 11.9753 48.278 12.1992C48.2415 12.4232 48.1816 12.6315 48.0983 12.8242C48.0149 13.0169 47.9069 13.1927 47.7741 13.3516C47.6413 13.5078 47.4785 13.6419 47.2858 13.7539C47.0931 13.8659 46.8691 13.9531 46.6139 14.0156C46.3587 14.0755 46.0683 14.1055 45.7428 14.1055H44.6491V9H45.9655C46.7623 9 47.3561 9.20573 47.7467 9.61719C48.1399 10.026 48.3366 10.6523 48.3366 11.4961ZM47.6061 11.5469C47.6061 11.1849 47.5722 10.8789 47.5045 10.6289C47.4368 10.3789 47.334 10.1771 47.1959 10.0234C47.0579 9.86979 46.8847 9.75911 46.6764 9.69141C46.4681 9.62109 46.2233 9.58594 45.942 9.58594H45.3444V13.5039H45.8639C47.0254 13.5039 47.6061 12.8516 47.6061 11.5469Z" fill="white"/>
<path d="M50.5497 12.875C50.6382 12.875 50.7216 12.8919 50.7997 12.9258C50.8804 12.9596 50.9494 13.0065 51.0067 13.0664C51.0666 13.1263 51.1135 13.1966 51.1473 13.2773C51.1812 13.3555 51.1981 13.4401 51.1981 13.5312C51.1981 13.6198 51.1812 13.7031 51.1473 13.7812C51.1135 13.8594 51.0666 13.9284 51.0067 13.9883C50.9494 14.0456 50.8804 14.0911 50.7997 14.125C50.7216 14.1589 50.6382 14.1758 50.5497 14.1758C50.4585 14.1758 50.3739 14.1589 50.2958 14.125C50.2177 14.0911 50.1486 14.0456 50.0887 13.9883C50.0315 13.9284 49.9859 13.8594 49.952 13.7812C49.9182 13.7031 49.9012 13.6198 49.9012 13.5312C49.9012 13.4401 49.9182 13.3555 49.952 13.2773C49.9859 13.1966 50.0315 13.1263 50.0887 13.0664C50.1486 13.0065 50.2177 12.9596 50.2958 12.9258C50.3739 12.8919 50.4585 12.875 50.5497 12.875Z" fill="white"/>
<path d="M29.7887 19.1133C29.8695 19.1133 29.9463 19.1302 30.0192 19.1641C30.0921 19.1953 30.1559 19.2383 30.2106 19.293C30.2653 19.3477 30.3083 19.4115 30.3395 19.4844C30.3734 19.5573 30.3903 19.6341 30.3903 19.7148C30.3903 19.7982 30.3734 19.8763 30.3395 19.9492C30.3083 20.0195 30.2653 20.082 30.2106 20.1367C30.1559 20.1914 30.0921 20.2344 30.0192 20.2656C29.9463 20.2969 29.8695 20.3125 29.7887 20.3125C29.7054 20.3125 29.6273 20.2969 29.5544 20.2656C29.4841 20.2344 29.4216 20.1914 29.3669 20.1367C29.3122 20.082 29.2692 20.0195 29.238 19.9492C29.2067 19.8763 29.1911 19.7982 29.1911 19.7148C29.1911 19.6341 29.2067 19.5573 29.238 19.4844C29.2692 19.4115 29.3122 19.3477 29.3669 19.293C29.4216 19.2383 29.4841 19.1953 29.5544 19.1641C29.6273 19.1302 29.7054 19.1133 29.7887 19.1133ZM29.7887 21.9766C29.8695 21.9766 29.9463 21.9935 30.0192 22.0273C30.0921 22.0586 30.1559 22.1016 30.2106 22.1562C30.2653 22.2109 30.3083 22.2747 30.3395 22.3477C30.3734 22.4206 30.3903 22.4974 30.3903 22.5781C30.3903 22.6615 30.3734 22.7396 30.3395 22.8125C30.3083 22.8828 30.2653 22.9453 30.2106 23C30.1559 23.0547 30.0921 23.0977 30.0192 23.1289C29.9463 23.1602 29.8695 23.1758 29.7887 23.1758C29.7054 23.1758 29.6273 23.1602 29.5544 23.1289C29.4841 23.0977 29.4216 23.0547 29.3669 23C29.3122 22.9453 29.2692 22.8828 29.238 22.8125C29.2067 22.7396 29.1911 22.6615 29.1911 22.5781C29.1911 22.4974 29.2067 22.4206 29.238 22.3477C29.2692 22.2747 29.3122 22.2109 29.3669 22.1562C29.4216 22.1016 29.4841 22.0586 29.5544 22.0273C29.6273 21.9935 29.7054 21.9766 29.7887 21.9766Z" fill="white"/>
<path d="M35.4355 23.1055H32.5331V18H35.4355V18.5859H33.2284V20.168H35.3495V20.7539H33.2284V22.5117H35.4355V23.1055Z" fill="white"/>
<path d="M39.5861 18.5938H37.4181V20.25H39.4728V20.832H37.4181V23.1055H36.7072V18H39.5861V18.5938Z" fill="white"/>
<path d="M43.9945 18.875C43.8044 18.7734 43.6091 18.6953 43.4086 18.6406C43.2081 18.5833 42.9893 18.5547 42.7523 18.5547C42.4815 18.5547 42.2406 18.6029 42.0297 18.6992C41.8187 18.7956 41.6404 18.9323 41.4945 19.1094C41.3513 19.2839 41.2406 19.4948 41.1625 19.7422C41.087 19.9896 41.0492 20.263 41.0492 20.5625C41.0492 20.875 41.0805 21.1549 41.143 21.4023C41.2055 21.6497 41.3031 21.8594 41.4359 22.0312C41.5687 22.2031 41.738 22.3346 41.9437 22.4258C42.1521 22.5169 42.4008 22.5625 42.6898 22.5625C42.7393 22.5625 42.7927 22.5599 42.85 22.5547C42.9073 22.5495 42.9646 22.543 43.0219 22.5352C43.0792 22.5247 43.1339 22.513 43.1859 22.5C43.2406 22.487 43.2888 22.4727 43.3305 22.457V20.832H42.2875V20.2578H44.018V22.8672C43.9112 22.9167 43.7979 22.9609 43.6781 23C43.5609 23.0391 43.4398 23.0716 43.3148 23.0977C43.1924 23.1237 43.0701 23.1432 42.9477 23.1562C42.8253 23.1693 42.7068 23.1758 42.5922 23.1758C42.2432 23.1758 41.9281 23.1211 41.6469 23.0117C41.3682 22.9023 41.1299 22.7409 40.932 22.5273C40.7367 22.3112 40.5857 22.043 40.4789 21.7227C40.3747 21.4023 40.3227 21.0312 40.3227 20.6094C40.3227 20.1901 40.3812 19.8151 40.4984 19.4844C40.6156 19.151 40.7797 18.8698 40.9906 18.6406C41.2042 18.4089 41.4594 18.2331 41.7562 18.1133C42.0557 17.9909 42.3852 17.9297 42.7445 17.9297C42.9737 17.9297 43.1911 17.9505 43.3969 17.9922C43.6052 18.0312 43.8044 18.0951 43.9945 18.1836V18.875Z" fill="white"/>
<path d="M48.192 23.1055H47.4967V20.7617H45.3522V23.1055H44.6569V18H45.3522V20.1602H47.4967V18H48.192V23.1055Z" fill="white"/>
<path d="M50.2294 18.5859H49.0536V18H52.1083V18.5859H50.9325V22.5117H52.1083V23.1055H49.0536V22.5117H50.2294V18.5859Z" fill="white"/>
<path d="M54.7081 21.875C54.7967 21.875 54.88 21.8919 54.9581 21.9258C55.0389 21.9596 55.1079 22.0065 55.1652 22.0664C55.2251 22.1263 55.2719 22.1966 55.3058 22.2773C55.3396 22.3555 55.3566 22.4401 55.3566 22.5312C55.3566 22.6198 55.3396 22.7031 55.3058 22.7812C55.2719 22.8594 55.2251 22.9284 55.1652 22.9883C55.1079 23.0456 55.0389 23.0911 54.9581 23.125C54.88 23.1589 54.7967 23.1758 54.7081 23.1758C54.617 23.1758 54.5323 23.1589 54.4542 23.125C54.3761 23.0911 54.3071 23.0456 54.2472 22.9883C54.1899 22.9284 54.1443 22.8594 54.1105 22.7812C54.0766 22.7031 54.0597 22.6198 54.0597 22.5312C54.0597 22.4401 54.0766 22.3555 54.1105 22.2773C54.1443 22.1966 54.1899 22.1263 54.2472 22.0664C54.3071 22.0065 54.3761 21.9596 54.4542 21.9258C54.5323 21.8919 54.617 21.875 54.7081 21.875Z" fill="white"/>
<path d="M25.5991 30.875C25.6876 30.875 25.7709 30.8919 25.8491 30.9258C25.9298 30.9596 25.9988 31.0065 26.0561 31.0664C26.116 31.1263 26.1629 31.1966 26.1967 31.2773C26.2306 31.3555 26.2475 31.4401 26.2475 31.5312C26.2475 31.6198 26.2306 31.7031 26.1967 31.7812C26.1629 31.8594 26.116 31.9284 26.0561 31.9883C25.9988 32.0456 25.9298 32.0911 25.8491 32.125C25.7709 32.1589 25.6876 32.1758 25.5991 32.1758C25.5079 32.1758 25.4233 32.1589 25.3452 32.125C25.267 32.0911 25.198 32.0456 25.1381 31.9883C25.0808 31.9284 25.0353 31.8594 25.0014 31.7812C24.9676 31.7031 24.9506 31.6198 24.9506 31.5312C24.9506 31.4401 24.9676 31.3555 25.0014 31.2773C25.0353 31.1966 25.0808 31.1263 25.1381 31.0664C25.198 31.0065 25.267 30.9596 25.3452 30.9258C25.4233 30.8919 25.5079 30.875 25.5991 30.875Z" fill="white"/>
<path d="M34.3573 27.5312H33.6777L32.4277 26.5859H33.412L34.3573 27.5312Z" fill="white"/>
<path d="M39.3322 27V30.5469C39.3322 30.7656 39.2996 30.974 39.2345 31.1719C39.1694 31.3672 39.0705 31.5378 38.9377 31.6836C38.8048 31.8294 38.6382 31.9453 38.4377 32.0312C38.2371 32.1172 38.0015 32.1602 37.7306 32.1602C37.6291 32.1602 37.5249 32.1523 37.4181 32.1367C37.314 32.1237 37.2124 32.1055 37.1134 32.082C37.0171 32.056 36.9259 32.026 36.84 31.9922C36.7541 31.9557 36.6798 31.9167 36.6173 31.875V31.1758C36.7788 31.293 36.9572 31.3854 37.1525 31.4531C37.3504 31.5208 37.5457 31.5547 37.7384 31.5547C38.0223 31.5547 38.241 31.4688 38.3947 31.2969C38.5483 31.1224 38.6252 30.8724 38.6252 30.5469V27.6016H36.6838V27H39.3322Z" fill="white"/>
<path d="M44.1547 32.1055H43.2797L41.3695 29.6016V32.1055H40.6742V27H41.3695V29.3711L43.2406 27H44.0648L42.0492 29.4258L44.1547 32.1055Z" fill="white"/>
<path d="M48.0709 32.1055H45.1334V27H45.8405V31.5117H48.0709V32.1055Z" fill="white"/>
<path d="M52.5887 32.1055H51.9091L51.8075 28.9219L51.7645 27.6992L51.5262 28.4102L50.7723 30.4414H50.2919L49.5731 28.4883L49.3348 27.6992L49.3192 28.9766L49.2294 32.1055H48.5731L48.8231 27H49.6473L50.3348 28.9219L50.5575 29.5703L50.7723 28.9219L51.495 27H52.3427L52.5887 32.1055Z" fill="white"/>
<path d="M56.4777 32.1055H55.5714L54.0831 28.9219L53.6534 27.8984V32.1055H53.005V27H53.8995L55.3175 30.0156L55.8292 31.1836V27H56.4777V32.1055Z" fill="white"/>
<path d="M58.8666 30.875C58.9551 30.875 59.0384 30.8919 59.1166 30.9258C59.1973 30.9596 59.2663 31.0065 59.3236 31.0664C59.3835 31.1263 59.4304 31.1966 59.4642 31.2773C59.4981 31.3555 59.515 31.4401 59.515 31.5312C59.515 31.6198 59.4981 31.7031 59.4642 31.7812C59.4304 31.8594 59.3835 31.9284 59.3236 31.9883C59.2663 32.0456 59.1973 32.0911 59.1166 32.125C59.0384 32.1589 58.9551 32.1758 58.8666 32.1758C58.7754 32.1758 58.6908 32.1589 58.6127 32.125C58.5345 32.0911 58.4655 32.0456 58.4056 31.9883C58.3483 31.9284 58.3028 31.8594 58.2689 31.7812C58.2351 31.7031 58.2181 31.6198 58.2181 31.5312C58.2181 31.4401 58.2351 31.3555 58.2689 31.2773C58.3028 31.1966 58.3483 31.1263 58.4056 31.0664C58.4655 31.0065 58.5345 30.9596 58.6127 30.9258C58.6908 30.8919 58.7754 30.875 58.8666 30.875Z" fill="white"/>
<path d="M21.4406 39.875C21.5292 39.875 21.6125 39.8919 21.6906 39.9258C21.7714 39.9596 21.8404 40.0065 21.8977 40.0664C21.9576 40.1263 22.0044 40.1966 22.0383 40.2773C22.0721 40.3555 22.0891 40.4401 22.0891 40.5312C22.0891 40.6198 22.0721 40.7031 22.0383 40.7812C22.0044 40.8594 21.9576 40.9284 21.8977 40.9883C21.8404 41.0456 21.7714 41.0911 21.6906 41.125C21.6125 41.1589 21.5292 41.1758 21.4406 41.1758C21.3495 41.1758 21.2648 41.1589 21.1867 41.125C21.1086 41.0911 21.0396 41.0456 20.9797 40.9883C20.9224 40.9284 20.8768 40.8594 20.843 40.7812C20.8091 40.7031 20.7922 40.6198 20.7922 40.5312C20.7922 40.4401 20.8091 40.3555 20.843 40.2773C20.8768 40.1966 20.9224 40.1263 20.9797 40.0664C21.0396 40.0065 21.1086 39.9596 21.1867 39.9258C21.2648 39.8919 21.3495 39.875 21.4406 39.875Z" fill="white"/>
<path d="M27.6147 38.5195C27.6147 38.9779 27.56 39.3737 27.4506 39.707C27.3439 40.0404 27.198 40.3164 27.0131 40.5352C26.8308 40.7513 26.616 40.9128 26.3686 41.0195C26.1238 41.1237 25.8647 41.1758 25.5912 41.1758C25.2631 41.1758 24.9767 41.1172 24.7319 41C24.4897 40.8802 24.2879 40.7083 24.1264 40.4844C23.9676 40.2604 23.8491 39.9883 23.7709 39.668C23.6928 39.3451 23.6537 38.9818 23.6537 38.5781C23.6537 38.125 23.7071 37.7318 23.8139 37.3984C23.9207 37.0651 24.0652 36.7904 24.2475 36.5742C24.4324 36.3555 24.6472 36.194 24.892 36.0898C25.1368 35.9831 25.3959 35.9297 25.6694 35.9297C25.9975 35.9297 26.2827 35.9896 26.5248 36.1094C26.7696 36.2292 26.9728 36.401 27.1342 36.625C27.2957 36.8464 27.4155 37.1172 27.4936 37.4375C27.5743 37.7578 27.6147 38.1185 27.6147 38.5195ZM26.892 38.5703C26.892 38.2708 26.8686 37.9974 26.8217 37.75C26.7774 37.5 26.7045 37.2852 26.603 37.1055C26.5014 36.9258 26.3699 36.7865 26.2084 36.6875C26.0496 36.5885 25.8569 36.5391 25.6303 36.5391C25.4116 36.5391 25.2228 36.5924 25.0639 36.6992C24.9077 36.8034 24.7787 36.9466 24.6772 37.1289C24.5756 37.3086 24.5001 37.5208 24.4506 37.7656C24.4011 38.0078 24.3764 38.2656 24.3764 38.5391C24.3764 38.8411 24.3998 39.1172 24.4467 39.3672C24.4936 39.6146 24.5665 39.8281 24.6655 40.0078C24.767 40.1849 24.8972 40.3229 25.0561 40.4219C25.2149 40.5208 25.4064 40.5703 25.6303 40.5703C25.8491 40.5703 26.0379 40.5182 26.1967 40.4141C26.3556 40.3073 26.4858 40.1641 26.5873 39.9844C26.6915 39.8021 26.7683 39.5898 26.8178 39.3477C26.8673 39.1055 26.892 38.8464 26.892 38.5703Z" fill="white"/>
<path d="M29.7575 39.875C29.846 39.875 29.9294 39.8919 30.0075 39.9258C30.0882 39.9596 30.1572 40.0065 30.2145 40.0664C30.2744 40.1263 30.3213 40.1966 30.3552 40.2773C30.389 40.3555 30.4059 40.4401 30.4059 40.5312C30.4059 40.6198 30.389 40.7031 30.3552 40.7812C30.3213 40.8594 30.2744 40.9284 30.2145 40.9883C30.1572 41.0456 30.0882 41.0911 30.0075 41.125C29.9294 41.1589 29.846 41.1758 29.7575 41.1758C29.6664 41.1758 29.5817 41.1589 29.5036 41.125C29.4255 41.0911 29.3565 41.0456 29.2966 40.9883C29.2393 40.9284 29.1937 40.8594 29.1598 40.7812C29.126 40.7031 29.1091 40.6198 29.1091 40.5312C29.1091 40.4401 29.126 40.3555 29.1598 40.2773C29.1937 40.1966 29.2393 40.1263 29.2966 40.0664C29.3565 40.0065 29.4255 39.9596 29.5036 39.9258C29.5817 39.8919 29.6664 39.875 29.7575 39.875Z" fill="white"/>
<path d="M38.5158 36.5312H37.8361L36.5861 35.5859H37.5705L38.5158 36.5312Z" fill="white"/>
<path d="M44.0336 37.5625C44.0336 37.7708 43.9945 37.9779 43.9164 38.1836C43.8383 38.3867 43.7172 38.569 43.5531 38.7305C43.3891 38.8919 43.1794 39.0234 42.9242 39.125C42.669 39.224 42.3643 39.2734 42.0102 39.2734H41.3773V41.1055H40.682V36H42.1195C42.3721 36 42.6143 36.0286 42.8461 36.0859C43.0779 36.1406 43.281 36.2305 43.4555 36.3555C43.6326 36.4805 43.7732 36.6419 43.8773 36.8398C43.9815 37.0378 44.0336 37.2786 44.0336 37.5625ZM43.3109 37.5938C43.3109 37.2656 43.2029 37.0143 42.9867 36.8398C42.7732 36.6654 42.4737 36.5781 42.0883 36.5781H41.3773V38.6797H42.0258C42.4372 38.6797 42.7536 38.5898 42.975 38.4102C43.199 38.2305 43.3109 37.9583 43.3109 37.5938Z" fill="white"/>
<path d="M46.0475 41.1523C45.7767 41.1133 45.541 41.0273 45.3405 40.8945C45.1399 40.7617 44.9733 40.5872 44.8405 40.3711C44.7077 40.1523 44.6087 39.8958 44.5436 39.6016C44.4785 39.3047 44.4459 38.9766 44.4459 38.6172C44.4459 38.1536 44.4993 37.7526 44.6061 37.4141C44.7129 37.0755 44.8574 36.7969 45.0397 36.5781C45.2246 36.3568 45.4394 36.194 45.6842 36.0898C45.929 35.9831 46.1881 35.9297 46.4616 35.9297C46.7897 35.9297 47.0748 35.9896 47.317 36.1094C47.5618 36.2266 47.7649 36.3971 47.9264 36.6211C48.0879 36.8424 48.2077 37.112 48.2858 37.4297C48.3665 37.7448 48.4069 38.1003 48.4069 38.4961C48.4069 38.9128 48.3626 39.2786 48.2741 39.5938C48.1855 39.9062 48.0644 40.1719 47.9108 40.3906C47.7571 40.6094 47.5761 40.7812 47.3678 40.9062C47.1595 41.0312 46.9355 41.1133 46.6959 41.1523C46.735 41.3815 46.8261 41.5651 46.9694 41.7031C47.1126 41.8438 47.3144 41.9141 47.5748 41.9141C47.6998 41.9141 47.8222 41.8932 47.942 41.8516C48.0644 41.8099 48.1881 41.7396 48.3131 41.6406L48.6217 42.1211C48.4498 42.2617 48.2728 42.362 48.0905 42.4219C47.9082 42.4818 47.7207 42.5117 47.528 42.5117C47.3196 42.5117 47.1282 42.4831 46.9538 42.4258C46.7793 42.3685 46.6269 42.2826 46.4967 42.168C46.3691 42.056 46.2663 41.9141 46.1881 41.7422C46.11 41.5729 46.0631 41.3763 46.0475 41.1523ZM47.6842 38.5781C47.6842 38.276 47.6608 38.0013 47.6139 37.7539C47.5696 37.5039 47.4967 37.2904 47.3952 37.1133C47.2936 36.9336 47.1621 36.7943 47.0006 36.6953C46.8418 36.5964 46.6491 36.5469 46.4225 36.5469C46.2038 36.5469 46.0149 36.599 45.8561 36.7031C45.6998 36.8073 45.5709 36.9492 45.4694 37.1289C45.3678 37.306 45.2923 37.5143 45.2428 37.7539C45.1933 37.9909 45.1686 38.2435 45.1686 38.5117C45.1686 38.8216 45.192 39.1029 45.2389 39.3555C45.2858 39.6055 45.3587 39.8203 45.4577 40C45.5592 40.1797 45.6894 40.319 45.8483 40.418C46.0071 40.5143 46.1985 40.5625 46.4225 40.5625C46.6413 40.5625 46.8301 40.5104 46.9889 40.4062C47.1478 40.3021 47.278 40.1602 47.3795 39.9805C47.4837 39.8008 47.5605 39.5911 47.61 39.3516C47.6595 39.1094 47.6842 38.8516 47.6842 38.5781Z" fill="white"/>
<path d="M52.4872 41.1055H51.702L50.9403 39.4727C50.883 39.3477 50.8244 39.2448 50.7645 39.1641C50.7046 39.0807 50.6395 39.0156 50.5692 38.9688C50.5015 38.9193 50.426 38.8841 50.3427 38.8633C50.2619 38.8424 50.1708 38.832 50.0692 38.832H49.7411V41.1055H49.0458V36H50.413C50.7098 36 50.9651 36.0326 51.1786 36.0977C51.3921 36.1628 51.5666 36.2539 51.702 36.3711C51.8401 36.4883 51.9403 36.6302 52.0028 36.7969C52.0679 36.9609 52.1005 37.1432 52.1005 37.3438C52.1005 37.5026 52.077 37.6536 52.0302 37.7969C51.9833 37.9375 51.913 38.0664 51.8192 38.1836C51.7281 38.2982 51.6135 38.3984 51.4755 38.4844C51.3401 38.5677 51.1838 38.6302 51.0067 38.6719C51.1499 38.7214 51.271 38.8086 51.37 38.9336C51.4716 39.056 51.5744 39.2201 51.6786 39.4258L52.4872 41.1055ZM51.3739 37.4023C51.3739 37.1289 51.288 36.9245 51.1161 36.7891C50.9468 36.6536 50.7072 36.5859 50.3973 36.5859H49.7411V38.2734H50.3036C50.4677 38.2734 50.6148 38.2552 50.745 38.2188C50.8778 38.1797 50.9898 38.1237 51.0809 38.0508C51.1747 37.9753 51.2463 37.8841 51.2958 37.7773C51.3479 37.668 51.3739 37.543 51.3739 37.4023Z" fill="white"/>
<path d="M56.4347 39.7227C56.4347 39.9648 56.3852 40.1771 56.2863 40.3594C56.1873 40.5417 56.0493 40.694 55.8722 40.8164C55.6951 40.9362 55.4816 41.026 55.2316 41.0859C54.9842 41.1458 54.7107 41.1758 54.4113 41.1758C54.2758 41.1758 54.1404 41.1706 54.005 41.1602C53.8722 41.1497 53.7433 41.1367 53.6183 41.1211C53.4959 41.1055 53.38 41.0872 53.2706 41.0664C53.1613 41.0456 53.0623 41.0234 52.9738 41V40.3281C53.1691 40.401 53.3878 40.4583 53.63 40.5C53.8748 40.5417 54.1521 40.5625 54.462 40.5625C54.686 40.5625 54.8761 40.5456 55.0323 40.5117C55.1912 40.4753 55.3201 40.4232 55.4191 40.3555C55.5206 40.2852 55.5935 40.2005 55.6378 40.1016C55.6847 40.0026 55.7081 39.8893 55.7081 39.7617C55.7081 39.6237 55.6691 39.5065 55.5909 39.4102C55.5154 39.3112 55.4152 39.224 55.2902 39.1484C55.1652 39.0703 55.0219 39 54.8605 38.9375C54.7016 38.8724 54.5389 38.806 54.3722 38.7383C54.2055 38.6706 54.0415 38.5977 53.88 38.5195C53.7211 38.4388 53.5792 38.3451 53.4542 38.2383C53.3292 38.1289 53.2277 38.0013 53.1495 37.8555C53.074 37.7096 53.0363 37.5365 53.0363 37.3359C53.0363 37.1615 53.0727 36.9896 53.1456 36.8203C53.2185 36.651 53.3318 36.5013 53.4855 36.3711C53.6391 36.2383 53.8357 36.1315 54.0753 36.0508C54.3175 35.9701 54.6053 35.9297 54.9386 35.9297C55.0245 35.9297 55.117 35.9336 55.2159 35.9414C55.3175 35.9492 55.4191 35.9609 55.5206 35.9766C55.6248 35.9896 55.7264 36.0052 55.8253 36.0234C55.9269 36.0417 56.0206 36.0612 56.1066 36.082V36.707C55.906 36.6497 55.7055 36.6068 55.505 36.5781C55.3045 36.5469 55.1105 36.5312 54.923 36.5312C54.5245 36.5312 54.2316 36.5977 54.0441 36.7305C53.8566 36.8633 53.7628 37.0417 53.7628 37.2656C53.7628 37.4036 53.8006 37.5221 53.8761 37.6211C53.9542 37.7201 54.0558 37.8086 54.1808 37.8867C54.3058 37.9648 54.4477 38.0365 54.6066 38.1016C54.768 38.1641 54.9321 38.2292 55.0988 38.2969C55.2654 38.3646 55.4282 38.4388 55.587 38.5195C55.7485 38.6003 55.8917 38.6966 56.0167 38.8086C56.1417 38.918 56.242 39.0469 56.3175 39.1953C56.3956 39.3438 56.4347 39.5195 56.4347 39.7227Z" fill="white"/>
<path d="M60.7611 36.5938H59.2494V41.1055H58.5462V36.5938H57.0345V36H60.7611V36.5938Z" fill="white"/>
<path d="M63.025 39.875C63.1135 39.875 63.1969 39.8919 63.275 39.9258C63.3557 39.9596 63.4247 40.0065 63.482 40.0664C63.5419 40.1263 63.5888 40.1966 63.6227 40.2773C63.6565 40.3555 63.6734 40.4401 63.6734 40.5312C63.6734 40.6198 63.6565 40.7031 63.6227 40.7812C63.5888 40.8594 63.5419 40.9284 63.482 40.9883C63.4247 41.0456 63.3557 41.0911 63.275 41.125C63.1969 41.1589 63.1135 41.1758 63.025 41.1758C62.9339 41.1758 62.8492 41.1589 62.7711 41.125C62.693 41.0911 62.624 41.0456 62.5641 40.9883C62.5068 40.9284 62.4612 40.8594 62.4273 40.7812C62.3935 40.7031 62.3766 40.6198 62.3766 40.5312C62.3766 40.4401 62.3935 40.3555 62.4273 40.2773C62.4612 40.1966 62.5068 40.1263 62.5641 40.0664C62.624 40.0065 62.693 39.9596 62.7711 39.9258C62.8492 39.8919 62.9339 39.875 63.025 39.875Z" fill="white"/>
<path d="M17.2822 48.875C17.3707 48.875 17.4541 48.8919 17.5322 48.9258C17.6129 48.9596 17.6819 49.0065 17.7392 49.0664C17.7991 49.1263 17.846 49.1966 17.8798 49.2773C17.9137 49.3555 17.9306 49.4401 17.9306 49.5312C17.9306 49.6198 17.9137 49.7031 17.8798 49.7812C17.846 49.8594 17.7991 49.9284 17.7392 49.9883C17.6819 50.0456 17.6129 50.0911 17.5322 50.125C17.4541 50.1589 17.3707 50.1758 17.2822 50.1758C17.191 50.1758 17.1064 50.1589 17.0283 50.125C16.9502 50.0911 16.8811 50.0456 16.8213 49.9883C16.764 49.9284 16.7184 49.8594 16.6845 49.7812C16.6507 49.7031 16.6338 49.6198 16.6338 49.5312C16.6338 49.4401 16.6507 49.3555 16.6845 49.2773C16.7184 49.1966 16.764 49.1263 16.8213 49.0664C16.8811 49.0065 16.9502 48.9596 17.0283 48.9258C17.1064 48.8919 17.191 48.875 17.2822 48.875Z" fill="white"/>
<path d="M23.2492 48.3281C23.2492 48.6094 23.2089 48.8646 23.1281 49.0938C23.05 49.3203 22.9341 49.5143 22.7805 49.6758C22.6268 49.8346 22.438 49.9583 22.2141 50.0469C21.9927 50.1328 21.7375 50.1758 21.4484 50.1758C21.1307 50.1758 20.8612 50.1341 20.6398 50.0508C20.4185 49.9674 20.2375 49.8503 20.0969 49.6992C19.9589 49.5456 19.8573 49.362 19.7922 49.1484C19.7297 48.9349 19.6984 48.6966 19.6984 48.4336V45H20.3937V48.3789C20.3937 48.5794 20.412 48.7552 20.4484 48.9062C20.4875 49.0573 20.55 49.1836 20.6359 49.2852C20.7219 49.3867 20.8326 49.4635 20.968 49.5156C21.106 49.5677 21.274 49.5938 21.4719 49.5938C21.8417 49.5938 22.1138 49.487 22.2883 49.2734C22.4654 49.0599 22.5539 48.7591 22.5539 48.3711V45H23.2492V48.3281Z" fill="white"/>
<path d="M26.0405 45.5312H25.3608L24.1108 44.5859H25.0952L26.0405 45.5312Z" fill="white"/>
<path d="M31.9723 45L30.238 50.1055H29.3005L27.6052 45H28.3903L29.4919 48.4414L29.8044 49.4492L30.1247 48.4414L31.2302 45H31.9723Z" fill="white"/>
<path d="M33.9159 48.875C34.0045 48.875 34.0878 48.8919 34.1659 48.9258C34.2467 48.9596 34.3157 49.0065 34.373 49.0664C34.4329 49.1263 34.4797 49.1966 34.5136 49.2773C34.5474 49.3555 34.5644 49.4401 34.5644 49.5312C34.5644 49.6198 34.5474 49.7031 34.5136 49.7812C34.4797 49.8594 34.4329 49.9284 34.373 49.9883C34.3157 50.0456 34.2467 50.0911 34.1659 50.125C34.0878 50.1589 34.0045 50.1758 33.9159 50.1758C33.8248 50.1758 33.7402 50.1589 33.662 50.125C33.5839 50.0911 33.5149 50.0456 33.455 49.9883C33.3977 49.9284 33.3521 49.8594 33.3183 49.7812C33.2844 49.7031 33.2675 49.6198 33.2675 49.5312C33.2675 49.4401 33.2844 49.3555 33.3183 49.2773C33.3521 49.1966 33.3977 49.1263 33.455 49.0664C33.5149 49.0065 33.5839 48.9596 33.662 48.9258C33.7402 48.8919 33.8248 48.875 33.9159 48.875Z" fill="white"/>
<path d="M42.6742 45.5312H41.9945L40.7445 44.5859H41.7289L42.6742 45.5312Z" fill="white"/>
<path d="M48.4459 45L48.1022 50.1055H47.1998L46.567 48.2891L46.3913 47.707L46.2077 48.3359L45.6217 50.1055H44.7506L44.3991 45H45.0553L45.2545 48.4727L45.3131 49.4258L45.5592 48.6172L46.1764 46.7227H46.6569L47.3678 48.7539L47.6061 49.4258L47.6217 48.7227L47.8248 45H48.4459Z" fill="white"/>
<path d="M52.6864 50.1055H51.8075L50.5653 48.043L49.3192 50.1055H48.452L50.1512 47.4961L48.5887 45H49.413L50.5809 46.9219L51.7567 45H52.5575L50.9911 47.4648L52.6864 50.1055Z" fill="white"/>
<path d="M56.9386 45L55.0909 48.2812V50.1055H54.3878V48.2656L52.5402 45H53.38L54.3956 46.8672L54.7706 47.6172L55.1144 46.9375L56.1417 45H56.9386Z" fill="white"/>
<path d="M60.6087 45.5469L58.0033 49.457H60.6595V50.1055H57.1322V49.5859L59.7533 45.6328H57.2025V45H60.6087V45.5469Z" fill="white"/>
<path d="M65.2164 50.1055H64.4586L64.1031 48.9922H61.9781L61.6188 50.1055H60.8961L62.5914 45H63.5445L65.2164 50.1055ZM63.9039 48.3711L63.0406 45.6406L62.1773 48.3711H63.9039Z" fill="white"/>
<path d="M67.1834 48.875C67.272 48.875 67.3553 48.8919 67.4334 48.9258C67.5142 48.9596 67.5832 49.0065 67.6405 49.0664C67.7004 49.1263 67.7472 49.1966 67.7811 49.2773C67.815 49.3555 67.8319 49.4401 67.8319 49.5312C67.8319 49.6198 67.815 49.7031 67.7811 49.7812C67.7472 49.8594 67.7004 49.9284 67.6405 49.9883C67.5832 50.0456 67.5142 50.0911 67.4334 50.125C67.3553 50.1589 67.272 50.1758 67.1834 50.1758C67.0923 50.1758 67.0077 50.1589 66.9295 50.125C66.8514 50.0911 66.7824 50.0456 66.7225 49.9883C66.6652 49.9284 66.6196 49.8594 66.5858 49.7812C66.5519 49.7031 66.535 49.6198 66.535 49.5312C66.535 49.4401 66.5519 49.3555 66.5858 49.2773C66.6196 49.1966 66.6652 49.1263 66.7225 49.0664C66.7824 49.0065 66.8514 48.9596 66.9295 48.9258C67.0077 48.8919 67.0923 48.875 67.1834 48.875Z" fill="white"/>
<path d="M13.1237 57.875C13.2123 57.875 13.2956 57.8919 13.3737 57.9258C13.4545 57.9596 13.5235 58.0065 13.5808 58.0664C13.6407 58.1263 13.6876 58.1966 13.7214 58.2773C13.7553 58.3555 13.7722 58.4401 13.7722 58.5312C13.7722 58.6198 13.7553 58.7031 13.7214 58.7812C13.6876 58.8594 13.6407 58.9284 13.5808 58.9883C13.5235 59.0456 13.4545 59.0911 13.3737 59.125C13.2956 59.1589 13.2123 59.1758 13.1237 59.1758C13.0326 59.1758 12.948 59.1589 12.8698 59.125C12.7917 59.0911 12.7227 59.0456 12.6628 58.9883C12.6055 58.9284 12.5599 58.8594 12.5261 58.7812C12.4922 58.7031 12.4753 58.6198 12.4753 58.5312C12.4753 58.4401 12.4922 58.3555 12.5261 58.2773C12.5599 58.1966 12.6055 58.1263 12.6628 58.0664C12.7227 58.0065 12.7917 57.9596 12.8698 57.9258C12.948 57.8919 13.0326 57.875 13.1237 57.875Z" fill="white"/>
<path d="M19.083 57.5781C19.083 57.8229 19.0348 58.0404 18.9384 58.2305C18.8447 58.418 18.7093 58.5768 18.5322 58.707C18.3577 58.8372 18.1455 58.9362 17.8955 59.0039C17.6481 59.0716 17.372 59.1055 17.0673 59.1055H15.7314V54H17.1923C18.3304 54 18.8994 54.4141 18.8994 55.2422C18.8994 55.5182 18.833 55.7552 18.7002 55.9531C18.5699 56.151 18.3564 56.2982 18.0595 56.3945C18.1976 56.4206 18.3278 56.4648 18.4502 56.5273C18.5752 56.5898 18.6845 56.6706 18.7783 56.7695C18.872 56.8685 18.9463 56.9857 19.0009 57.1211C19.0556 57.2565 19.083 57.4089 19.083 57.5781ZM18.1767 55.3359C18.1767 55.2318 18.1611 55.1341 18.1298 55.043C18.0986 54.9492 18.0439 54.8698 17.9658 54.8047C17.8877 54.737 17.7822 54.6836 17.6494 54.6445C17.5166 54.6055 17.3486 54.5859 17.1455 54.5859H16.4267V56.1836H17.122C17.2809 56.1836 17.4241 56.1667 17.5517 56.1328C17.6819 56.099 17.7926 56.0469 17.8838 55.9766C17.9775 55.9062 18.0491 55.819 18.0986 55.7148C18.1507 55.6081 18.1767 55.4818 18.1767 55.3359ZM18.3447 57.6016C18.3447 57.4714 18.3173 57.3542 18.2627 57.25C18.208 57.1458 18.1285 57.0586 18.0244 56.9883C17.9202 56.9154 17.7926 56.8594 17.6416 56.8203C17.4931 56.7812 17.3252 56.7617 17.1377 56.7617H16.4267V58.5195H17.1611C17.5595 58.5195 17.8564 58.4453 18.0517 58.2969C18.247 58.1484 18.3447 57.9167 18.3447 57.6016Z" fill="white"/>
<path d="M21.9211 53.5859L21.8078 55.418H21.1359L21.0266 53.5859H21.9211Z" fill="white"/>
<path d="M30.1989 54.5312H29.5192L28.2692 53.5859H29.2536L30.1989 54.5312Z" fill="white"/>
<path d="M35.6347 58.9141C35.2258 59.0833 34.7974 59.168 34.3495 59.168C33.6282 59.168 33.0735 58.9531 32.6855 58.5234C32.3001 58.0911 32.1073 57.4531 32.1073 56.6094C32.1073 56.2005 32.1607 55.8307 32.2675 55.5C32.3743 55.1693 32.5266 54.8893 32.7245 54.6602C32.9224 54.4284 33.162 54.25 33.4433 54.125C33.7245 54 34.0396 53.9375 34.3886 53.9375C34.6256 53.9375 34.8456 53.9583 35.0488 54C35.2519 54.0391 35.4472 54.1003 35.6347 54.1836V54.8672C35.4498 54.7656 35.2584 54.6888 35.0605 54.6367C34.8626 54.582 34.6464 54.5547 34.412 54.5547C34.1724 54.5547 33.955 54.6003 33.7597 54.6914C33.567 54.7799 33.4029 54.9102 33.2675 55.082C33.1321 55.2513 33.0279 55.4596 32.955 55.707C32.8821 55.9518 32.8456 56.2318 32.8456 56.5469C32.8456 57.2083 32.9797 57.707 33.248 58.043C33.5162 58.3789 33.9094 58.5469 34.4277 58.5469C34.6464 58.5469 34.856 58.5221 35.0566 58.4727C35.2571 58.4206 35.4498 58.349 35.6347 58.2578V58.9141Z" fill="white"/>
<path d="M38.0744 57.875C38.1629 57.875 38.2463 57.8919 38.3244 57.9258C38.4051 57.9596 38.4741 58.0065 38.5314 58.0664C38.5913 58.1263 38.6382 58.1966 38.672 58.2773C38.7059 58.3555 38.7228 58.4401 38.7228 58.5312C38.7228 58.6198 38.7059 58.7031 38.672 58.7812C38.6382 58.8594 38.5913 58.9284 38.5314 58.9883C38.4741 59.0456 38.4051 59.0911 38.3244 59.125C38.2463 59.1589 38.1629 59.1758 38.0744 59.1758C37.9832 59.1758 37.8986 59.1589 37.8205 59.125C37.7423 59.0911 37.6733 59.0456 37.6134 58.9883C37.5561 58.9284 37.5106 58.8594 37.4767 58.7812C37.4429 58.7031 37.4259 58.6198 37.4259 58.5312C37.4259 58.4401 37.4429 58.3555 37.4767 58.2773C37.5106 58.1966 37.5561 58.1263 37.6134 58.0664C37.6733 58.0065 37.7423 57.9596 37.8205 57.9258C37.8986 57.8919 37.9832 57.875 38.0744 57.875Z" fill="white"/>
<path d="M46.8327 54.5312H46.153L44.903 53.5859H45.8873L46.8327 54.5312Z" fill="white"/>
<path d="M52.495 56.4961C52.495 56.7409 52.4755 56.9753 52.4364 57.1992C52.3999 57.4232 52.3401 57.6315 52.2567 57.8242C52.1734 58.0169 52.0653 58.1927 51.9325 58.3516C51.7997 58.5078 51.6369 58.6419 51.4442 58.7539C51.2515 58.8659 51.0276 58.9531 50.7723 59.0156C50.5171 59.0755 50.2268 59.1055 49.9012 59.1055H48.8075V54H50.1239C50.9208 54 51.5145 54.2057 51.9052 54.6172C52.2984 55.026 52.495 55.6523 52.495 56.4961ZM51.7645 56.5469C51.7645 56.1849 51.7307 55.8789 51.663 55.6289C51.5953 55.3789 51.4924 55.1771 51.3544 55.0234C51.2164 54.8698 51.0432 54.7591 50.8348 54.6914C50.6265 54.6211 50.3817 54.5859 50.1005 54.5859H49.5028V58.5039H50.0223C51.1838 58.5039 51.7645 57.8516 51.7645 56.5469Z" fill="white"/>
<path d="M56.2277 59.1055H53.3253V54H56.2277V54.5859H54.0206V56.168H56.1417V56.7539H54.0206V58.5117H56.2277V59.1055Z" fill="white"/>
<path d="M60.3783 54.5938H58.2103V56.25H60.265V56.832H58.2103V59.1055H57.4994V54H60.3783V54.5938Z" fill="white"/>
<path d="M64.7867 54.875C64.5966 54.7734 64.4013 54.6953 64.2008 54.6406C64.0003 54.5833 63.7815 54.5547 63.5445 54.5547C63.2737 54.5547 63.0328 54.6029 62.8219 54.6992C62.6109 54.7956 62.4326 54.9323 62.2867 55.1094C62.1435 55.2839 62.0328 55.4948 61.9547 55.7422C61.8792 55.9896 61.8414 56.263 61.8414 56.5625C61.8414 56.875 61.8727 57.1549 61.9352 57.4023C61.9977 57.6497 62.0953 57.8594 62.2281 58.0312C62.3609 58.2031 62.5302 58.3346 62.7359 58.4258C62.9443 58.5169 63.193 58.5625 63.482 58.5625C63.5315 58.5625 63.5849 58.5599 63.6422 58.5547C63.6995 58.5495 63.7568 58.543 63.8141 58.5352C63.8714 58.5247 63.926 58.513 63.9781 58.5C64.0328 58.487 64.081 58.4727 64.1227 58.457V56.832H63.0797V56.2578H64.8102V58.8672C64.7034 58.9167 64.5901 58.9609 64.4703 59C64.3531 59.0391 64.232 59.0716 64.107 59.0977C63.9846 59.1237 63.8622 59.1432 63.7398 59.1562C63.6174 59.1693 63.499 59.1758 63.3844 59.1758C63.0354 59.1758 62.7203 59.1211 62.4391 59.0117C62.1604 58.9023 61.9221 58.7409 61.7242 58.5273C61.5289 58.3112 61.3779 58.043 61.2711 57.7227C61.1669 57.4023 61.1148 57.0312 61.1148 56.6094C61.1148 56.1901 61.1734 55.8151 61.2906 55.4844C61.4078 55.151 61.5719 54.8698 61.7828 54.6406C61.9964 54.4089 62.2516 54.2331 62.5484 54.1133C62.8479 53.9909 63.1773 53.9297 63.5367 53.9297C63.7659 53.9297 63.9833 53.9505 64.1891 53.9922C64.3974 54.0312 64.5966 54.0951 64.7867 54.1836V54.875Z" fill="white"/>
<path d="M68.9842 59.1055H68.2889V56.7617H66.1444V59.1055H65.4491V54H66.1444V56.1602H68.2889V54H68.9842V59.1055Z" fill="white"/>
<path d="M71.3419 57.875C71.4304 57.875 71.5137 57.8919 71.5919 57.9258C71.6726 57.9596 71.7416 58.0065 71.7989 58.0664C71.8588 58.1263 71.9057 58.1966 71.9395 58.2773C71.9734 58.3555 71.9903 58.4401 71.9903 58.5312C71.9903 58.6198 71.9734 58.7031 71.9395 58.7812C71.9057 58.8594 71.8588 58.9284 71.7989 58.9883C71.7416 59.0456 71.6726 59.0911 71.5919 59.125C71.5137 59.1589 71.4304 59.1758 71.3419 59.1758C71.2507 59.1758 71.1661 59.1589 71.088 59.125C71.0098 59.0911 70.9408 59.0456 70.8809 58.9883C70.8236 58.9284 70.7781 58.8594 70.7442 58.7812C70.7104 58.7031 70.6934 58.6198 70.6934 58.5312C70.6934 58.4401 70.7104 58.3555 70.7442 58.2773C70.7781 58.1966 70.8236 58.1263 70.8809 58.0664C70.9408 58.0065 71.0098 57.9596 71.088 57.9258C71.1661 57.8919 71.2507 57.875 71.3419 57.875Z" fill="white"/>
<path d="M8.96531 66.875C9.05385 66.875 9.13719 66.8919 9.21531 66.9258C9.29604 66.9596 9.36505 67.0065 9.42234 67.0664C9.48224 67.1263 9.52912 67.1966 9.56297 67.2773C9.59682 67.3555 9.61375 67.4401 9.61375 67.5312C9.61375 67.6198 9.59682 67.7031 9.56297 67.7812C9.52912 67.8594 9.48224 67.9284 9.42234 67.9883C9.36505 68.0456 9.29604 68.0911 9.21531 68.125C9.13719 68.1589 9.05385 68.1758 8.96531 68.1758C8.87417 68.1758 8.78953 68.1589 8.71141 68.125C8.63328 68.0911 8.56427 68.0456 8.50438 67.9883C8.44708 67.9284 8.40151 67.8594 8.36766 67.7812C8.3338 67.7031 8.31688 67.6198 8.31688 67.5312C8.31688 67.4401 8.3338 67.3555 8.36766 67.2773C8.40151 67.1966 8.44708 67.1263 8.50438 67.0664C8.56427 67.0065 8.63328 66.9596 8.71141 66.9258C8.78953 66.8919 8.87417 66.875 8.96531 66.875Z" fill="white"/>
<path d="M12.8034 63.5859H11.6277V63H14.6823V63.5859H13.5066V67.5117H14.6823V68.1055H11.6277V67.5117H12.8034V63.5859Z" fill="white"/>
<path d="M17.7627 62.5859L17.6494 64.418H16.9775L16.8681 62.5859H17.7627Z" fill="white"/>
<path d="M34.3573 63.5312H33.6777L32.4277 62.5859H33.412L34.3573 63.5312Z" fill="white"/>
<path d="M39.3322 63V66.5469C39.3322 66.7656 39.2996 66.974 39.2345 67.1719C39.1694 67.3672 39.0705 67.5378 38.9377 67.6836C38.8048 67.8294 38.6382 67.9453 38.4377 68.0312C38.2371 68.1172 38.0015 68.1602 37.7306 68.1602C37.6291 68.1602 37.5249 68.1523 37.4181 68.1367C37.314 68.1237 37.2124 68.1055 37.1134 68.082C37.0171 68.056 36.9259 68.026 36.84 67.9922C36.7541 67.9557 36.6798 67.9167 36.6173 67.875V67.1758C36.7788 67.293 36.9572 67.3854 37.1525 67.4531C37.3504 67.5208 37.5457 67.5547 37.7384 67.5547C38.0223 67.5547 38.241 67.4688 38.3947 67.2969C38.5483 67.1224 38.6252 66.8724 38.6252 66.5469V63.6016H36.6838V63H39.3322Z" fill="white"/>
<path d="M42.2328 66.875C42.3214 66.875 42.4047 66.8919 42.4828 66.9258C42.5635 66.9596 42.6326 67.0065 42.6898 67.0664C42.7497 67.1263 42.7966 67.1966 42.8305 67.2773C42.8643 67.3555 42.8812 67.4401 42.8812 67.5312C42.8812 67.6198 42.8643 67.7031 42.8305 67.7812C42.7966 67.8594 42.7497 67.9284 42.6898 67.9883C42.6326 68.0456 42.5635 68.0911 42.4828 68.125C42.4047 68.1589 42.3214 68.1758 42.2328 68.1758C42.1417 68.1758 42.057 68.1589 41.9789 68.125C41.9008 68.0911 41.8318 68.0456 41.7719 67.9883C41.7146 67.9284 41.669 67.8594 41.6352 67.7812C41.6013 67.7031 41.5844 67.6198 41.5844 67.5312C41.5844 67.4401 41.6013 67.3555 41.6352 67.2773C41.669 67.1966 41.7146 67.1263 41.7719 67.0664C41.8318 67.0065 41.9008 66.9596 41.9789 66.9258C42.057 66.8919 42.1417 66.875 42.2328 66.875Z" fill="white"/>
<path d="M50.9911 63.5312H50.3114L49.0614 62.5859H50.0458L50.9911 63.5312Z" fill="white"/>
<path d="M56.63 68.1055H55.755L53.8448 65.6016V68.1055H53.1495V63H53.8448V65.3711L55.7159 63H56.5402L54.5245 65.4258L56.63 68.1055Z" fill="white"/>
<path d="M60.5462 68.1055H57.6087V63H58.3158V67.5117H60.5462V68.1055Z" fill="white"/>
<path d="M65.0641 68.1055H64.3844L64.2828 64.9219L64.2398 63.6992L64.0016 64.4102L63.2477 66.4414H62.7672L62.0484 64.4883L61.8102 63.6992L61.7945 64.9766L61.7047 68.1055H61.0484L61.2984 63H62.1227L62.8102 64.9219L63.0328 65.5703L63.2477 64.9219L63.9703 63H64.818L65.0641 68.1055Z" fill="white"/>
<path d="M68.953 68.1055H68.0467L66.5584 64.9219L66.1288 63.8984V68.1055H65.4803V63H66.3748L67.7928 66.0156L68.3045 67.1836V63H68.953V68.1055Z" fill="white"/>
<path d="M73.3575 65.5195C73.3575 65.9779 73.3028 66.3737 73.1934 66.707C73.0867 67.0404 72.9408 67.3164 72.7559 67.5352C72.5736 67.7513 72.3588 67.9128 72.1114 68.0195C71.8666 68.1237 71.6075 68.1758 71.3341 68.1758C71.0059 68.1758 70.7195 68.1172 70.4747 68C70.2325 67.8802 70.0307 67.7083 69.8692 67.4844C69.7104 67.2604 69.5919 66.9883 69.5137 66.668C69.4356 66.3451 69.3966 65.9818 69.3966 65.5781C69.3966 65.125 69.4499 64.7318 69.5567 64.3984C69.6635 64.0651 69.808 63.7904 69.9903 63.5742C70.1752 63.3555 70.3901 63.194 70.6348 63.0898C70.8796 62.9831 71.1387 62.9297 71.4122 62.9297C71.7403 62.9297 72.0255 62.9896 72.2677 63.1094C72.5124 63.2292 72.7156 63.401 72.877 63.625C73.0385 63.8464 73.1583 64.1172 73.2364 64.4375C73.3171 64.7578 73.3575 65.1185 73.3575 65.5195ZM72.6348 65.5703C72.6348 65.2708 72.6114 64.9974 72.5645 64.75C72.5203 64.5 72.4473 64.2852 72.3458 64.1055C72.2442 63.9258 72.1127 63.7865 71.9512 63.6875C71.7924 63.5885 71.5997 63.5391 71.3731 63.5391C71.1544 63.5391 70.9656 63.5924 70.8067 63.6992C70.6505 63.8034 70.5216 63.9466 70.42 64.1289C70.3184 64.3086 70.2429 64.5208 70.1934 64.7656C70.144 65.0078 70.1192 65.2656 70.1192 65.5391C70.1192 65.8411 70.1427 66.1172 70.1895 66.3672C70.2364 66.6146 70.3093 66.8281 70.4083 67.0078C70.5098 67.1849 70.6401 67.3229 70.7989 67.4219C70.9578 67.5208 71.1492 67.5703 71.3731 67.5703C71.5919 67.5703 71.7807 67.5182 71.9395 67.4141C72.0984 67.3073 72.2286 67.1641 72.3302 66.9844C72.4343 66.8021 72.5111 66.5898 72.5606 66.3477C72.6101 66.1055 72.6348 65.8464 72.6348 65.5703Z" fill="white"/>
<path d="M75.5003 66.875C75.5889 66.875 75.6722 66.8919 75.7503 66.9258C75.831 66.9596 75.9001 67.0065 75.9573 67.0664C76.0172 67.1263 76.0641 67.1966 76.098 67.2773C76.1318 67.3555 76.1488 67.4401 76.1488 67.5312C76.1488 67.6198 76.1318 67.7031 76.098 67.7812C76.0641 67.8594 76.0172 67.9284 75.9573 67.9883C75.9001 68.0456 75.831 68.0911 75.7503 68.125C75.6722 68.1589 75.5889 68.1758 75.5003 68.1758C75.4092 68.1758 75.3245 68.1589 75.2464 68.125C75.1683 68.0911 75.0993 68.0456 75.0394 67.9883C74.9821 67.9284 74.9365 67.8594 74.9027 67.7812C74.8688 67.7031 74.8519 67.6198 74.8519 67.5312C74.8519 67.4401 74.8688 67.3555 74.9027 67.2773C74.9365 67.1966 74.9821 67.1263 75.0394 67.0664C75.0993 67.0065 75.1683 66.9596 75.2464 66.9258C75.3245 66.8919 75.4092 66.875 75.5003 66.875Z" fill="white"/>
<path d="M4.80688 75.875C4.89542 75.875 4.97875 75.8919 5.05688 75.9258C5.1376 75.9596 5.20661 76.0065 5.26391 76.0664C5.3238 76.1263 5.37068 76.1966 5.40453 76.2773C5.43839 76.3555 5.45531 76.4401 5.45531 76.5312C5.45531 76.6198 5.43839 76.7031 5.40453 76.7812C5.37068 76.8594 5.3238 76.9284 5.26391 76.9883C5.20661 77.0456 5.1376 77.0911 5.05688 77.125C4.97875 77.1589 4.89542 77.1758 4.80688 77.1758C4.71573 77.1758 4.63109 77.1589 4.55297 77.125C4.47484 77.0911 4.40583 77.0456 4.34594 76.9883C4.28865 76.9284 4.24307 76.8594 4.20922 76.7812C4.17536 76.7031 4.15844 76.6198 4.15844 76.5312C4.15844 76.4401 4.17536 76.3555 4.20922 76.2773C4.24307 76.1966 4.28865 76.1263 4.34594 76.0664C4.40583 76.0065 4.47484 75.9596 4.55297 75.9258C4.63109 75.8919 4.71573 75.875 4.80688 75.875Z" fill="white"/>
<path d="M10.7661 73.5625C10.7661 73.7708 10.727 73.9779 10.6489 74.1836C10.5708 74.3867 10.4497 74.569 10.2856 74.7305C10.1216 74.8919 9.91193 75.0234 9.65672 75.125C9.40151 75.224 9.09682 75.2734 8.74266 75.2734H8.10984V77.1055H7.41453V72H8.85203C9.10464 72 9.34682 72.0286 9.57859 72.0859C9.81037 72.1406 10.0135 72.2305 10.188 72.3555C10.3651 72.4805 10.5057 72.6419 10.6098 72.8398C10.714 73.0378 10.7661 73.2786 10.7661 73.5625ZM10.0434 73.5938C10.0434 73.2656 9.93537 73.0143 9.71922 72.8398C9.50568 72.6654 9.2062 72.5781 8.82078 72.5781H8.10984V74.6797H8.75828C9.16974 74.6797 9.48615 74.5898 9.7075 74.4102C9.93146 74.2305 10.0434 73.9583 10.0434 73.5938Z" fill="white"/>
<path d="M12.78 77.1523C12.5092 77.1133 12.2735 77.0273 12.073 76.8945C11.8724 76.7617 11.7058 76.5872 11.573 76.3711C11.4402 76.1523 11.3412 75.8958 11.2761 75.6016C11.211 75.3047 11.1784 74.9766 11.1784 74.6172C11.1784 74.1536 11.2318 73.7526 11.3386 73.4141C11.4454 73.0755 11.5899 72.7969 11.7722 72.5781C11.9571 72.3568 12.1719 72.194 12.4167 72.0898C12.6615 71.9831 12.9206 71.9297 13.1941 71.9297C13.5222 71.9297 13.8073 71.9896 14.0495 72.1094C14.2943 72.2266 14.4974 72.3971 14.6589 72.6211C14.8204 72.8424 14.9402 73.112 15.0183 73.4297C15.099 73.7448 15.1394 74.1003 15.1394 74.4961C15.1394 74.9128 15.0951 75.2786 15.0066 75.5938C14.918 75.9062 14.7969 76.1719 14.6433 76.3906C14.4896 76.6094 14.3086 76.7812 14.1003 76.9062C13.892 77.0312 13.668 77.1133 13.4284 77.1523C13.4675 77.3815 13.5586 77.5651 13.7019 77.7031C13.8451 77.8438 14.0469 77.9141 14.3073 77.9141C14.4323 77.9141 14.5547 77.8932 14.6745 77.8516C14.7969 77.8099 14.9206 77.7396 15.0456 77.6406L15.3542 78.1211C15.1823 78.2617 15.0053 78.362 14.823 78.4219C14.6407 78.4818 14.4532 78.5117 14.2605 78.5117C14.0521 78.5117 13.8607 78.4831 13.6862 78.4258C13.5118 78.3685 13.3594 78.2826 13.2292 78.168C13.1016 78.056 12.9987 77.9141 12.9206 77.7422C12.8425 77.5729 12.7956 77.3763 12.78 77.1523ZM14.4167 74.5781C14.4167 74.276 14.3933 74.0013 14.3464 73.7539C14.3021 73.5039 14.2292 73.2904 14.1277 73.1133C14.0261 72.9336 13.8946 72.7943 13.7331 72.6953C13.5743 72.5964 13.3816 72.5469 13.155 72.5469C12.9362 72.5469 12.7474 72.599 12.5886 72.7031C12.4323 72.8073 12.3034 72.9492 12.2019 73.1289C12.1003 73.306 12.0248 73.5143 11.9753 73.7539C11.9258 73.9909 11.9011 74.2435 11.9011 74.5117C11.9011 74.8216 11.9245 75.1029 11.9714 75.3555C12.0183 75.6055 12.0912 75.8203 12.1902 76C12.2917 76.1797 12.4219 76.319 12.5808 76.418C12.7396 76.5143 12.931 76.5625 13.155 76.5625C13.3737 76.5625 13.5626 76.5104 13.7214 76.4062C13.8803 76.3021 14.0105 76.1602 14.112 75.9805C14.2162 75.8008 14.293 75.5911 14.3425 75.3516C14.392 75.1094 14.4167 74.8516 14.4167 74.5781Z" fill="white"/>
<path d="M19.2197 77.1055H18.4345L17.6728 75.4727C17.6155 75.3477 17.5569 75.2448 17.497 75.1641C17.4371 75.0807 17.372 75.0156 17.3017 74.9688C17.234 74.9193 17.1585 74.8841 17.0752 74.8633C16.9944 74.8424 16.9033 74.832 16.8017 74.832H16.4736V77.1055H15.7783V72H17.1455C17.4423 72 17.6976 72.0326 17.9111 72.0977C18.1246 72.1628 18.2991 72.2539 18.4345 72.3711C18.5726 72.4883 18.6728 72.6302 18.7353 72.7969C18.8004 72.9609 18.833 73.1432 18.833 73.3438C18.833 73.5026 18.8095 73.6536 18.7627 73.7969C18.7158 73.9375 18.6455 74.0664 18.5517 74.1836C18.4606 74.2982 18.346 74.3984 18.208 74.4844C18.0726 74.5677 17.9163 74.6302 17.7392 74.6719C17.8824 74.7214 18.0035 74.8086 18.1025 74.9336C18.2041 75.056 18.3069 75.2201 18.4111 75.4258L19.2197 77.1055ZM18.1064 73.4023C18.1064 73.1289 18.0205 72.9245 17.8486 72.7891C17.6793 72.6536 17.4397 72.5859 17.1298 72.5859H16.4736V74.2734H17.0361C17.2002 74.2734 17.3473 74.2552 17.4775 74.2188C17.6103 74.1797 17.7223 74.1237 17.8134 74.0508C17.9072 73.9753 17.9788 73.8841 18.0283 73.7773C18.0804 73.668 18.1064 73.543 18.1064 73.4023Z" fill="white"/>
<path d="M23.1672 75.7227C23.1672 75.9648 23.1177 76.1771 23.0187 76.3594C22.9198 76.5417 22.7818 76.694 22.6047 76.8164C22.4276 76.9362 22.2141 77.026 21.9641 77.0859C21.7167 77.1458 21.4432 77.1758 21.1437 77.1758C21.0083 77.1758 20.8729 77.1706 20.7375 77.1602C20.6047 77.1497 20.4758 77.1367 20.3508 77.1211C20.2284 77.1055 20.1125 77.0872 20.0031 77.0664C19.8937 77.0456 19.7948 77.0234 19.7062 77V76.3281C19.9016 76.401 20.1203 76.4583 20.3625 76.5C20.6073 76.5417 20.8846 76.5625 21.1945 76.5625C21.4185 76.5625 21.6086 76.5456 21.7648 76.5117C21.9237 76.4753 22.0526 76.4232 22.1516 76.3555C22.2531 76.2852 22.326 76.2005 22.3703 76.1016C22.4172 76.0026 22.4406 75.8893 22.4406 75.7617C22.4406 75.6237 22.4016 75.5065 22.3234 75.4102C22.2479 75.3112 22.1477 75.224 22.0227 75.1484C21.8977 75.0703 21.7544 75 21.593 74.9375C21.4341 74.8724 21.2714 74.806 21.1047 74.7383C20.938 74.6706 20.774 74.5977 20.6125 74.5195C20.4536 74.4388 20.3117 74.3451 20.1867 74.2383C20.0617 74.1289 19.9602 74.0013 19.882 73.8555C19.8065 73.7096 19.7687 73.5365 19.7687 73.3359C19.7687 73.1615 19.8052 72.9896 19.8781 72.8203C19.951 72.651 20.0643 72.5013 20.218 72.3711C20.3716 72.2383 20.5682 72.1315 20.8078 72.0508C21.05 71.9701 21.3378 71.9297 21.6711 71.9297C21.757 71.9297 21.8495 71.9336 21.9484 71.9414C22.05 71.9492 22.1516 71.9609 22.2531 71.9766C22.3573 71.9896 22.4589 72.0052 22.5578 72.0234C22.6594 72.0417 22.7531 72.0612 22.8391 72.082V72.707C22.6385 72.6497 22.438 72.6068 22.2375 72.5781C22.037 72.5469 21.843 72.5312 21.6555 72.5312C21.257 72.5312 20.9641 72.5977 20.7766 72.7305C20.5891 72.8633 20.4953 73.0417 20.4953 73.2656C20.4953 73.4036 20.5331 73.5221 20.6086 73.6211C20.6867 73.7201 20.7883 73.8086 20.9133 73.8867C21.0383 73.9648 21.1802 74.0365 21.3391 74.1016C21.5005 74.1641 21.6646 74.2292 21.8312 74.2969C21.9979 74.3646 22.1607 74.4388 22.3195 74.5195C22.481 74.6003 22.6242 74.6966 22.7492 74.8086C22.8742 74.918 22.9745 75.0469 23.05 75.1953C23.1281 75.3438 23.1672 75.5195 23.1672 75.7227Z" fill="white"/>
<path d="M27.4936 72.5938H25.9819V77.1055H25.2787V72.5938H23.767V72H27.4936V72.5938Z" fill="white"/>
<path d="M31.5661 75.3281C31.5661 75.6094 31.5257 75.8646 31.445 76.0938C31.3669 76.3203 31.251 76.5143 31.0973 76.6758C30.9437 76.8346 30.7549 76.9583 30.5309 77.0469C30.3096 77.1328 30.0544 77.1758 29.7653 77.1758C29.4476 77.1758 29.1781 77.1341 28.9567 77.0508C28.7354 76.9674 28.5544 76.8503 28.4137 76.6992C28.2757 76.5456 28.1742 76.362 28.1091 76.1484C28.0466 75.9349 28.0153 75.6966 28.0153 75.4336V72H28.7106V75.3789C28.7106 75.5794 28.7289 75.7552 28.7653 75.9062C28.8044 76.0573 28.8669 76.1836 28.9528 76.2852C29.0387 76.3867 29.1494 76.4635 29.2848 76.5156C29.4229 76.5677 29.5908 76.5938 29.7887 76.5938C30.1585 76.5938 30.4307 76.487 30.6052 76.2734C30.7822 76.0599 30.8708 75.7591 30.8708 75.3711V72H31.5661V75.3281Z" fill="white"/>
<path d="M36.1308 72L34.3964 77.1055H33.4589L31.7636 72H32.5488L33.6503 75.4414L33.9628 76.4492L34.2831 75.4414L35.3886 72H36.1308Z" fill="white"/>
<path d="M40.1291 72L39.7853 77.1055H38.883L38.2502 75.2891L38.0744 74.707L37.8908 75.3359L37.3048 77.1055H36.4338L36.0822 72H36.7384L36.9377 75.4727L36.9963 76.4258L37.2423 75.6172L37.8595 73.7227H38.34L39.0509 75.7539L39.2892 76.4258L39.3048 75.7227L39.508 72H40.1291Z" fill="white"/>
<path d="M44.3695 77.1055H43.4906L42.2484 75.043L41.0023 77.1055H40.1352L41.8344 74.4961L40.2719 72H41.0961L42.2641 73.9219L43.4398 72H44.2406L42.6742 74.4648L44.3695 77.1055Z" fill="white"/>
<path d="M46.3913 75.875C46.4798 75.875 46.5631 75.8919 46.6413 75.9258C46.722 75.9596 46.791 76.0065 46.8483 76.0664C46.9082 76.1263 46.9551 76.1966 46.9889 76.2773C47.0228 76.3555 47.0397 76.4401 47.0397 76.5312C47.0397 76.6198 47.0228 76.7031 46.9889 76.7812C46.9551 76.8594 46.9082 76.9284 46.8483 76.9883C46.791 77.0456 46.722 77.0911 46.6413 77.125C46.5631 77.1589 46.4798 77.1758 46.3913 77.1758C46.3001 77.1758 46.2155 77.1589 46.1373 77.125C46.0592 77.0911 45.9902 77.0456 45.9303 76.9883C45.873 76.9284 45.8274 76.8594 45.7936 76.7812C45.7597 76.7031 45.7428 76.6198 45.7428 76.5312C45.7428 76.4401 45.7597 76.3555 45.7936 76.2773C45.8274 76.1966 45.873 76.1263 45.9303 76.0664C45.9902 76.0065 46.0592 75.9596 46.1373 75.9258C46.2155 75.8919 46.3001 75.875 46.3913 75.875Z" fill="white"/>
<path d="M55.1495 72.5312H54.4698L53.2198 71.5859H54.2042L55.1495 72.5312Z" fill="white"/>
<path d="M61.097 72L59.2494 75.2812V77.1055H58.5462V75.2656L56.6986 72H57.5384L58.5541 73.8672L58.9291 74.6172L59.2728 73.9375L60.3002 72H61.097Z" fill="white"/>
<path d="M64.7672 72.5469L62.1617 76.457H64.818V77.1055H61.2906V76.5859L63.9117 72.6328H61.3609V72H64.7672V72.5469Z" fill="white"/>
<path d="M69.3748 77.1055H68.617L68.2616 75.9922H66.1366L65.7772 77.1055H65.0545L66.7498 72H67.703L69.3748 77.1055ZM68.0623 75.3711L67.1991 72.6406L66.3358 75.3711H68.0623Z" fill="white"/>
<path d="M73.1427 75.5781C73.1427 75.8229 73.0945 76.0404 72.9981 76.2305C72.9044 76.418 72.769 76.5768 72.5919 76.707C72.4174 76.8372 72.2052 76.9362 71.9552 77.0039C71.7078 77.0716 71.4317 77.1055 71.127 77.1055H69.7911V72H71.252C72.3901 72 72.9591 72.4141 72.9591 73.2422C72.9591 73.5182 72.8927 73.7552 72.7598 73.9531C72.6296 74.151 72.4161 74.2982 72.1192 74.3945C72.2572 74.4206 72.3874 74.4648 72.5098 74.5273C72.6348 74.5898 72.7442 74.6706 72.838 74.7695C72.9317 74.8685 73.0059 74.9857 73.0606 75.1211C73.1153 75.2565 73.1427 75.4089 73.1427 75.5781ZM72.2364 73.3359C72.2364 73.2318 72.2208 73.1341 72.1895 73.043C72.1583 72.9492 72.1036 72.8698 72.0255 72.8047C71.9473 72.737 71.8419 72.6836 71.7091 72.6445C71.5762 72.6055 71.4083 72.5859 71.2052 72.5859H70.4864V74.1836H71.1817C71.3406 74.1836 71.4838 74.1667 71.6114 74.1328C71.7416 74.099 71.8523 74.0469 71.9434 73.9766C72.0372 73.9062 72.1088 73.819 72.1583 73.7148C72.2104 73.6081 72.2364 73.4818 72.2364 73.3359ZM72.4044 75.6016C72.4044 75.4714 72.377 75.3542 72.3223 75.25C72.2677 75.1458 72.1882 75.0586 72.0841 74.9883C71.9799 74.9154 71.8523 74.8594 71.7012 74.8203C71.5528 74.7812 71.3848 74.7617 71.1973 74.7617H70.4864V76.5195H71.2208C71.6192 76.5195 71.9161 76.4453 72.1114 76.2969C72.3067 76.1484 72.4044 75.9167 72.4044 75.6016Z" fill="white"/>
<path d="M77.2191 76.9141C76.8102 77.0833 76.3818 77.168 75.9339 77.168C75.2126 77.168 74.6579 76.9531 74.2698 76.5234C73.8844 76.0911 73.6917 75.4531 73.6917 74.6094C73.6917 74.2005 73.7451 73.8307 73.8519 73.5C73.9586 73.1693 74.111 72.8893 74.3089 72.6602C74.5068 72.4284 74.7464 72.25 75.0277 72.125C75.3089 72 75.624 71.9375 75.973 71.9375C76.2099 71.9375 76.43 71.9583 76.6331 72C76.8363 72.0391 77.0316 72.1003 77.2191 72.1836V72.8672C77.0342 72.7656 76.8428 72.6888 76.6448 72.6367C76.4469 72.582 76.2308 72.5547 75.9964 72.5547C75.7568 72.5547 75.5394 72.6003 75.3441 72.6914C75.1514 72.7799 74.9873 72.9102 74.8519 73.082C74.7165 73.2513 74.6123 73.4596 74.5394 73.707C74.4665 73.9518 74.43 74.2318 74.43 74.5469C74.43 75.2083 74.5641 75.707 74.8323 76.043C75.1006 76.3789 75.4938 76.5469 76.012 76.5469C76.2308 76.5469 76.4404 76.5221 76.6409 76.4727C76.8415 76.4206 77.0342 76.349 77.2191 76.2578V76.9141Z" fill="white"/>
<path d="M79.6588 75.875C79.7473 75.875 79.8306 75.8919 79.9088 75.9258C79.9895 75.9596 80.0585 76.0065 80.1158 76.0664C80.1757 76.1263 80.2226 76.1966 80.2564 76.2773C80.2903 76.3555 80.3072 76.4401 80.3072 76.5312C80.3072 76.6198 80.2903 76.7031 80.2564 76.7812C80.2226 76.8594 80.1757 76.9284 80.1158 76.9883C80.0585 77.0456 79.9895 77.0911 79.9088 77.125C79.8306 77.1589 79.7473 77.1758 79.6588 77.1758C79.5676 77.1758 79.483 77.1589 79.4048 77.125C79.3267 77.0911 79.2577 77.0456 79.1978 76.9883C79.1405 76.9284 79.095 76.8594 79.0611 76.7812C79.0272 76.7031 79.0103 76.6198 79.0103 76.5312C79.0103 76.4401 79.0272 76.3555 79.0611 76.2773C79.095 76.1966 79.1405 76.1263 79.1978 76.0664C79.2577 76.0065 79.3267 75.9596 79.4048 75.9258C79.483 75.8919 79.5676 75.875 79.6588 75.875Z" fill="white"/>
<path d="M0.648438 84.875C0.736979 84.875 0.820312 84.8919 0.898438 84.9258C0.979167 84.9596 1.04818 85.0065 1.10547 85.0664C1.16536 85.1263 1.21224 85.1966 1.24609 85.2773C1.27995 85.3555 1.29688 85.4401 1.29688 85.5312C1.29688 85.6198 1.27995 85.7031 1.24609 85.7812C1.21224 85.8594 1.16536 85.9284 1.10547 85.9883C1.04818 86.0456 0.979167 86.0911 0.898438 86.125C0.820312 86.1589 0.736979 86.1758 0.648438 86.1758C0.557292 86.1758 0.472656 86.1589 0.394531 86.125C0.316406 86.0911 0.247396 86.0456 0.1875 85.9883C0.130208 85.9284 0.0846354 85.8594 0.0507812 85.7812C0.0169271 85.7031 0 85.6198 0 85.5312C0 85.4401 0.0169271 85.3555 0.0507812 85.2773C0.0846354 85.1966 0.130208 85.1263 0.1875 85.0664C0.247396 85.0065 0.316406 84.9596 0.394531 84.9258C0.472656 84.8919 0.557292 84.875 0.648438 84.875Z" fill="white"/>
<path d="M6.75219 83.4961C6.75219 83.7409 6.73266 83.9753 6.69359 84.1992C6.65714 84.4232 6.59724 84.6315 6.51391 84.8242C6.43057 85.0169 6.3225 85.1927 6.18969 85.3516C6.05688 85.5078 5.89411 85.6419 5.70141 85.7539C5.5087 85.8659 5.28474 85.9531 5.02953 86.0156C4.77432 86.0755 4.48396 86.1055 4.15844 86.1055H3.06469V81H4.38109C5.17797 81 5.77172 81.2057 6.16234 81.6172C6.55557 82.026 6.75219 82.6523 6.75219 83.4961ZM6.02172 83.5469C6.02172 83.1849 5.98786 82.8789 5.92016 82.6289C5.85245 82.3789 5.74958 82.1771 5.61156 82.0234C5.47354 81.8698 5.30036 81.7591 5.09203 81.6914C4.8837 81.6211 4.63891 81.5859 4.35766 81.5859H3.76V85.5039H4.27953C5.44099 85.5039 6.02172 84.8516 6.02172 83.5469Z" fill="white"/>
<path d="M9.44578 80.5859L9.3325 82.418H8.66063L8.55125 80.5859H9.44578Z" fill="white"/>
<path d="M42.6742 81.5312H41.9945L40.7445 80.5859H41.7289L42.6742 81.5312Z" fill="white"/>
<path d="M47.9108 86.1055H45.0084V81H47.9108V81.5859H45.7038V83.168H47.8248V83.7539H45.7038V85.5117H47.9108V86.1055Z" fill="white"/>
<path d="M50.5497 84.875C50.6382 84.875 50.7216 84.8919 50.7997 84.9258C50.8804 84.9596 50.9494 85.0065 51.0067 85.0664C51.0666 85.1263 51.1135 85.1966 51.1473 85.2773C51.1812 85.3555 51.1981 85.4401 51.1981 85.5312C51.1981 85.6198 51.1812 85.7031 51.1473 85.7812C51.1135 85.8594 51.0666 85.9284 51.0067 85.9883C50.9494 86.0456 50.8804 86.0911 50.7997 86.125C50.7216 86.1589 50.6382 86.1758 50.5497 86.1758C50.4585 86.1758 50.3739 86.1589 50.2958 86.125C50.2177 86.0911 50.1486 86.0456 50.0887 85.9883C50.0315 85.9284 49.9859 85.8594 49.952 85.7812C49.9182 85.7031 49.9012 85.6198 49.9012 85.5312C49.9012 85.4401 49.9182 85.3555 49.952 85.2773C49.9859 85.1966 50.0315 85.1263 50.0887 85.0664C50.1486 85.0065 50.2177 84.9596 50.2958 84.9258C50.3739 84.8919 50.4585 84.875 50.5497 84.875Z" fill="white"/>
<path d="M59.308 81.5312H58.6283L57.3783 80.5859H58.3627L59.308 81.5312Z" fill="white"/>
<path d="M64.5367 81.5938H62.3688V83.25H64.4234V83.832H62.3688V86.1055H61.6578V81H64.5367V81.5938Z" fill="white"/>
<path d="M68.9452 81.875C68.7551 81.7734 68.5597 81.6953 68.3592 81.6406C68.1587 81.5833 67.94 81.5547 67.703 81.5547C67.4321 81.5547 67.1913 81.6029 66.9803 81.6992C66.7694 81.7956 66.591 81.9323 66.4452 82.1094C66.3019 82.2839 66.1913 82.4948 66.1131 82.7422C66.0376 82.9896 65.9998 83.263 65.9998 83.5625C65.9998 83.875 66.0311 84.1549 66.0936 84.4023C66.1561 84.6497 66.2538 84.8594 66.3866 85.0312C66.5194 85.2031 66.6886 85.3346 66.8944 85.4258C67.1027 85.5169 67.3514 85.5625 67.6405 85.5625C67.69 85.5625 67.7433 85.5599 67.8006 85.5547C67.8579 85.5495 67.9152 85.543 67.9725 85.5352C68.0298 85.5247 68.0845 85.513 68.1366 85.5C68.1913 85.487 68.2394 85.4727 68.2811 85.457V83.832H67.2381V83.2578H68.9686V85.8672C68.8618 85.9167 68.7485 85.9609 68.6288 86C68.5116 86.0391 68.3905 86.0716 68.2655 86.0977C68.1431 86.1237 68.0207 86.1432 67.8983 86.1562C67.7759 86.1693 67.6574 86.1758 67.5428 86.1758C67.1939 86.1758 66.8788 86.1211 66.5975 86.0117C66.3189 85.9023 66.0806 85.7409 65.8827 85.5273C65.6873 85.3112 65.5363 85.043 65.4295 84.7227C65.3254 84.4023 65.2733 84.0312 65.2733 83.6094C65.2733 83.1901 65.3319 82.8151 65.4491 82.4844C65.5663 82.151 65.7303 81.8698 65.9413 81.6406C66.1548 81.4089 66.41 81.2331 66.7069 81.1133C67.0064 80.9909 67.3358 80.9297 67.6952 80.9297C67.9243 80.9297 68.1418 80.9505 68.3475 80.9922C68.5558 81.0312 68.7551 81.0951 68.9452 81.1836V81.875Z" fill="white"/>
<path d="M73.1427 86.1055H72.4473V83.7617H70.3028V86.1055H69.6075V81H70.3028V83.1602H72.4473V81H73.1427V86.1055Z" fill="white"/>
<path d="M75.18 81.5859H74.0042V81H77.0589V81.5859H75.8831V85.5117H77.0589V86.1055H74.0042V85.5117H75.18V81.5859Z" fill="white"/>
<path d="M80.9166 81V84.5469C80.9166 84.7656 80.884 84.974 80.8189 85.1719C80.7538 85.3672 80.6548 85.5378 80.522 85.6836C80.3892 85.8294 80.2226 85.9453 80.022 86.0312C79.8215 86.1172 79.5858 86.1602 79.315 86.1602C79.2134 86.1602 79.1093 86.1523 79.0025 86.1367C78.8983 86.1237 78.7968 86.1055 78.6978 86.082C78.6015 86.056 78.5103 86.026 78.4244 85.9922C78.3384 85.9557 78.2642 85.9167 78.2017 85.875V85.1758C78.3632 85.293 78.5416 85.3854 78.7369 85.4531C78.9348 85.5208 79.1301 85.5547 79.3228 85.5547C79.6067 85.5547 79.8254 85.4688 79.9791 85.2969C80.1327 85.1224 80.2095 84.8724 80.2095 84.5469V81.6016H78.2681V81H80.9166Z" fill="white"/>
<path d="M83.8172 84.875C83.9057 84.875 83.9891 84.8919 84.0672 84.9258C84.1479 84.9596 84.2169 85.0065 84.2742 85.0664C84.3341 85.1263 84.381 85.1966 84.4148 85.2773C84.4487 85.3555 84.4656 85.4401 84.4656 85.5312C84.4656 85.6198 84.4487 85.7031 84.4148 85.7812C84.381 85.8594 84.3341 85.9284 84.2742 85.9883C84.2169 86.0456 84.1479 86.0911 84.0672 86.125C83.9891 86.1589 83.9057 86.1758 83.8172 86.1758C83.726 86.1758 83.6414 86.1589 83.5633 86.125C83.4852 86.0911 83.4161 86.0456 83.3562 85.9883C83.299 85.9284 83.2534 85.8594 83.2195 85.7812C83.1857 85.7031 83.1687 85.6198 83.1687 85.5312C83.1687 85.4401 83.1857 85.3555 83.2195 85.2773C83.2534 85.1966 83.299 85.1263 83.3562 85.0664C83.4161 85.0065 83.4852 84.9596 83.5633 84.9258C83.6414 84.8919 83.726 84.875 83.8172 84.875Z" fill="white"/>
</svg>
