<svg width="85" height="86" viewBox="0 0 85 86" fill="none" xmlns="http://www.w3.org/2000/svg">
<path d="M27.2615 2.525C27.3426 2.525 27.4189 2.54048 27.4905 2.57143C27.5645 2.60238 27.6277 2.64524 27.6802 2.7C27.735 2.75476 27.778 2.81905 27.809 2.89286C27.84 2.96429 27.8555 3.04167 27.8555 3.125C27.8555 3.20595 27.84 3.28214 27.809 3.35357C27.778 3.425 27.735 3.4881 27.6802 3.54286C27.6277 3.59524 27.5645 3.6369 27.4905 3.66786C27.4189 3.69881 27.3426 3.71429 27.2615 3.71429C27.178 3.71429 27.1004 3.69881 27.0289 3.66786C26.9573 3.6369 26.8941 3.59524 26.8392 3.54286C26.7867 3.4881 26.745 3.425 26.7139 3.35357C26.6829 3.28214 26.6674 3.20595 26.6674 3.125C26.6674 3.04167 26.6829 2.96429 26.7139 2.89286C26.745 2.81905 26.7867 2.75476 26.8392 2.7C26.8941 2.64524 26.9573 2.60238 27.0289 2.57143C27.1004 2.54048 27.178 2.525 27.2615 2.525Z" fill="white"/>
<path d="M31.0711 2.525C31.1522 2.525 31.2286 2.54048 31.3001 2.57143C31.3741 2.60238 31.4373 2.64524 31.4898 2.7C31.5447 2.75476 31.5876 2.81905 31.6186 2.89286C31.6496 2.96429 31.6652 3.04167 31.6652 3.125C31.6652 3.20595 31.6496 3.28214 31.6186 3.35357C31.5876 3.425 31.5447 3.4881 31.4898 3.54286C31.4373 3.59524 31.3741 3.6369 31.3001 3.66786C31.2286 3.69881 31.1522 3.71429 31.0711 3.71429C30.9876 3.71429 30.9101 3.69881 30.8385 3.66786C30.7669 3.6369 30.7037 3.59524 30.6488 3.54286C30.5963 3.4881 30.5546 3.425 30.5236 3.35357C30.4926 3.28214 30.4771 3.20595 30.4771 3.125C30.4771 3.04167 30.4926 2.96429 30.5236 2.89286C30.5546 2.81905 30.5963 2.75476 30.6488 2.7C30.7037 2.64524 30.7669 2.60238 30.8385 2.57143C30.9101 2.54048 30.9876 2.525 31.0711 2.525Z" fill="white"/>
<path d="M34.9094 0C34.9833 0 35.0537 0.0154762 35.1205 0.0464286C35.1873 0.075 35.2458 0.114286 35.2959 0.164286C35.346 0.214286 35.3853 0.272619 35.4139 0.339286C35.445 0.405952 35.4605 0.47619 35.4605 0.55C35.4605 0.62619 35.445 0.697619 35.4139 0.764286C35.3853 0.828571 35.346 0.885714 35.2959 0.935714C35.2458 0.985714 35.1873 1.025 35.1205 1.05357C35.0537 1.08214 34.9833 1.09643 34.9094 1.09643C34.833 1.09643 34.7614 1.08214 34.6946 1.05357C34.6302 1.025 34.573 0.985714 34.5229 0.935714C34.4728 0.885714 34.4334 0.828571 34.4048 0.764286C34.3762 0.697619 34.3618 0.62619 34.3618 0.55C34.3618 0.47619 34.3762 0.405952 34.4048 0.339286C34.4334 0.272619 34.4728 0.214286 34.5229 0.164286C34.573 0.114286 34.6302 0.075 34.6946 0.0464286C34.7614 0.0154762 34.833 0 34.9094 0ZM34.9094 2.61786C34.9833 2.61786 35.0537 2.63333 35.1205 2.66429C35.1873 2.69286 35.2458 2.73214 35.2959 2.78214C35.346 2.83214 35.3853 2.89048 35.4139 2.95714C35.445 3.02381 35.4605 3.09405 35.4605 3.16786C35.4605 3.24405 35.445 3.31548 35.4139 3.38214C35.3853 3.44643 35.346 3.50357 35.2959 3.55357C35.2458 3.60357 35.1873 3.64286 35.1205 3.67143C35.0537 3.7 34.9833 3.71429 34.9094 3.71429C34.833 3.71429 34.7614 3.7 34.6946 3.67143C34.6302 3.64286 34.573 3.60357 34.5229 3.55357C34.4728 3.50357 34.4334 3.44643 34.4048 3.38214C34.3762 3.31548 34.3618 3.24405 34.3618 3.16786C34.3618 3.09405 34.3762 3.02381 34.4048 2.95714C34.4334 2.89048 34.4728 2.83214 34.5229 2.78214C34.573 2.73214 34.6302 2.69286 34.6946 2.66429C34.7614 2.63333 34.833 2.61786 34.9094 2.61786Z" fill="white"/>
<path d="M39.789 1.99643H37.649V1.41071H39.789V1.99643Z" fill="white"/>
<path d="M44.0674 1.34286H40.9898V0.817857H44.0674V1.34286ZM44.0674 2.58571H40.9898V2.06071H44.0674V2.58571Z" fill="white"/>
<path d="M47.8771 1.34286H44.7995V0.817857H47.8771V1.34286ZM47.8771 2.58571H44.7995V2.06071H47.8771V2.58571Z" fill="white"/>
<path d="M50.1479 0C50.2219 0 50.2922 0.0154762 50.359 0.0464286C50.4258 0.075 50.4843 0.114286 50.5344 0.164286C50.5845 0.214286 50.6238 0.272619 50.6525 0.339286C50.6835 0.405952 50.699 0.47619 50.699 0.55C50.699 0.62619 50.6835 0.697619 50.6525 0.764286C50.6238 0.828571 50.5845 0.885714 50.5344 0.935714C50.4843 0.985714 50.4258 1.025 50.359 1.05357C50.2922 1.08214 50.2219 1.09643 50.1479 1.09643C50.0716 1.09643 50 1.08214 49.9332 1.05357C49.8688 1.025 49.8115 0.985714 49.7614 0.935714C49.7113 0.885714 49.6719 0.828571 49.6433 0.764286C49.6147 0.697619 49.6004 0.62619 49.6004 0.55C49.6004 0.47619 49.6147 0.405952 49.6433 0.339286C49.6719 0.272619 49.7113 0.214286 49.7614 0.164286C49.8115 0.114286 49.8688 0.075 49.9332 0.0464286C50 0.0154762 50.0716 0 50.1479 0ZM50.1479 2.61786C50.2219 2.61786 50.2922 2.63333 50.359 2.66429C50.4258 2.69286 50.4843 2.73214 50.5344 2.78214C50.5845 2.83214 50.6238 2.89048 50.6525 2.95714C50.6835 3.02381 50.699 3.09405 50.699 3.16786C50.699 3.24405 50.6835 3.31548 50.6525 3.38214C50.6238 3.44643 50.5845 3.50357 50.5344 3.55357C50.4843 3.60357 50.4258 3.64286 50.359 3.67143C50.2922 3.7 50.2219 3.71429 50.1479 3.71429C50.0716 3.71429 50 3.7 49.9332 3.67143C49.8688 3.64286 49.8115 3.60357 49.7614 3.55357C49.7113 3.50357 49.6719 3.44643 49.6433 3.38214C49.6147 3.31548 49.6004 3.24405 49.6004 3.16786C49.6004 3.09405 49.6147 3.02381 49.6433 2.95714C49.6719 2.89048 49.7113 2.83214 49.7614 2.78214C49.8115 2.73214 49.8688 2.69286 49.9332 2.66429C50 2.63333 50.0716 2.61786 50.1479 2.61786Z" fill="white"/>
<path d="M53.9289 2.525C54.01 2.525 54.0864 2.54048 54.1579 2.57143C54.2319 2.60238 54.2951 2.64524 54.3476 2.7C54.4025 2.75476 54.4454 2.81905 54.4764 2.89286C54.5074 2.96429 54.5229 3.04167 54.5229 3.125C54.5229 3.20595 54.5074 3.28214 54.4764 3.35357C54.4454 3.425 54.4025 3.4881 54.3476 3.54286C54.2951 3.59524 54.2319 3.6369 54.1579 3.66786C54.0864 3.69881 54.01 3.71429 53.9289 3.71429C53.8454 3.71429 53.7679 3.69881 53.6963 3.66786C53.6247 3.6369 53.5615 3.59524 53.5066 3.54286C53.4541 3.4881 53.4124 3.425 53.3814 3.35357C53.3504 3.28214 53.3348 3.20595 53.3348 3.125C53.3348 3.04167 53.3504 2.96429 53.3814 2.89286C53.4124 2.81905 53.4541 2.75476 53.5066 2.7C53.5615 2.64524 53.6247 2.60238 53.6963 2.57143C53.7679 2.54048 53.8454 2.525 53.9289 2.525Z" fill="white"/>
<path d="M15.8326 10.7536C15.9137 10.7536 15.99 10.769 16.0616 10.8C16.1356 10.831 16.1988 10.8738 16.2513 10.9286C16.3061 10.9833 16.3491 11.0476 16.3801 11.1214C16.4111 11.1929 16.4266 11.2702 16.4266 11.3536C16.4266 11.4345 16.4111 11.5107 16.3801 11.5821C16.3491 11.6536 16.3061 11.7167 16.2513 11.7714C16.1988 11.8238 16.1356 11.8655 16.0616 11.8964C15.99 11.9274 15.9137 11.9429 15.8326 11.9429C15.7491 11.9429 15.6715 11.9274 15.6 11.8964C15.5284 11.8655 15.4652 11.8238 15.4103 11.7714C15.3578 11.7167 15.3161 11.6536 15.2851 11.5821C15.254 11.5107 15.2385 11.4345 15.2385 11.3536C15.2385 11.2702 15.254 11.1929 15.2851 11.1214C15.3161 11.0476 15.3578 10.9833 15.4103 10.9286C15.4652 10.8738 15.5284 10.831 15.6 10.8C15.6715 10.769 15.7491 10.7536 15.8326 10.7536Z" fill="white"/>
<path d="M21.2096 9.57143H18.132V9.04643H21.2096V9.57143ZM21.2096 10.8143H18.132V10.2893H21.2096V10.8143Z" fill="white"/>
<path d="M25.1517 10.5679H24.3536L24.2212 11.8786H23.6916L23.824 10.5679H22.9115L22.7791 11.8786H22.2494L22.3818 10.5679H21.6196V10.1036H22.4284L22.5572 8.85357H21.8021V8.38929H22.6037L22.7254 7.21071H23.2479L23.1298 8.38929H24.0459L24.1676 7.21071H24.6972L24.5719 8.38929H25.3413V8.85357H24.5254L24.4002 10.1036H25.1517V10.5679ZM23.8741 10.1036L23.9994 8.85357H23.0832L22.958 10.1036H23.8741Z" fill="white"/>
<path d="M28.9613 10.5679H28.1633L28.0309 11.8786H27.5012L27.6336 10.5679H26.7211L26.5887 11.8786H26.0591L26.1915 10.5679H25.4292V10.1036H26.238L26.3668 8.85357H25.6117V8.38929H26.4133L26.535 7.21071H27.0575L26.9394 8.38929H27.8555L27.9772 7.21071H28.5068L28.3816 8.38929H29.151V8.85357H28.3351L28.2098 10.1036H28.9613V10.5679ZM27.6837 10.1036L27.809 8.85357H26.8929L26.7676 10.1036H27.6837Z" fill="white"/>
<path d="M32.7709 10.5679H31.9729L31.8405 11.8786H31.3109L31.4433 10.5679H30.5307L30.3983 11.8786H29.8687L30.0011 10.5679H29.2389V10.1036H30.0476L30.1765 8.85357H29.4214V8.38929H30.223L30.3446 7.21071H30.8671L30.749 8.38929H31.6652L31.7868 7.21071H32.3165L32.1912 8.38929H32.9606V8.85357H32.1447L32.0194 10.1036H32.7709V10.5679ZM31.4934 10.1036L31.6186 8.85357H30.7025L30.5773 10.1036H31.4934Z" fill="white"/>
<path d="M36.6235 10.2036H35.2171V11.6607H34.6016V10.2036H33.1952V9.66071H34.6016V8.21429H35.2171V9.66071H36.6235V10.2036Z" fill="white"/>
<path d="M38.719 8.22857C38.793 8.22857 38.8633 8.24405 38.9301 8.275C38.9969 8.30357 39.0554 8.34286 39.1055 8.39286C39.1556 8.44286 39.195 8.50119 39.2236 8.56786C39.2546 8.63452 39.2701 8.70476 39.2701 8.77857C39.2701 8.85476 39.2546 8.92619 39.2236 8.99286C39.195 9.05714 39.1556 9.11429 39.1055 9.16429C39.0554 9.21429 38.9969 9.25357 38.9301 9.28214C38.8633 9.31071 38.793 9.325 38.719 9.325C38.6427 9.325 38.5711 9.31071 38.5043 9.28214C38.4399 9.25357 38.3826 9.21429 38.3325 9.16429C38.2824 9.11429 38.243 9.05714 38.2144 8.99286C38.1858 8.92619 38.1715 8.85476 38.1715 8.77857C38.1715 8.70476 38.1858 8.63452 38.2144 8.56786C38.243 8.50119 38.2824 8.44286 38.3325 8.39286C38.3826 8.34286 38.4399 8.30357 38.5043 8.275C38.5711 8.24405 38.6427 8.22857 38.719 8.22857ZM38.719 10.8464C38.793 10.8464 38.8633 10.8619 38.9301 10.8929C38.9969 10.9214 39.0554 10.9607 39.1055 11.0107C39.1556 11.0607 39.195 11.119 39.2236 11.1857C39.2546 11.2524 39.2701 11.3226 39.2701 11.3964C39.2701 11.4726 39.2546 11.544 39.2236 11.6107C39.195 11.675 39.1556 11.7321 39.1055 11.7821C39.0554 11.8321 38.9969 11.8714 38.9301 11.9C38.8633 11.9286 38.793 11.9429 38.719 11.9429C38.6427 11.9429 38.5711 11.9286 38.5043 11.9C38.4399 11.8714 38.3826 11.8321 38.3325 11.7821C38.2824 11.7321 38.243 11.675 38.2144 11.6107C38.1858 11.544 38.1715 11.4726 38.1715 11.3964C38.1715 11.3226 38.1858 11.2524 38.2144 11.1857C38.243 11.119 38.2824 11.0607 38.3325 11.0107C38.3826 10.9607 38.4399 10.9214 38.5043 10.8929C38.5711 10.8619 38.6427 10.8464 38.719 10.8464Z" fill="white"/>
<path d="M42.5 10.7536C42.5811 10.7536 42.6575 10.769 42.729 10.8C42.803 10.831 42.8662 10.8738 42.9187 10.9286C42.9736 10.9833 43.0165 11.0476 43.0475 11.1214C43.0785 11.1929 43.094 11.2702 43.094 11.3536C43.094 11.4345 43.0785 11.5107 43.0475 11.5821C43.0165 11.6536 42.9736 11.7167 42.9187 11.7714C42.8662 11.8238 42.803 11.8655 42.729 11.8964C42.6575 11.9274 42.5811 11.9429 42.5 11.9429C42.4165 11.9429 42.339 11.9274 42.2674 11.8964C42.1958 11.8655 42.1326 11.8238 42.0777 11.7714C42.0252 11.7167 41.9835 11.6536 41.9525 11.5821C41.9215 11.5107 41.906 11.4345 41.906 11.3536C41.906 11.2702 41.9215 11.1929 41.9525 11.1214C41.9835 11.0476 42.0252 10.9833 42.0777 10.9286C42.1326 10.8738 42.1958 10.831 42.2674 10.8C42.339 10.769 42.4165 10.7536 42.5 10.7536Z" fill="white"/>
<path d="M12.0516 16.4571C12.1255 16.4571 12.1959 16.4726 12.2627 16.5036C12.3295 16.5321 12.388 16.5714 12.4381 16.6214C12.4882 16.6714 12.5275 16.7298 12.5562 16.7964C12.5872 16.8631 12.6027 16.9333 12.6027 17.0071C12.6027 17.0833 12.5872 17.1548 12.5562 17.2214C12.5275 17.2857 12.4882 17.3429 12.4381 17.3929C12.388 17.4429 12.3295 17.4821 12.2627 17.5107C12.1959 17.5393 12.1255 17.5536 12.0516 17.5536C11.9752 17.5536 11.9037 17.5393 11.8369 17.5107C11.7724 17.4821 11.7152 17.4429 11.6651 17.3929C11.615 17.3429 11.5756 17.2857 11.547 17.2214C11.5184 17.1548 11.504 17.0833 11.504 17.0071C11.504 16.9333 11.5184 16.8631 11.547 16.7964C11.5756 16.7298 11.615 16.6714 11.6651 16.6214C11.7152 16.5714 11.7724 16.5321 11.8369 16.5036C11.9037 16.4726 11.9752 16.4571 12.0516 16.4571ZM12.0516 19.075C12.1255 19.075 12.1959 19.0905 12.2627 19.1214C12.3295 19.15 12.388 19.1893 12.4381 19.2393C12.4882 19.2893 12.5275 19.3476 12.5562 19.4143C12.5872 19.481 12.6027 19.5512 12.6027 19.625C12.6027 19.7012 12.5872 19.7726 12.5562 19.8393C12.5275 19.9036 12.4882 19.9607 12.4381 20.0107C12.388 20.0607 12.3295 20.1 12.2627 20.1286C12.1959 20.1571 12.1255 20.1714 12.0516 20.1714C11.9752 20.1714 11.9037 20.1571 11.8369 20.1286C11.7724 20.1 11.7152 20.0607 11.6651 20.0107C11.615 19.9607 11.5756 19.9036 11.547 19.8393C11.5184 19.7726 11.504 19.7012 11.504 19.625C11.504 19.5512 11.5184 19.481 11.547 19.4143C11.5756 19.3476 11.615 19.2893 11.6651 19.2393C11.7152 19.1893 11.7724 19.15 11.8369 19.1214C11.9037 19.0905 11.9752 19.075 12.0516 19.075Z" fill="white"/>
<path d="M17.2855 17.1071L17.0421 17.5321L16.0366 16.8679L16.1189 18.0893H15.6071L15.6859 16.8679L14.6588 17.5321L14.4333 17.1143L15.532 16.575L14.4333 16.025L14.6803 15.6071L15.693 16.2821L15.6071 15.0607H16.1189L16.0294 16.2821L17.0421 15.6L17.2926 16.0393L16.1904 16.5821L17.2855 17.1071Z" fill="white"/>
<path d="M21.342 18.7964H20.544L20.4116 20.1071H19.882L20.0144 18.7964H19.1018L18.9694 20.1071H18.4398L18.5722 18.7964H17.81V18.3321H18.6187L18.7476 17.0821H17.9925V16.6179H18.7941L18.9158 15.4393H19.4382L19.3201 16.6179H20.2363L20.3579 15.4393H20.8876L20.7623 16.6179H21.5317V17.0821H20.7158L20.5905 18.3321H21.342V18.7964ZM20.0645 18.3321L20.1897 17.0821H19.2736L19.1484 18.3321H20.0645Z" fill="white"/>
<path d="M25.1517 18.7964H24.3536L24.2212 20.1071H23.6916L23.824 18.7964H22.9115L22.7791 20.1071H22.2494L22.3818 18.7964H21.6196V18.3321H22.4284L22.5572 17.0821H21.8021V16.6179H22.6037L22.7254 15.4393H23.2479L23.1298 16.6179H24.0459L24.1676 15.4393H24.6972L24.5719 16.6179H25.3413V17.0821H24.5254L24.4002 18.3321H25.1517V18.7964ZM23.8741 18.3321L23.9994 17.0821H23.0832L22.958 18.3321H23.8741Z" fill="white"/>
<path d="M28.9613 18.7964H28.1633L28.0309 20.1071H27.5012L27.6336 18.7964H26.7211L26.5887 20.1071H26.0591L26.1915 18.7964H25.4292V18.3321H26.238L26.3668 17.0821H25.6117V16.6179H26.4133L26.535 15.4393H27.0575L26.9394 16.6179H27.8555L27.9772 15.4393H28.5068L28.3816 16.6179H29.151V17.0821H28.3351L28.2098 18.3321H28.9613V18.7964ZM27.6837 18.3321L27.809 17.0821H26.8929L26.7676 18.3321H27.6837Z" fill="white"/>
<path d="M32.7709 18.7964H31.9729L31.8405 20.1071H31.3109L31.4433 18.7964H30.5307L30.3983 20.1071H29.8687L30.0011 18.7964H29.2389V18.3321H30.0476L30.1765 17.0821H29.4214V16.6179H30.223L30.3446 15.4393H30.8671L30.749 16.6179H31.6652L31.7868 15.4393H32.3165L32.1912 16.6179H32.9606V17.0821H32.1447L32.0194 18.3321H32.7709V18.7964ZM31.4934 18.3321L31.6186 17.0821H30.7025L30.5773 18.3321H31.4934Z" fill="white"/>
<path d="M35.9794 18.4536H33.8394V17.8679H35.9794V18.4536Z" fill="white"/>
<path d="M38.6904 18.9821C38.7715 18.9821 38.8478 18.9976 38.9194 19.0286C38.9934 19.0595 39.0566 19.1024 39.1091 19.1571C39.1639 19.2119 39.2069 19.2762 39.2379 19.35C39.2689 19.4214 39.2844 19.4988 39.2844 19.5821C39.2844 19.6631 39.2689 19.7393 39.2379 19.8107C39.2069 19.8821 39.1639 19.9452 39.1091 20C39.0566 20.0524 38.9934 20.094 38.9194 20.125C38.8478 20.156 38.7715 20.1714 38.6904 20.1714C38.6069 20.1714 38.5293 20.156 38.4578 20.125C38.3862 20.094 38.323 20.0524 38.2681 20C38.2156 19.9452 38.1739 19.8821 38.1428 19.8107C38.1118 19.7393 38.0963 19.6631 38.0963 19.5821C38.0963 19.4988 38.1118 19.4214 38.1428 19.35C38.1739 19.2762 38.2156 19.2119 38.2681 19.1571C38.323 19.1024 38.3862 19.0595 38.4578 19.0286C38.5293 18.9976 38.6069 18.9821 38.6904 18.9821Z" fill="white"/>
<path d="M0.594047 27.2107C0.675162 27.2107 0.751505 27.2262 0.823077 27.2571C0.897035 27.2881 0.960257 27.331 1.01274 27.3857C1.06761 27.4405 1.11056 27.5048 1.14157 27.5786C1.17259 27.65 1.18809 27.7274 1.18809 27.8107C1.18809 27.8917 1.17259 27.9679 1.14157 28.0393C1.11056 28.1107 1.06761 28.1738 1.01274 28.2286C0.960257 28.281 0.897035 28.3226 0.823077 28.3536C0.751505 28.3845 0.675162 28.4 0.594047 28.4C0.510547 28.4 0.43301 28.3845 0.361438 28.3536C0.289866 28.3226 0.226645 28.281 0.171773 28.2286C0.119287 28.1738 0.0775363 28.1107 0.0465218 28.0393C0.0155073 27.9679 0 27.8917 0 27.8107C0 27.7274 0.0155073 27.65 0.0465218 27.5786C0.0775363 27.5048 0.119287 27.4405 0.171773 27.3857C0.226645 27.331 0.289866 27.2881 0.361438 27.2571C0.43301 27.2262 0.510547 27.2107 0.594047 27.2107Z" fill="white"/>
<path d="M5.50231 26.6821H3.36231V26.0964H5.50231V26.6821Z" fill="white"/>
<path d="M9.66622 25.3357L9.42288 25.7607L8.41729 25.0964L8.4996 26.3179H7.98786L8.06659 25.0964L7.03953 25.7607L6.81408 25.3429L7.91271 24.8036L6.81408 24.2536L7.061 23.8357L8.07375 24.5107L7.98786 23.2893H8.4996L8.41013 24.5107L9.42288 23.8286L9.67338 24.2679L8.57117 24.8107L9.66622 25.3357Z" fill="white"/>
<path d="M13.4759 25.3357L13.2325 25.7607L12.2269 25.0964L12.3092 26.3179H11.7975L11.8762 25.0964L10.8492 25.7607L10.6237 25.3429L11.7223 24.8036L10.6237 24.2536L10.8706 23.8357L11.8834 24.5107L11.7975 23.2893H12.3092L12.2198 24.5107L13.2325 23.8286L13.483 24.2679L12.3808 24.8107L13.4759 25.3357Z" fill="white"/>
<path d="M17.5324 27.025H16.7344L16.602 28.3357H16.0723L16.2048 27.025H15.2922L15.1598 28.3357H14.6302L14.7626 27.025H14.0003V26.5607H14.8091L14.9379 25.3107H14.1828V24.8464H14.9844L15.1061 23.6679H15.6286L15.5105 24.8464H16.4266L16.5483 23.6679H17.0779L16.9527 24.8464H17.7221V25.3107H16.9062L16.7809 26.5607H17.5324V27.025ZM16.2549 26.5607L16.3801 25.3107H15.464L15.3387 26.5607H16.2549Z" fill="white"/>
<path d="M21.342 27.025H20.544L20.4116 28.3357H19.882L20.0144 27.025H19.1018L18.9694 28.3357H18.4398L18.5722 27.025H17.81V26.5607H18.6187L18.7476 25.3107H17.9925V24.8464H18.7941L18.9158 23.6679H19.4382L19.3201 24.8464H20.2363L20.3579 23.6679H20.8876L20.7623 24.8464H21.5317V25.3107H20.7158L20.5905 26.5607H21.342V27.025ZM20.0645 26.5607L20.1897 25.3107H19.2736L19.1484 26.5607H20.0645Z" fill="white"/>
<path d="M25.1517 27.025H24.3536L24.2212 28.3357H23.6916L23.824 27.025H22.9115L22.7791 28.3357H22.2494L22.3818 27.025H21.6196V26.5607H22.4284L22.5572 25.3107H21.8021V24.8464H22.6037L22.7254 23.6679H23.2479L23.1298 24.8464H24.0459L24.1676 23.6679H24.6972L24.5719 24.8464H25.3413V25.3107H24.5254L24.4002 26.5607H25.1517V27.025ZM23.8741 26.5607L23.9994 25.3107H23.0832L22.958 26.5607H23.8741Z" fill="white"/>
<path d="M28.9613 27.025H28.1633L28.0309 28.3357H27.5012L27.6336 27.025H26.7211L26.5887 28.3357H26.0591L26.1915 27.025H25.4292V26.5607H26.238L26.3668 25.3107H25.6117V24.8464H26.4133L26.535 23.6679H27.0575L26.9394 24.8464H27.8555L27.9772 23.6679H28.5068L28.3816 24.8464H29.151V25.3107H28.3351L28.2098 26.5607H28.9613V27.025ZM27.6837 26.5607L27.809 25.3107H26.8929L26.7676 26.5607H27.6837Z" fill="white"/>
<path d="M32.8139 26.6607H31.4075V28.1179H30.792V26.6607H29.3856V26.1179H30.792V24.6714H31.4075V26.1179H32.8139V26.6607Z" fill="white"/>
<path d="M34.9094 24.6857C34.9833 24.6857 35.0537 24.7012 35.1205 24.7321C35.1873 24.7607 35.2458 24.8 35.2959 24.85C35.346 24.9 35.3853 24.9583 35.4139 25.025C35.445 25.0917 35.4605 25.1619 35.4605 25.2357C35.4605 25.3119 35.445 25.3833 35.4139 25.45C35.3853 25.5143 35.346 25.5714 35.2959 25.6214C35.2458 25.6714 35.1873 25.7107 35.1205 25.7393C35.0537 25.7679 34.9833 25.7821 34.9094 25.7821C34.833 25.7821 34.7614 25.7679 34.6946 25.7393C34.6302 25.7107 34.573 25.6714 34.5229 25.6214C34.4728 25.5714 34.4334 25.5143 34.4048 25.45C34.3762 25.3833 34.3618 25.3119 34.3618 25.2357C34.3618 25.1619 34.3762 25.0917 34.4048 25.025C34.4334 24.9583 34.4728 24.9 34.5229 24.85C34.573 24.8 34.6302 24.7607 34.6946 24.7321C34.7614 24.7012 34.833 24.6857 34.9094 24.6857ZM34.9094 27.3036C34.9833 27.3036 35.0537 27.319 35.1205 27.35C35.1873 27.3786 35.2458 27.4179 35.2959 27.4679C35.346 27.5179 35.3853 27.5762 35.4139 27.6429C35.445 27.7095 35.4605 27.7798 35.4605 27.8536C35.4605 27.9298 35.445 28.0012 35.4139 28.0679C35.3853 28.1321 35.346 28.1893 35.2959 28.2393C35.2458 28.2893 35.1873 28.3286 35.1205 28.3571C35.0537 28.3857 34.9833 28.4 34.9094 28.4C34.833 28.4 34.7614 28.3857 34.6946 28.3571C34.6302 28.3286 34.573 28.2893 34.5229 28.2393C34.4728 28.1893 34.4334 28.1321 34.4048 28.0679C34.3762 28.0012 34.3618 27.9298 34.3618 27.8536C34.3618 27.7798 34.3762 27.7095 34.4048 27.6429C34.4334 27.5762 34.4728 27.5179 34.5229 27.4679C34.573 27.4179 34.6302 27.3786 34.6946 27.35C34.7614 27.319 34.833 27.3036 34.9094 27.3036Z" fill="white"/>
<path d="M39.789 26.6821H37.649V26.0964H39.789V26.6821Z" fill="white"/>
<path d="M42.5 27.2107C42.5811 27.2107 42.6575 27.2262 42.729 27.2571C42.803 27.2881 42.8662 27.331 42.9187 27.3857C42.9736 27.4405 43.0165 27.5048 43.0475 27.5786C43.0785 27.65 43.094 27.7274 43.094 27.8107C43.094 27.8917 43.0785 27.9679 43.0475 28.0393C43.0165 28.1107 42.9736 28.1738 42.9187 28.2286C42.8662 28.281 42.803 28.3226 42.729 28.3536C42.6575 28.3845 42.5811 28.4 42.5 28.4C42.4165 28.4 42.339 28.3845 42.2674 28.3536C42.1958 28.3226 42.1326 28.281 42.0777 28.2286C42.0252 28.1738 41.9835 28.1107 41.9525 28.0393C41.9215 27.9679 41.906 27.8917 41.906 27.8107C41.906 27.7274 41.9215 27.65 41.9525 27.5786C41.9835 27.5048 42.0252 27.4405 42.0777 27.3857C42.1326 27.331 42.1958 27.2881 42.2674 27.2571C42.339 27.2262 42.4165 27.2107 42.5 27.2107Z" fill="white"/>
<path d="M0.594047 35.4393C0.675162 35.4393 0.751505 35.4548 0.823077 35.4857C0.897035 35.5167 0.960257 35.5595 1.01274 35.6143C1.06761 35.669 1.11056 35.7333 1.14157 35.8071C1.17259 35.8786 1.18809 35.956 1.18809 36.0393C1.18809 36.1202 1.17259 36.1964 1.14157 36.2679C1.11056 36.3393 1.06761 36.4024 1.01274 36.4571C0.960257 36.5095 0.897035 36.5512 0.823077 36.5821C0.751505 36.6131 0.675162 36.6286 0.594047 36.6286C0.510547 36.6286 0.43301 36.6131 0.361438 36.5821C0.289866 36.5512 0.226645 36.5095 0.171773 36.4571C0.119287 36.4024 0.0775363 36.3393 0.0465218 36.2679C0.0155073 36.1964 0 36.1202 0 36.0393C0 35.956 0.0155073 35.8786 0.0465218 35.8071C0.0775363 35.7333 0.119287 35.669 0.171773 35.6143C0.226645 35.5595 0.289866 35.5167 0.361438 35.4857C0.43301 35.4548 0.510547 35.4393 0.594047 35.4393Z" fill="white"/>
<path d="M4.43231 32.9143C4.50627 32.9143 4.57665 32.9298 4.64345 32.9607C4.71025 32.9893 4.7687 33.0286 4.8188 33.0786C4.8689 33.1286 4.90826 33.1869 4.93689 33.2536C4.96791 33.3202 4.98341 33.3905 4.98341 33.4643C4.98341 33.5405 4.96791 33.6119 4.93689 33.6786C4.90826 33.7429 4.8689 33.8 4.8188 33.85C4.7687 33.9 4.71025 33.9393 4.64345 33.9679C4.57665 33.9964 4.50627 34.0107 4.43231 34.0107C4.35597 34.0107 4.28439 33.9964 4.21759 33.9679C4.15318 33.9393 4.09592 33.9 4.04582 33.85C3.99572 33.8 3.95636 33.7429 3.92773 33.6786C3.8991 33.6119 3.88478 33.5405 3.88478 33.4643C3.88478 33.3905 3.8991 33.3202 3.92773 33.2536C3.95636 33.1869 3.99572 33.1286 4.04582 33.0786C4.09592 33.0286 4.15318 32.9893 4.21759 32.9607C4.28439 32.9298 4.35597 32.9143 4.43231 32.9143ZM4.43231 35.5321C4.50627 35.5321 4.57665 35.5476 4.64345 35.5786C4.71025 35.6071 4.7687 35.6464 4.8188 35.6964C4.8689 35.7464 4.90826 35.8048 4.93689 35.8714C4.96791 35.9381 4.98341 36.0083 4.98341 36.0821C4.98341 36.1583 4.96791 36.2298 4.93689 36.2964C4.90826 36.3607 4.8689 36.4179 4.8188 36.4679C4.7687 36.5179 4.71025 36.5571 4.64345 36.5857C4.57665 36.6143 4.50627 36.6286 4.43231 36.6286C4.35597 36.6286 4.28439 36.6143 4.21759 36.5857C4.15318 36.5571 4.09592 36.5179 4.04582 36.4679C3.99572 36.4179 3.95636 36.3607 3.92773 36.2964C3.8991 36.2298 3.88478 36.1583 3.88478 36.0821C3.88478 36.0083 3.8991 35.9381 3.92773 35.8714C3.95636 35.8048 3.99572 35.7464 4.04582 35.6964C4.09592 35.6464 4.15318 35.6071 4.21759 35.5786C4.28439 35.5476 4.35597 35.5321 4.43231 35.5321Z" fill="white"/>
<path d="M9.66622 33.5643L9.42288 33.9893L8.41729 33.325L8.4996 34.5464H7.98786L8.06659 33.325L7.03953 33.9893L6.81408 33.5714L7.91271 33.0321L6.81408 32.4821L7.061 32.0643L8.07375 32.7393L7.98786 31.5179H8.4996L8.41013 32.7393L9.42288 32.0571L9.67338 32.4964L8.57117 33.0393L9.66622 33.5643Z" fill="white"/>
<path d="M13.7228 35.2536H12.9247L12.7923 36.5643H12.2627L12.3951 35.2536H11.4826L11.3502 36.5643H10.8205L10.9529 35.2536H10.1907V34.7893H10.9995L11.1283 33.5393H10.3732V33.075H11.1748L11.2965 31.8964H11.819L11.7009 33.075H12.617L12.7387 31.8964H13.2683L13.143 33.075H13.9124V33.5393H13.0965L12.9713 34.7893H13.7228V35.2536ZM12.4452 34.7893L12.5705 33.5393H11.6543L11.5291 34.7893H12.4452Z" fill="white"/>
<path d="M17.2855 33.5643L17.0421 33.9893L16.0366 33.325L16.1189 34.5464H15.6071L15.6859 33.325L14.6588 33.9893L14.4333 33.5714L15.532 33.0321L14.4333 32.4821L14.6803 32.0643L15.693 32.7393L15.6071 31.5179H16.1189L16.0294 32.7393L17.0421 32.0571L17.2926 32.4964L16.1904 33.0393L17.2855 33.5643Z" fill="white"/>
<path d="M19.6422 35.4393C19.7233 35.4393 19.7997 35.4548 19.8712 35.4857C19.9452 35.5167 20.0084 35.5595 20.0609 35.6143C20.1158 35.669 20.1587 35.7333 20.1897 35.8071C20.2207 35.8786 20.2363 35.956 20.2363 36.0393C20.2363 36.1202 20.2207 36.1964 20.1897 36.2679C20.1587 36.3393 20.1158 36.4024 20.0609 36.4571C20.0084 36.5095 19.9452 36.5512 19.8712 36.5821C19.7997 36.6131 19.7233 36.6286 19.6422 36.6286C19.5587 36.6286 19.4812 36.6131 19.4096 36.5821C19.338 36.5512 19.2748 36.5095 19.2199 36.4571C19.1674 36.4024 19.1257 36.3393 19.0947 36.2679C19.0637 36.1964 19.0482 36.1202 19.0482 36.0393C19.0482 35.956 19.0637 35.8786 19.0947 35.8071C19.1257 35.7333 19.1674 35.669 19.2199 35.6143C19.2748 35.5595 19.338 35.5167 19.4096 35.4857C19.4812 35.4548 19.5587 35.4393 19.6422 35.4393Z" fill="white"/>
<path d="M23.4518 35.4393C23.533 35.4393 23.6093 35.4548 23.6809 35.4857C23.7548 35.5167 23.8181 35.5595 23.8705 35.6143C23.9254 35.669 23.9684 35.7333 23.9994 35.8071C24.0304 35.8786 24.0459 35.956 24.0459 36.0393C24.0459 36.1202 24.0304 36.1964 23.9994 36.2679C23.9684 36.3393 23.9254 36.4024 23.8705 36.4571C23.8181 36.5095 23.7548 36.5512 23.6809 36.5821C23.6093 36.6131 23.533 36.6286 23.4518 36.6286C23.3683 36.6286 23.2908 36.6131 23.2192 36.5821C23.1477 36.5512 23.0844 36.5095 23.0296 36.4571C22.9771 36.4024 22.9353 36.3393 22.9043 36.2679C22.8733 36.1964 22.8578 36.1202 22.8578 36.0393C22.8578 35.956 22.8733 35.8786 22.9043 35.8071C22.9353 35.7333 22.9771 35.669 23.0296 35.6143C23.0844 35.5595 23.1477 35.5167 23.2192 35.4857C23.2908 35.4548 23.3683 35.4393 23.4518 35.4393Z" fill="white"/>
<path d="M27.2615 35.4393C27.3426 35.4393 27.4189 35.4548 27.4905 35.4857C27.5645 35.5167 27.6277 35.5595 27.6802 35.6143C27.735 35.669 27.778 35.7333 27.809 35.8071C27.84 35.8786 27.8555 35.956 27.8555 36.0393C27.8555 36.1202 27.84 36.1964 27.809 36.2679C27.778 36.3393 27.735 36.4024 27.6802 36.4571C27.6277 36.5095 27.5645 36.5512 27.4905 36.5821C27.4189 36.6131 27.3426 36.6286 27.2615 36.6286C27.178 36.6286 27.1004 36.6131 27.0289 36.5821C26.9573 36.5512 26.8941 36.5095 26.8392 36.4571C26.7867 36.4024 26.745 36.3393 26.7139 36.2679C26.6829 36.1964 26.6674 36.1202 26.6674 36.0393C26.6674 35.956 26.6829 35.8786 26.7139 35.8071C26.745 35.7333 26.7867 35.669 26.8392 35.6143C26.8941 35.5595 26.9573 35.5167 27.0289 35.4857C27.1004 35.4548 27.178 35.4393 27.2615 35.4393Z" fill="white"/>
<path d="M32.6385 34.2571H29.5609V33.7321H32.6385V34.2571ZM32.6385 35.5H29.5609V34.975H32.6385V35.5Z" fill="white"/>
<path d="M36.5806 35.2536H35.7825L35.6501 36.5643H35.1205L35.2529 35.2536H34.3404L34.208 36.5643H33.6783L33.8107 35.2536H33.0485V34.7893H33.8573L33.9861 33.5393H33.231V33.075H34.0326L34.1543 31.8964H34.6768L34.5587 33.075H35.4748L35.5965 31.8964H36.1261L36.0008 33.075H36.7702V33.5393H35.9543L35.8291 34.7893H36.5806V35.2536ZM35.303 34.7893L35.4283 33.5393H34.5121L34.3869 34.7893H35.303Z" fill="white"/>
<path d="M40.3902 35.2536H39.5922L39.4598 36.5643H38.9301L39.0625 35.2536H38.15L38.0176 36.5643H37.488L37.6204 35.2536H36.8581V34.7893H37.6669L37.7957 33.5393H37.0406V33.075H37.8422L37.9639 31.8964H38.4864L38.3683 33.075H39.2844L39.4061 31.8964H39.9357L39.8105 33.075H40.5799V33.5393H39.7639L39.6387 34.7893H40.3902V35.2536ZM39.1126 34.7893L39.2379 33.5393H38.3218L38.1965 34.7893H39.1126Z" fill="white"/>
<path d="M44.1998 35.2536H43.4018L43.2694 36.5643H42.7398L42.8722 35.2536H41.9596L41.8272 36.5643H41.2976L41.43 35.2536H40.6678V34.7893H41.4765L41.6054 33.5393H40.8503V33.075H41.6519L41.7735 31.8964H42.296L42.1779 33.075H43.094L43.2157 31.8964H43.7453L43.6201 33.075H44.3895V33.5393H43.5736L43.4483 34.7893H44.1998V35.2536ZM42.9223 34.7893L43.0475 33.5393H42.1314L42.0062 34.7893H42.9223Z" fill="white"/>
<path d="M47.8771 34.2571H44.7995V33.7321H47.8771V34.2571ZM47.8771 35.5H44.7995V34.975H47.8771V35.5Z" fill="white"/>
<path d="M50.1193 35.4393C50.2004 35.4393 50.2767 35.4548 50.3483 35.4857C50.4223 35.5167 50.4855 35.5595 50.538 35.6143C50.5928 35.669 50.6358 35.7333 50.6668 35.8071C50.6978 35.8786 50.7133 35.956 50.7133 36.0393C50.7133 36.1202 50.6978 36.1964 50.6668 36.2679C50.6358 36.3393 50.5928 36.4024 50.538 36.4571C50.4855 36.5095 50.4223 36.5512 50.3483 36.5821C50.2767 36.6131 50.2004 36.6286 50.1193 36.6286C50.0358 36.6286 49.9582 36.6131 49.8867 36.5821C49.8151 36.5512 49.7519 36.5095 49.697 36.4571C49.6445 36.4024 49.6028 36.3393 49.5717 36.2679C49.5407 36.1964 49.5252 36.1202 49.5252 36.0393C49.5252 35.956 49.5407 35.8786 49.5717 35.8071C49.6028 35.7333 49.6445 35.669 49.697 35.6143C49.7519 35.5595 49.8151 35.5167 49.8867 35.4857C49.9582 35.4548 50.0358 35.4393 50.1193 35.4393Z" fill="white"/>
<path d="M12.0229 43.6679C12.1041 43.6679 12.1804 43.6833 12.252 43.7143C12.3259 43.7452 12.3892 43.7881 12.4416 43.8429C12.4965 43.8976 12.5395 43.9619 12.5705 44.0357C12.6015 44.1071 12.617 44.1845 12.617 44.2679C12.617 44.3488 12.6015 44.425 12.5705 44.4964C12.5395 44.5679 12.4965 44.631 12.4416 44.6857C12.3892 44.7381 12.3259 44.7798 12.252 44.8107C12.1804 44.8417 12.1041 44.8571 12.0229 44.8571C11.9394 44.8571 11.8619 44.8417 11.7903 44.8107C11.7188 44.7798 11.6555 44.7381 11.6007 44.6857C11.5482 44.631 11.5064 44.5679 11.4754 44.4964C11.4444 44.425 11.4289 44.3488 11.4289 44.2679C11.4289 44.1845 11.4444 44.1071 11.4754 44.0357C11.5064 43.9619 11.5482 43.8976 11.6007 43.8429C11.6555 43.7881 11.7188 43.7452 11.7903 43.7143C11.8619 43.6833 11.9394 43.6679 12.0229 43.6679Z" fill="white"/>
<path d="M15.8326 43.6679C15.9137 43.6679 15.99 43.6833 16.0616 43.7143C16.1356 43.7452 16.1988 43.7881 16.2513 43.8429C16.3061 43.8976 16.3491 43.9619 16.3801 44.0357C16.4111 44.1071 16.4266 44.1845 16.4266 44.2679C16.4266 44.3488 16.4111 44.425 16.3801 44.4964C16.3491 44.5679 16.3061 44.631 16.2513 44.6857C16.1988 44.7381 16.1356 44.7798 16.0616 44.8107C15.99 44.8417 15.9137 44.8571 15.8326 44.8571C15.7491 44.8571 15.6715 44.8417 15.6 44.8107C15.5284 44.7798 15.4652 44.7381 15.4103 44.6857C15.3578 44.631 15.3161 44.5679 15.2851 44.4964C15.254 44.425 15.2385 44.3488 15.2385 44.2679C15.2385 44.1845 15.254 44.1071 15.2851 44.0357C15.3161 43.9619 15.3578 43.8976 15.4103 43.8429C15.4652 43.7881 15.5284 43.7452 15.6 43.7143C15.6715 43.6833 15.7491 43.6679 15.8326 43.6679Z" fill="white"/>
<path d="M34.8807 43.6679C34.9618 43.6679 35.0382 43.6833 35.1098 43.7143C35.1837 43.7452 35.2469 43.7881 35.2994 43.8429C35.3543 43.8976 35.3972 43.9619 35.4283 44.0357C35.4593 44.1071 35.4748 44.1845 35.4748 44.2679C35.4748 44.3488 35.4593 44.425 35.4283 44.4964C35.3972 44.5679 35.3543 44.631 35.2994 44.6857C35.2469 44.7381 35.1837 44.7798 35.1098 44.8107C35.0382 44.8417 34.9618 44.8571 34.8807 44.8571C34.7972 44.8571 34.7197 44.8417 34.6481 44.8107C34.5766 44.7798 34.5133 44.7381 34.4585 44.6857C34.406 44.631 34.3642 44.5679 34.3332 44.4964C34.3022 44.425 34.2867 44.3488 34.2867 44.2679C34.2867 44.1845 34.3022 44.1071 34.3332 44.0357C34.3642 43.9619 34.406 43.8976 34.4585 43.8429C34.5133 43.7881 34.5766 43.7452 34.6481 43.7143C34.7197 43.6833 34.7972 43.6679 34.8807 43.6679Z" fill="white"/>
<path d="M40.1433 41.7929L39.8999 42.2179L38.8943 41.5536L38.9767 42.775H38.4649L38.5436 41.5536L37.5166 42.2179L37.2911 41.8L38.3898 41.2607L37.2911 40.7107L37.5381 40.2929L38.5508 40.9679L38.4649 39.7464H38.9767L38.8872 40.9679L39.8999 40.2857L40.1504 40.725L39.0482 41.2679L40.1433 41.7929Z" fill="white"/>
<path d="M44.1998 43.4821H43.4018L43.2694 44.7929H42.7398L42.8722 43.4821H41.9596L41.8272 44.7929H41.2976L41.43 43.4821H40.6678V43.0179H41.4765L41.6054 41.7679H40.8503V41.3036H41.6519L41.7735 40.125H42.296L42.1779 41.3036H43.094L43.2157 40.125H43.7453L43.6201 41.3036H44.3895V41.7679H43.5736L43.4483 43.0179H44.1998V43.4821ZM42.9223 43.0179L43.0475 41.7679H42.1314L42.0062 43.0179H42.9223Z" fill="white"/>
<path d="M48.0095 43.4821H47.2114L47.079 44.7929H46.5494L46.6818 43.4821H45.7693L45.6369 44.7929H45.1072L45.2396 43.4821H44.4774V43.0179H45.2862L45.415 41.7679H44.6599V41.3036H45.4615L45.5832 40.125H46.1057L45.9876 41.3036H46.9037L47.0254 40.125H47.555L47.4297 41.3036H48.1991V41.7679H47.3832L47.258 43.0179H48.0095V43.4821ZM46.7319 43.0179L46.8572 41.7679H45.941L45.8158 43.0179H46.7319Z" fill="white"/>
<path d="M51.8191 43.4821H51.0211L50.8887 44.7929H50.359L50.4914 43.4821H49.5789L49.4465 44.7929H48.9169L49.0493 43.4821H48.287V43.0179H49.0958L49.2246 41.7679H48.4695V41.3036H49.2711L49.3928 40.125H49.9153L49.7972 41.3036H50.7133L50.835 40.125H51.3646L51.2394 41.3036H52.0088V41.7679H51.1928L51.0676 43.0179H51.8191V43.4821ZM50.5415 43.0179L50.6668 41.7679H49.7507L49.6254 43.0179H50.5415Z" fill="white"/>
<path d="M55.6717 43.1179H54.2653V44.575H53.6498V43.1179H52.2434V42.575H53.6498V41.1286H54.2653V42.575H55.6717V43.1179Z" fill="white"/>
<path d="M57.7385 43.6679C57.8196 43.6679 57.896 43.6833 57.9676 43.7143C58.0415 43.7452 58.1047 43.7881 58.1572 43.8429C58.2121 43.8976 58.255 43.9619 58.2861 44.0357C58.3171 44.1071 58.3326 44.1845 58.3326 44.2679C58.3326 44.3488 58.3171 44.425 58.2861 44.4964C58.255 44.5679 58.2121 44.631 58.1572 44.6857C58.1047 44.7381 58.0415 44.7798 57.9676 44.8107C57.896 44.8417 57.8196 44.8571 57.7385 44.8571C57.655 44.8571 57.5775 44.8417 57.5059 44.8107C57.4343 44.7798 57.3711 44.7381 57.3163 44.6857C57.2638 44.631 57.222 44.5679 57.191 44.4964C57.16 44.425 57.1445 44.3488 57.1445 44.2679C57.1445 44.1845 57.16 44.1071 57.191 44.0357C57.222 43.9619 57.2638 43.8976 57.3163 43.8429C57.3711 43.7881 57.4343 43.7452 57.5059 43.7143C57.5775 43.6833 57.655 43.6679 57.7385 43.6679Z" fill="white"/>
<path d="M38.6904 51.8964C38.7715 51.8964 38.8478 51.9119 38.9194 51.9429C38.9934 51.9738 39.0566 52.0167 39.1091 52.0714C39.1639 52.1262 39.2069 52.1905 39.2379 52.2643C39.2689 52.3357 39.2844 52.4131 39.2844 52.4964C39.2844 52.5774 39.2689 52.6536 39.2379 52.725C39.2069 52.7964 39.1639 52.8595 39.1091 52.9143C39.0566 52.9667 38.9934 53.0083 38.9194 53.0393C38.8478 53.0702 38.7715 53.0857 38.6904 53.0857C38.6069 53.0857 38.5293 53.0702 38.4578 53.0393C38.3862 53.0083 38.323 52.9667 38.2681 52.9143C38.2156 52.8595 38.1739 52.7964 38.1428 52.725C38.1118 52.6536 38.0963 52.5774 38.0963 52.4964C38.0963 52.4131 38.1118 52.3357 38.1428 52.2643C38.1739 52.1905 38.2156 52.1262 38.2681 52.0714C38.323 52.0167 38.3862 51.9738 38.4578 51.9429C38.5293 51.9119 38.6069 51.8964 38.6904 51.8964Z" fill="white"/>
<path d="M42.5286 49.3714C42.6026 49.3714 42.673 49.3869 42.7398 49.4179C42.8066 49.4464 42.865 49.4857 42.9151 49.5357C42.9652 49.5857 43.0046 49.644 43.0332 49.7107C43.0642 49.7774 43.0797 49.8476 43.0797 49.9214C43.0797 49.9976 43.0642 50.069 43.0332 50.1357C43.0046 50.2 42.9652 50.2571 42.9151 50.3071C42.865 50.3571 42.8066 50.3964 42.7398 50.425C42.673 50.4536 42.6026 50.4679 42.5286 50.4679C42.4523 50.4679 42.3807 50.4536 42.3139 50.425C42.2495 50.3964 42.1922 50.3571 42.1421 50.3071C42.092 50.2571 42.0527 50.2 42.024 50.1357C41.9954 50.069 41.9811 49.9976 41.9811 49.9214C41.9811 49.8476 41.9954 49.7774 42.024 49.7107C42.0527 49.644 42.092 49.5857 42.1421 49.5357C42.1922 49.4857 42.2495 49.4464 42.3139 49.4179C42.3807 49.3869 42.4523 49.3714 42.5286 49.3714ZM42.5286 51.9893C42.6026 51.9893 42.673 52.0048 42.7398 52.0357C42.8066 52.0643 42.865 52.1036 42.9151 52.1536C42.9652 52.2036 43.0046 52.2619 43.0332 52.3286C43.0642 52.3952 43.0797 52.4655 43.0797 52.5393C43.0797 52.6155 43.0642 52.6869 43.0332 52.7536C43.0046 52.8179 42.9652 52.875 42.9151 52.925C42.865 52.975 42.8066 53.0143 42.7398 53.0429C42.673 53.0714 42.6026 53.0857 42.5286 53.0857C42.4523 53.0857 42.3807 53.0714 42.3139 53.0429C42.2495 53.0143 42.1922 52.975 42.1421 52.925C42.092 52.875 42.0527 52.8179 42.024 52.7536C41.9954 52.6869 41.9811 52.6155 41.9811 52.5393C41.9811 52.4655 41.9954 52.3952 42.024 52.3286C42.0527 52.2619 42.092 52.2036 42.1421 52.1536C42.1922 52.1036 42.2495 52.0643 42.3139 52.0357C42.3807 52.0048 42.4523 51.9893 42.5286 51.9893Z" fill="white"/>
<path d="M47.7625 50.0214L47.5192 50.4464L46.5136 49.7821L46.5959 51.0036H46.0842L46.1629 49.7821L45.1359 50.4464L44.9104 50.0286L46.009 49.4893L44.9104 48.9393L45.1573 48.5214L46.1701 49.1964L46.0842 47.975H46.5959L46.5065 49.1964L47.5192 48.5143L47.7697 48.9536L46.6675 49.4964L47.7625 50.0214Z" fill="white"/>
<path d="M51.8191 51.7107H51.0211L50.8887 53.0214H50.359L50.4914 51.7107H49.5789L49.4465 53.0214H48.9169L49.0493 51.7107H48.287V51.2464H49.0958L49.2246 49.9964H48.4695V49.5321H49.2711L49.3928 48.3536H49.9153L49.7972 49.5321H50.7133L50.835 48.3536H51.3646L51.2394 49.5321H52.0088V49.9964H51.1928L51.0676 51.2464H51.8191V51.7107ZM50.5415 51.2464L50.6668 49.9964H49.7507L49.6254 51.2464H50.5415Z" fill="white"/>
<path d="M55.6287 51.7107H54.8307L54.6983 53.0214H54.1687L54.3011 51.7107H53.3885L53.2561 53.0214H52.7265L52.8589 51.7107H52.0967V51.2464H52.9054L53.0342 49.9964H52.2792V49.5321H53.0808L53.2024 48.3536H53.7249L53.6068 49.5321H54.5229L54.6446 48.3536H55.1742L55.049 49.5321H55.8184V49.9964H55.0025L54.8772 51.2464H55.6287V51.7107ZM54.3512 51.2464L54.4764 49.9964H53.5603L53.435 51.2464H54.3512Z" fill="white"/>
<path d="M59.4384 51.7107H58.6403L58.5079 53.0214H57.9783L58.1107 51.7107H57.1982L57.0658 53.0214H56.5361L56.6685 51.7107H55.9063V51.2464H56.715L56.8439 49.9964H56.0888V49.5321H56.8904L57.0121 48.3536H57.5345L57.4165 49.5321H58.3326L58.4542 48.3536H58.9839L58.8586 49.5321H59.628V49.9964H58.8121L58.6869 51.2464H59.4384V51.7107ZM58.1608 51.2464L58.2861 49.9964H57.3699L57.2447 51.2464H58.1608Z" fill="white"/>
<path d="M63.2909 51.3464H61.8845V52.8036H61.269V51.3464H59.8626V50.8036H61.269V49.3571H61.8845V50.8036H63.2909V51.3464Z" fill="white"/>
<path d="M65.3578 51.8964C65.4389 51.8964 65.5153 51.9119 65.5868 51.9429C65.6608 51.9738 65.724 52.0167 65.7765 52.0714C65.8314 52.1262 65.8743 52.1905 65.9053 52.2643C65.9363 52.3357 65.9518 52.4131 65.9518 52.4964C65.9518 52.5774 65.9363 52.6536 65.9053 52.725C65.8743 52.7964 65.8314 52.8595 65.7765 52.9143C65.724 52.9667 65.6608 53.0083 65.5868 53.0393C65.5153 53.0702 65.4389 53.0857 65.3578 53.0857C65.2743 53.0857 65.1968 53.0702 65.1252 53.0393C65.0536 53.0083 64.9904 52.9667 64.9355 52.9143C64.883 52.8595 64.8413 52.7964 64.8103 52.725C64.7793 52.6536 64.7637 52.5774 64.7637 52.4964C64.7637 52.4131 64.7793 52.3357 64.8103 52.2643C64.8413 52.1905 64.883 52.1262 64.9355 52.0714C64.9904 52.0167 65.0536 51.9738 65.1252 51.9429C65.1968 51.9119 65.2743 51.8964 65.3578 51.8964Z" fill="white"/>
<path d="M46.3096 60.125C46.3907 60.125 46.4671 60.1405 46.5387 60.1714C46.6126 60.2024 46.6758 60.2452 46.7283 60.3C46.7832 60.3548 46.8261 60.419 46.8572 60.4929C46.8882 60.5643 46.9037 60.6417 46.9037 60.725C46.9037 60.806 46.8882 60.8821 46.8572 60.9536C46.8261 61.025 46.7832 61.0881 46.7283 61.1429C46.6758 61.1952 46.6126 61.2369 46.5387 61.2679C46.4671 61.2988 46.3907 61.3143 46.3096 61.3143C46.2261 61.3143 46.1486 61.2988 46.077 61.2679C46.0055 61.2369 45.9422 61.1952 45.8874 61.1429C45.8349 61.0881 45.7931 61.025 45.7621 60.9536C45.7311 60.8821 45.7156 60.806 45.7156 60.725C45.7156 60.6417 45.7311 60.5643 45.7621 60.4929C45.7931 60.419 45.8349 60.3548 45.8874 60.3C45.9422 60.2452 46.0055 60.2024 46.077 60.1714C46.1486 60.1405 46.2261 60.125 46.3096 60.125Z" fill="white"/>
<path d="M51.2179 59.5964H49.0779V59.0107H51.2179V59.5964Z" fill="white"/>
<path d="M55.6287 59.9393H54.8307L54.6983 61.25H54.1687L54.3011 59.9393H53.3885L53.2561 61.25H52.7265L52.8589 59.9393H52.0967V59.475H52.9054L53.0342 58.225H52.2792V57.7607H53.0808L53.2024 56.5821H53.7249L53.6068 57.7607H54.5229L54.6446 56.5821H55.1742L55.049 57.7607H55.8184V58.225H55.0025L54.8772 59.475H55.6287V59.9393ZM54.3512 59.475L54.4764 58.225H53.5603L53.435 59.475H54.3512Z" fill="white"/>
<path d="M59.4384 59.9393H58.6403L58.5079 61.25H57.9783L58.1107 59.9393H57.1982L57.0658 61.25H56.5361L56.6685 59.9393H55.9063V59.475H56.715L56.8439 58.225H56.0888V57.7607H56.8904L57.0121 56.5821H57.5345L57.4165 57.7607H58.3326L58.4542 56.5821H58.9839L58.8586 57.7607H59.628V58.225H58.8121L58.6869 59.475H59.4384V59.9393ZM58.1608 59.475L58.2861 58.225H57.3699L57.2447 59.475H58.1608Z" fill="white"/>
<path d="M63.248 59.9393H62.45L62.3176 61.25H61.7879L61.9203 59.9393H61.0078L60.8754 61.25H60.3458L60.4782 59.9393H59.7159V59.475H60.5247L60.6535 58.225H59.8984V57.7607H60.7L60.8217 56.5821H61.3442L61.2261 57.7607H62.1422L62.2639 56.5821H62.7935L62.6683 57.7607H63.4377V58.225H62.6217L62.4965 59.475H63.248V59.9393ZM61.9704 59.475L62.0957 58.225H61.1796L61.0543 59.475H61.9704Z" fill="white"/>
<path d="M67.0576 59.9393H66.2596L66.1272 61.25H65.5976L65.73 59.9393H64.8174L64.685 61.25H64.1554L64.2878 59.9393H63.5255V59.475H64.3343L64.4631 58.225H63.7081V57.7607H64.5097L64.6313 56.5821H65.1538L65.0357 57.7607H65.9518L66.0735 56.5821H66.6031L66.4779 57.7607H67.2473V58.225H66.4314L66.3061 59.475H67.0576V59.9393ZM65.7801 59.475L65.9053 58.225H64.9892L64.8639 59.475H65.7801Z" fill="white"/>
<path d="M70.9102 59.575H69.5038V61.0321H68.8883V59.575H67.4819V59.0321H68.8883V57.5857H69.5038V59.0321H70.9102V59.575Z" fill="white"/>
<path d="M72.9771 60.125C73.0582 60.125 73.1345 60.1405 73.2061 60.1714C73.28 60.2024 73.3433 60.2452 73.3958 60.3C73.4506 60.3548 73.4936 60.419 73.5246 60.4929C73.5556 60.5643 73.5711 60.6417 73.5711 60.725C73.5711 60.806 73.5556 60.8821 73.5246 60.9536C73.4936 61.025 73.4506 61.0881 73.3958 61.1429C73.3433 61.1952 73.28 61.2369 73.2061 61.2679C73.1345 61.2988 73.0582 61.3143 72.9771 61.3143C72.8936 61.3143 72.816 61.2988 72.7444 61.2679C72.6729 61.2369 72.6097 61.1952 72.5548 61.1429C72.5023 61.0881 72.4605 61.025 72.4295 60.9536C72.3985 60.8821 72.383 60.806 72.383 60.725C72.383 60.6417 72.3985 60.5643 72.4295 60.4929C72.4605 60.419 72.5023 60.3548 72.5548 60.3C72.6097 60.2452 72.6729 60.2024 72.7444 60.1714C72.816 60.1405 72.8936 60.125 72.9771 60.125Z" fill="white"/>
<path d="M53.9289 68.3536C54.01 68.3536 54.0864 68.369 54.1579 68.4C54.2319 68.431 54.2951 68.4738 54.3476 68.5286C54.4025 68.5833 54.4454 68.6476 54.4764 68.7214C54.5074 68.7929 54.5229 68.8702 54.5229 68.9536C54.5229 69.0345 54.5074 69.1107 54.4764 69.1821C54.4454 69.2536 54.4025 69.3167 54.3476 69.3714C54.2951 69.4238 54.2319 69.4655 54.1579 69.4964C54.0864 69.5274 54.01 69.5429 53.9289 69.5429C53.8454 69.5429 53.7679 69.5274 53.6963 69.4964C53.6247 69.4655 53.5615 69.4238 53.5066 69.3714C53.4541 69.3167 53.4124 69.2536 53.3814 69.1821C53.3504 69.1107 53.3348 69.0345 53.3348 68.9536C53.3348 68.8702 53.3504 68.7929 53.3814 68.7214C53.4124 68.6476 53.4541 68.5833 53.5066 68.5286C53.5615 68.4738 53.6247 68.431 53.6963 68.4C53.7679 68.369 53.8454 68.3536 53.9289 68.3536Z" fill="white"/>
<path d="M59.306 67.1714H56.2284V66.6464H59.306V67.1714ZM59.306 68.4143H56.2284V67.8893H59.306V68.4143Z" fill="white"/>
<path d="M63.248 68.1679H62.45L62.3176 69.4786H61.7879L61.9203 68.1679H61.0078L60.8754 69.4786H60.3458L60.4782 68.1679H59.7159V67.7036H60.5247L60.6535 66.4536H59.8984V65.9893H60.7L60.8217 64.8107H61.3442L61.2261 65.9893H62.1422L62.2639 64.8107H62.7935L62.6683 65.9893H63.4377V66.4536H62.6217L62.4965 67.7036H63.248V68.1679ZM61.9704 67.7036L62.0957 66.4536H61.1796L61.0543 67.7036H61.9704Z" fill="white"/>
<path d="M67.0576 68.1679H66.2596L66.1272 69.4786H65.5976L65.73 68.1679H64.8174L64.685 69.4786H64.1554L64.2878 68.1679H63.5255V67.7036H64.3343L64.4631 66.4536H63.7081V65.9893H64.5097L64.6313 64.8107H65.1538L65.0357 65.9893H65.9518L66.0735 64.8107H66.6031L66.4779 65.9893H67.2473V66.4536H66.4314L66.3061 67.7036H67.0576V68.1679ZM65.7801 67.7036L65.9053 66.4536H64.9892L64.8639 67.7036H65.7801Z" fill="white"/>
<path d="M70.8673 68.1679H70.0692L69.9368 69.4786H69.4072L69.5396 68.1679H68.6271L68.4946 69.4786H67.965L68.0974 68.1679H67.3352V67.7036H68.1439L68.2728 66.4536H67.5177V65.9893H68.3193L68.441 64.8107H68.9634L68.8454 65.9893H69.7615L69.8831 64.8107H70.4128L70.2875 65.9893H71.0569V66.4536H70.241L70.1158 67.7036H70.8673V68.1679ZM69.5897 67.7036L69.715 66.4536H68.7988L68.6736 67.7036H69.5897Z" fill="white"/>
<path d="M74.6769 68.1679H73.8789L73.7465 69.4786H73.2168L73.3492 68.1679H72.4367L72.3043 69.4786H71.7747L71.9071 68.1679H71.1448V67.7036H71.9536L72.0824 66.4536H71.3273V65.9893H72.1289L72.2506 64.8107H72.7731L72.655 65.9893H73.5711L73.6928 64.8107H74.2224L74.0972 65.9893H74.8666V66.4536H74.0506L73.9254 67.7036H74.6769V68.1679ZM73.3993 67.7036L73.5246 66.4536H72.6085L72.4832 67.7036H73.3993Z" fill="white"/>
<path d="M78.5295 67.8036H77.1231V69.2607H76.5076V67.8036H75.1012V67.2607H76.5076V65.8143H77.1231V67.2607H78.5295V67.8036Z" fill="white"/>
<path d="M80.5963 68.3536C80.6774 68.3536 80.7538 68.369 80.8253 68.4C80.8993 68.431 80.9625 68.4738 81.015 68.5286C81.0699 68.5833 81.1128 68.6476 81.1438 68.7214C81.1749 68.7929 81.1904 68.8702 81.1904 68.9536C81.1904 69.0345 81.1749 69.1107 81.1438 69.1821C81.1128 69.2536 81.0699 69.3167 81.015 69.3714C80.9625 69.4238 80.8993 69.4655 80.8253 69.4964C80.7538 69.5274 80.6774 69.5429 80.5963 69.5429C80.5128 69.5429 80.4353 69.5274 80.3637 69.4964C80.2921 69.4655 80.2289 69.4238 80.174 69.3714C80.1216 69.3167 80.0798 69.2536 80.0488 69.1821C80.0178 69.1107 80.0023 69.0345 80.0023 68.9536C80.0023 68.8702 80.0178 68.7929 80.0488 68.7214C80.0798 68.6476 80.1216 68.5833 80.174 68.5286C80.2289 68.4738 80.2921 68.431 80.3637 68.4C80.4353 68.369 80.5128 68.3536 80.5963 68.3536Z" fill="white"/>
<path d="M84.406 68.3536C84.4871 68.3536 84.5634 68.369 84.635 68.4C84.7089 68.431 84.7722 68.4738 84.8246 68.5286C84.8795 68.5833 84.9225 68.6476 84.9535 68.7214C84.9845 68.7929 85 68.8702 85 68.9536C85 69.0345 84.9845 69.1107 84.9535 69.1821C84.9225 69.2536 84.8795 69.3167 84.8246 69.3714C84.7722 69.4238 84.7089 69.4655 84.635 69.4964C84.5634 69.5274 84.4871 69.5429 84.406 69.5429C84.3225 69.5429 84.2449 69.5274 84.1733 69.4964C84.1018 69.4655 84.0385 69.4238 83.9837 69.3714C83.9312 69.3167 83.8894 69.2536 83.8584 69.1821C83.8274 69.1107 83.8119 69.0345 83.8119 68.9536C83.8119 68.8702 83.8274 68.7929 83.8584 68.7214C83.8894 68.6476 83.9312 68.5833 83.9837 68.5286C84.0385 68.4738 84.1018 68.431 84.1733 68.4C84.2449 68.369 84.3225 68.3536 84.406 68.3536Z" fill="white"/>
<path d="M61.5482 76.5821C61.6293 76.5821 61.7056 76.5976 61.7772 76.6286C61.8511 76.6595 61.9144 76.7024 61.9669 76.7571C62.0217 76.8119 62.0647 76.8762 62.0957 76.95C62.1267 77.0214 62.1422 77.0988 62.1422 77.1821C62.1422 77.2631 62.1267 77.3393 62.0957 77.4107C62.0647 77.4821 62.0217 77.5452 61.9669 77.6C61.9144 77.6524 61.8511 77.694 61.7772 77.725C61.7056 77.756 61.6293 77.7714 61.5482 77.7714C61.4647 77.7714 61.3871 77.756 61.3156 77.725C61.244 77.694 61.1808 77.6524 61.1259 77.6C61.0734 77.5452 61.0317 77.4821 61.0006 77.4107C60.9696 77.3393 60.9541 77.2631 60.9541 77.1821C60.9541 77.0988 60.9696 77.0214 61.0006 76.95C61.0317 76.8762 61.0734 76.8119 61.1259 76.7571C61.1808 76.7024 61.244 76.6595 61.3156 76.6286C61.3871 76.5976 61.4647 76.5821 61.5482 76.5821Z" fill="white"/>
<path d="M67.1006 76.0321H65.6942V77.4893H65.0787V76.0321H63.6723V75.4893H65.0787V74.0429H65.6942V75.4893H67.1006V76.0321Z" fill="white"/>
<path d="M70.8673 76.3964H70.0692L69.9368 77.7071H69.4072L69.5396 76.3964H68.6271L68.4946 77.7071H67.965L68.0974 76.3964H67.3352V75.9321H68.1439L68.2728 74.6821H67.5177V74.2179H68.3193L68.441 73.0393H68.9634L68.8454 74.2179H69.7615L69.8831 73.0393H70.4128L70.2875 74.2179H71.0569V74.6821H70.241L70.1158 75.9321H70.8673V76.3964ZM69.5897 75.9321L69.715 74.6821H68.7988L68.6736 75.9321H69.5897Z" fill="white"/>
<path d="M74.6769 76.3964H73.8789L73.7465 77.7071H73.2168L73.3492 76.3964H72.4367L72.3043 77.7071H71.7747L71.9071 76.3964H71.1448V75.9321H71.9536L72.0824 74.6821H71.3273V74.2179H72.1289L72.2506 73.0393H72.7731L72.655 74.2179H73.5711L73.6928 73.0393H74.2224L74.0972 74.2179H74.8666V74.6821H74.0506L73.9254 75.9321H74.6769V76.3964ZM73.3993 75.9321L73.5246 74.6821H72.6085L72.4832 75.9321H73.3993Z" fill="white"/>
<path d="M78.4865 76.3964H77.6885L77.5561 77.7071H77.0265L77.1589 76.3964H76.2463L76.1139 77.7071H75.5843L75.7167 76.3964H74.9544V75.9321H75.7632L75.892 74.6821H75.137V74.2179H75.9386L76.0602 73.0393H76.5827L76.4646 74.2179H77.3807L77.5024 73.0393H78.032L77.9068 74.2179H78.6762V74.6821H77.8603L77.735 75.9321H78.4865V76.3964ZM77.209 75.9321L77.3342 74.6821H76.4181L76.2928 75.9321H77.209Z" fill="white"/>
<path d="M82.0492 74.7071L81.8059 75.1321L80.8003 74.4679L80.8826 75.6893H80.3709L80.4496 74.4679L79.4225 75.1321L79.1971 74.7143L80.2957 74.175L79.1971 73.625L79.444 73.2071L80.4567 73.8821L80.3709 72.6607H80.8826L80.7931 73.8821L81.8059 73.2L82.0564 73.6393L80.9542 74.1821L82.0492 74.7071Z" fill="white"/>
<path d="M84.406 76.5821C84.4871 76.5821 84.5634 76.5976 84.635 76.6286C84.7089 76.6595 84.7722 76.7024 84.8246 76.7571C84.8795 76.8119 84.9225 76.8762 84.9535 76.95C84.9845 77.0214 85 77.0988 85 77.1821C85 77.2631 84.9845 77.3393 84.9535 77.4107C84.9225 77.4821 84.8795 77.5452 84.8246 77.6C84.7722 77.6524 84.7089 77.694 84.635 77.725C84.5634 77.756 84.4871 77.7714 84.406 77.7714C84.3225 77.7714 84.2449 77.756 84.1733 77.725C84.1018 77.694 84.0385 77.6524 83.9837 77.6C83.9312 77.5452 83.8894 77.4821 83.8584 77.4107C83.8274 77.3393 83.8119 77.2631 83.8119 77.1821C83.8119 77.0988 83.8274 77.0214 83.8584 76.95C83.8894 76.8762 83.9312 76.8119 83.9837 76.7571C84.0385 76.7024 84.1018 76.6595 84.1733 76.6286C84.2449 76.5976 84.3225 76.5821 84.406 76.5821Z" fill="white"/>
<path d="M69.1674 84.8107C69.2485 84.8107 69.3249 84.8262 69.3965 84.8571C69.4704 84.8881 69.5336 84.931 69.5861 84.9857C69.641 85.0405 69.6839 85.1048 69.715 85.1786C69.746 85.25 69.7615 85.3274 69.7615 85.4107C69.7615 85.4917 69.746 85.5679 69.715 85.6393C69.6839 85.7107 69.641 85.7738 69.5861 85.8286C69.5336 85.881 69.4704 85.9226 69.3965 85.9536C69.3249 85.9845 69.2485 86 69.1674 86C69.0839 86 69.0064 85.9845 68.9348 85.9536C68.8632 85.9226 68.8 85.881 68.7451 85.8286C68.6927 85.7738 68.6509 85.7107 68.6199 85.6393C68.5889 85.5679 68.5734 85.4917 68.5734 85.4107C68.5734 85.3274 68.5889 85.25 68.6199 85.1786C68.6509 85.1048 68.6927 85.0405 68.7451 84.9857C68.8 84.931 68.8632 84.8881 68.9348 84.8571C69.0064 84.8262 69.0839 84.8107 69.1674 84.8107Z" fill="white"/>
<path d="M74.0757 84.2821H71.9357V83.6964H74.0757V84.2821Z" fill="white"/>
<path d="M77.8853 84.2821H75.7453V83.6964H77.8853V84.2821Z" fill="white"/>
<path d="M80.5963 84.8107C80.6774 84.8107 80.7538 84.8262 80.8253 84.8571C80.8993 84.8881 80.9625 84.931 81.015 84.9857C81.0699 85.0405 81.1128 85.1048 81.1438 85.1786C81.1749 85.25 81.1904 85.3274 81.1904 85.4107C81.1904 85.4917 81.1749 85.5679 81.1438 85.6393C81.1128 85.7107 81.0699 85.7738 81.015 85.8286C80.9625 85.881 80.8993 85.9226 80.8253 85.9536C80.7538 85.9845 80.6774 86 80.5963 86C80.5128 86 80.4353 85.9845 80.3637 85.9536C80.2921 85.9226 80.2289 85.881 80.174 85.8286C80.1216 85.7738 80.0798 85.7107 80.0488 85.6393C80.0178 85.5679 80.0023 85.4917 80.0023 85.4107C80.0023 85.3274 80.0178 85.25 80.0488 85.1786C80.0798 85.1048 80.1216 85.0405 80.174 84.9857C80.2289 84.931 80.2921 84.8881 80.3637 84.8571C80.4353 84.8262 80.5128 84.8107 80.5963 84.8107Z" fill="white"/>
</svg>
