<svg width="94" height="92" viewBox="0 0 94 92" fill="none" xmlns="http://www.w3.org/2000/svg">
<path d="M9.48961 6.1543C9.62242 6.1543 9.74742 6.17969 9.86461 6.23047C9.9857 6.28125 10.0892 6.35156 10.1752 6.44141C10.265 6.53125 10.3353 6.63672 10.3861 6.75781C10.4369 6.875 10.4623 7.00195 10.4623 7.13867C10.4623 7.27148 10.4369 7.39648 10.3861 7.51367C10.3353 7.63086 10.265 7.73438 10.1752 7.82422C10.0892 7.91016 9.9857 7.97852 9.86461 8.0293C9.74742 8.08008 9.62242 8.10547 9.48961 8.10547C9.35289 8.10547 9.22594 8.08008 9.10875 8.0293C8.99156 7.97852 8.88805 7.91016 8.7982 7.82422C8.71227 7.73438 8.64391 7.63086 8.59312 7.51367C8.54234 7.39648 8.51695 7.27148 8.51695 7.13867C8.51695 7.00195 8.54234 6.875 8.59312 6.75781C8.64391 6.63672 8.71227 6.53125 8.7982 6.44141C8.88805 6.35156 8.99156 6.28125 9.10875 6.23047C9.22594 6.17969 9.35289 6.1543 9.48961 6.1543ZM18.5105 5.84961H17.2038L16.987 8H16.1198L16.3366 5.84961H14.8425L14.6257 8H13.7585L13.9753 5.84961H12.7273V5.08789H14.0515L14.2624 3.03711H13.0261V2.27539H14.3386L14.5378 0.341797H15.3933L15.1999 2.27539H16.6999L16.8991 0.341797H17.7663L17.5612 2.27539H18.821V3.03711H17.4851L17.28 5.08789H18.5105V5.84961ZM16.4187 5.08789L16.6237 3.03711H15.1237L14.9187 5.08789H16.4187ZM24.7481 5.84961H23.4415L23.2247 8H22.3575L22.5743 5.84961H21.0802L20.8634 8H19.9962L20.213 5.84961H18.9649V5.08789H20.2891L20.5001 3.03711H19.2638V2.27539H20.5763L20.7755 0.341797H21.6309L21.4376 2.27539H22.9376L23.1368 0.341797H24.004L23.7989 2.27539H25.0587V3.03711H23.7227L23.5177 5.08789H24.7481V5.84961ZM22.6563 5.08789L22.8614 3.03711H21.3614L21.1563 5.08789H22.6563ZM30.9858 5.84961H29.6791L29.4623 8H28.5952L28.812 5.84961H27.3178L27.101 8H26.2338L26.4506 5.84961H25.2026V5.08789H26.5268L26.7377 3.03711H25.5014V2.27539H26.8139L27.0131 0.341797H27.8686L27.6752 2.27539H29.1752L29.3745 0.341797H30.2416L30.0366 2.27539H31.2963V3.03711H29.9604L29.7553 5.08789H30.9858V5.84961ZM28.894 5.08789L29.0991 3.03711H27.5991L27.394 5.08789H28.894ZM37.2234 5.84961H35.9168L35.7 8H34.8328L35.0496 5.84961H33.5555L33.3387 8H32.4715L32.6883 5.84961H31.4402V5.08789H32.7645L32.9754 3.03711H31.7391V2.27539H33.0516L33.2508 0.341797H34.1063L33.9129 2.27539H35.4129L35.6121 0.341797H36.4793L36.2742 2.27539H37.534V3.03711H36.198L35.993 5.08789H37.2234V5.84961ZM35.1316 5.08789L35.3367 3.03711H33.8367L33.6316 5.08789H35.1316ZM43.4611 5.84961H42.1545L41.9377 8H41.0705L41.2873 5.84961H39.7931L39.5763 8H38.7091L38.9259 5.84961H37.6779V5.08789H39.0021L39.213 3.03711H37.9767V2.27539H39.2892L39.4884 0.341797H40.3439L40.1505 2.27539H41.6505L41.8498 0.341797H42.717L42.5119 2.27539H43.7716V3.03711H42.4357L42.2306 5.08789H43.4611V5.84961ZM41.3693 5.08789L41.5744 3.03711H40.0744L39.8693 5.08789H41.3693ZM49.6987 5.84961H48.3921L48.1753 8H47.3081L47.5249 5.84961H46.0308L45.814 8H44.9468L45.1636 5.84961H43.9155V5.08789H45.2398L45.4507 3.03711H44.2144V2.27539H45.5269L45.7261 0.341797H46.5816L46.3882 2.27539H47.8882L48.0874 0.341797H48.9546L48.7495 2.27539H50.0093V3.03711H48.6734L48.4683 5.08789H49.6987V5.84961ZM47.607 5.08789L47.812 3.03711H46.312L46.107 5.08789H47.607ZM55.9364 5.84961H54.6298L54.413 8H53.5458L53.7626 5.84961H52.2684L52.0516 8H51.1845L51.4012 5.84961H50.1532V5.08789H51.4774L51.6884 3.03711H50.452V2.27539H51.7645L51.9637 0.341797H52.8192L52.6259 2.27539H54.1259L54.3251 0.341797H55.1923L54.9872 2.27539H56.247V3.03711H54.911L54.7059 5.08789H55.9364V5.84961ZM53.8446 5.08789L54.0497 3.03711H52.5497L52.3446 5.08789H53.8446ZM62.1741 5.84961H60.8674L60.6506 8H59.7834L60.0002 5.84961H58.5061L58.2893 8H57.4221L57.6389 5.84961H56.3909V5.08789H57.7151L57.926 3.03711H56.6897V2.27539H58.0022L58.2014 0.341797H59.0569L58.8635 2.27539H60.3635L60.5627 0.341797H61.4299L61.2248 2.27539H62.4846V3.03711H61.1487L60.9436 5.08789H62.1741V5.84961ZM60.0823 5.08789L60.2873 3.03711H58.7873L58.5823 5.08789H60.0823ZM68.4117 5.84961H67.1051L66.8883 8H66.0211L66.2379 5.84961H64.7438L64.527 8H63.6598L63.8766 5.84961H62.6285V5.08789H63.9527L64.1637 3.03711H62.9273V2.27539H64.2398L64.4391 0.341797H65.2945L65.1012 2.27539H66.6012L66.8004 0.341797H67.6676L67.4625 2.27539H68.7223V3.03711H67.3863L67.1813 5.08789H68.4117V5.84961ZM66.3199 5.08789L66.525 3.03711H65.025L64.8199 5.08789H66.3199ZM74.6494 5.84961H73.3427L73.1259 8H72.2588L72.4755 5.84961H70.9814L70.7646 8H69.8974L70.1142 5.84961H68.8662V5.08789H70.1904L70.4013 3.03711H69.165V2.27539H70.4775L70.6767 0.341797H71.5322L71.3388 2.27539H72.8388L73.038 0.341797H73.9052L73.7002 2.27539H74.9599V3.03711H73.624L73.4189 5.08789H74.6494V5.84961ZM72.5576 5.08789L72.7627 3.03711H71.2627L71.0576 5.08789H72.5576ZM80.887 5.84961H79.5804L79.3636 8H78.4964L78.7132 5.84961H77.2191L77.0023 8H76.1351L76.3519 5.84961H75.1038V5.08789H76.428L76.639 3.03711H75.4027V2.27539H76.7152L76.9144 0.341797H77.7698L77.5765 2.27539H79.0765L79.2757 0.341797H80.1429L79.9378 2.27539H81.1976V3.03711H79.8616L79.6566 5.08789H80.887V5.84961ZM78.7952 5.08789L79.0003 3.03711H77.5003L77.2952 5.08789H78.7952ZM84.3415 6.1543C84.4743 6.1543 84.5993 6.17969 84.7165 6.23047C84.8376 6.28125 84.9411 6.35156 85.027 6.44141C85.1169 6.53125 85.1872 6.63672 85.238 6.75781C85.2887 6.875 85.3141 7.00195 85.3141 7.13867C85.3141 7.27148 85.2887 7.39648 85.238 7.51367C85.1872 7.63086 85.1169 7.73438 85.027 7.82422C84.9411 7.91016 84.8376 7.97852 84.7165 8.0293C84.5993 8.08008 84.4743 8.10547 84.3415 8.10547C84.2048 8.10547 84.0778 8.08008 83.9606 8.0293C83.8434 7.97852 83.7399 7.91016 83.6501 7.82422C83.5641 7.73438 83.4958 7.63086 83.445 7.51367C83.3942 7.39648 83.3688 7.27148 83.3688 7.13867C83.3688 7.00195 83.3942 6.875 83.445 6.75781C83.4958 6.63672 83.5641 6.53125 83.6501 6.44141C83.7399 6.35156 83.8434 6.28125 83.9606 6.23047C84.0778 6.17969 84.2048 6.1543 84.3415 6.1543ZM6.03516 19.8496H4.72852L4.51172 22H3.64453L3.86133 19.8496H2.36719L2.15039 22H1.2832L1.5 19.8496H0.251953V19.0879H1.57617L1.78711 17.0371H0.550781V16.2754H1.86328L2.0625 14.3418H2.91797L2.72461 16.2754H4.22461L4.42383 14.3418H5.29102L5.08594 16.2754H6.3457V17.0371H5.00977L4.80469 19.0879H6.03516V19.8496ZM3.94336 19.0879L4.14844 17.0371H2.64844L2.44336 19.0879H3.94336ZM11.8685 17.0781L11.4701 17.7754L9.82359 16.6855L9.95836 18.6895H9.12047L9.24937 16.6855L7.56773 17.7754L7.19859 17.0898L8.99742 16.2051L7.19859 15.3027L7.60289 14.6172L9.26109 15.7246L9.12047 13.7207H9.95836L9.81187 15.7246L11.4701 14.6055L11.8802 15.3262L10.0755 16.2168L11.8685 17.0781ZM40.6779 20.1543C40.8107 20.1543 40.9357 20.1797 41.0529 20.2305C41.174 20.2812 41.2775 20.3516 41.3634 20.4414C41.4533 20.5312 41.5236 20.6367 41.5744 20.7578C41.6252 20.875 41.6505 21.002 41.6505 21.1387C41.6505 21.2715 41.6252 21.3965 41.5744 21.5137C41.5236 21.6309 41.4533 21.7344 41.3634 21.8242C41.2775 21.9102 41.174 21.9785 41.0529 22.0293C40.9357 22.0801 40.8107 22.1055 40.6779 22.1055C40.5412 22.1055 40.4142 22.0801 40.297 22.0293C40.1798 21.9785 40.0763 21.9102 39.9865 21.8242C39.9005 21.7344 39.8322 21.6309 39.7814 21.5137C39.7306 21.3965 39.7052 21.2715 39.7052 21.1387C39.7052 21.002 39.7306 20.875 39.7814 20.7578C39.8322 20.6367 39.9005 20.5312 39.9865 20.4414C40.0763 20.3516 40.1798 20.2812 40.297 20.2305C40.4142 20.1797 40.5412 20.1543 40.6779 20.1543ZM46.9155 20.1543C47.0484 20.1543 47.1734 20.1797 47.2905 20.2305C47.4116 20.2812 47.5152 20.3516 47.6011 20.4414C47.6909 20.5312 47.7612 20.6367 47.812 20.7578C47.8628 20.875 47.8882 21.002 47.8882 21.1387C47.8882 21.2715 47.8628 21.3965 47.812 21.5137C47.7612 21.6309 47.6909 21.7344 47.6011 21.8242C47.5152 21.9102 47.4116 21.9785 47.2905 22.0293C47.1734 22.0801 47.0484 22.1055 46.9155 22.1055C46.7788 22.1055 46.6519 22.0801 46.5347 22.0293C46.4175 21.9785 46.314 21.9102 46.2241 21.8242C46.1382 21.7344 46.0698 21.6309 46.0191 21.5137C45.9683 21.3965 45.9429 21.2715 45.9429 21.1387C45.9429 21.002 45.9683 20.875 46.0191 20.7578C46.0698 20.6367 46.1382 20.5312 46.2241 20.4414C46.314 20.3516 46.4175 20.2812 46.5347 20.2305C46.6519 20.1797 46.7788 20.1543 46.9155 20.1543ZM53.1532 20.1543C53.286 20.1543 53.411 20.1797 53.5282 20.2305C53.6493 20.2812 53.7528 20.3516 53.8387 20.4414C53.9286 20.5312 53.9989 20.6367 54.0497 20.7578C54.1005 20.875 54.1259 21.002 54.1259 21.1387C54.1259 21.2715 54.1005 21.3965 54.0497 21.5137C53.9989 21.6309 53.9286 21.7344 53.8387 21.8242C53.7528 21.9102 53.6493 21.9785 53.5282 22.0293C53.411 22.0801 53.286 22.1055 53.1532 22.1055C53.0165 22.1055 52.8895 22.0801 52.7723 22.0293C52.6552 21.9785 52.5516 21.9102 52.4618 21.8242C52.3759 21.7344 52.3075 21.6309 52.2567 21.5137C52.2059 21.3965 52.1805 21.2715 52.1805 21.1387C52.1805 21.002 52.2059 20.875 52.2567 20.7578C52.3075 20.6367 52.3759 20.5312 52.4618 20.4414C52.5516 20.3516 52.6552 20.2812 52.7723 20.2305C52.8895 20.1797 53.0165 20.1543 53.1532 20.1543ZM74.6494 19.8496H73.3427L73.1259 22H72.2588L72.4755 19.8496H70.9814L70.7646 22H69.8974L70.1142 19.8496H68.8662V19.0879H70.1904L70.4013 17.0371H69.165V16.2754H70.4775L70.6767 14.3418H71.5322L71.3388 16.2754H72.8388L73.038 14.3418H73.9052L73.7002 16.2754H74.9599V17.0371H73.624L73.4189 19.0879H74.6494V19.8496ZM72.5576 19.0879L72.7627 17.0371H71.2627L71.0576 19.0879H72.5576ZM86.7204 17.0781L86.322 17.7754L84.6755 16.6855L84.8102 18.6895H83.9723L84.1012 16.6855L82.4196 17.7754L82.0505 17.0898L83.8493 16.2051L82.0505 15.3027L82.4548 14.6172L84.113 15.7246L83.9723 13.7207H84.8102L84.6637 15.7246L86.322 14.6055L86.7321 15.3262L84.9274 16.2168L86.7204 17.0781ZM93.3623 19.8496H92.0557L91.8389 22H90.9717L91.1885 19.8496H89.6944L89.4776 22H88.6104L88.8272 19.8496H87.5791V19.0879H88.9034L89.1143 17.0371H87.878V16.2754H89.1905L89.3897 14.3418H90.2452L90.0518 16.2754H91.5518L91.751 14.3418H92.6182L92.4131 16.2754H93.6729V17.0371H92.337L92.1319 19.0879H93.3623V19.8496ZM91.2705 19.0879L91.4756 17.0371H89.9756L89.7705 19.0879H91.2705ZM6.03516 33.8496H4.72852L4.51172 36H3.64453L3.86133 33.8496H2.36719L2.15039 36H1.2832L1.5 33.8496H0.251953V33.0879H1.57617L1.78711 31.0371H0.550781V30.2754H1.86328L2.0625 28.3418H2.91797L2.72461 30.2754H4.22461L4.42383 28.3418H5.29102L5.08594 30.2754H6.3457V31.0371H5.00977L4.80469 33.0879H6.03516V33.8496ZM3.94336 33.0879L4.14844 31.0371H2.64844L2.44336 33.0879H3.94336ZM28.2026 34.1543C28.3354 34.1543 28.4604 34.1797 28.5776 34.2305C28.6987 34.2812 28.8022 34.3516 28.8881 34.4414C28.978 34.5312 29.0483 34.6367 29.0991 34.7578C29.1498 34.875 29.1752 35.002 29.1752 35.1387C29.1752 35.2715 29.1498 35.3965 29.0991 35.5137C29.0483 35.6309 28.978 35.7344 28.8881 35.8242C28.8022 35.9102 28.6987 35.9785 28.5776 36.0293C28.4604 36.0801 28.3354 36.1055 28.2026 36.1055C28.0659 36.1055 27.9389 36.0801 27.8217 36.0293C27.7045 35.9785 27.601 35.9102 27.5112 35.8242C27.4252 35.7344 27.3569 35.6309 27.3061 35.5137C27.2553 35.3965 27.2299 35.2715 27.2299 35.1387C27.2299 35.002 27.2553 34.875 27.3061 34.7578C27.3569 34.6367 27.4252 34.5312 27.5112 34.4414C27.601 34.3516 27.7045 34.2812 27.8217 34.2305C27.9389 34.1797 28.0659 34.1543 28.2026 34.1543ZM37.2234 33.8496H35.9168L35.7 36H34.8328L35.0496 33.8496H33.5555L33.3387 36H32.4715L32.6883 33.8496H31.4402V33.0879H32.7645L32.9754 31.0371H31.7391V30.2754H33.0516L33.2508 28.3418H34.1063L33.9129 30.2754H35.4129L35.6121 28.3418H36.4793L36.2742 30.2754H37.534V31.0371H36.198L35.993 33.0879H37.2234V33.8496ZM35.1316 33.0879L35.3367 31.0371H33.8367L33.6316 33.0879H35.1316ZM43.0568 31.0781L42.6584 31.7754L41.0119 30.6855L41.1466 32.6895H40.3088L40.4377 30.6855L38.756 31.7754L38.3869 31.0898L40.1857 30.2051L38.3869 29.3027L38.7912 28.6172L40.4494 29.7246L40.3088 27.7207H41.1466L41.0002 29.7246L42.6584 28.6055L43.0685 29.3262L41.2638 30.2168L43.0568 31.0781ZM55.5321 31.0781L55.1337 31.7754L53.4872 30.6855L53.622 32.6895H52.7841L52.913 30.6855L51.2313 31.7754L50.8622 31.0898L52.661 30.2051L50.8622 29.3027L51.2665 28.6172L52.9247 29.7246L52.7841 27.7207H53.622L53.4755 29.7246L55.1337 28.6055L55.5438 29.3262L53.7391 30.2168L55.5321 31.0781ZM62.1741 33.8496H60.8674L60.6506 36H59.7834L60.0002 33.8496H58.5061L58.2893 36H57.4221L57.6389 33.8496H56.3909V33.0879H57.7151L57.926 31.0371H56.6897V30.2754H58.0022L58.2014 28.3418H59.0569L58.8635 30.2754H60.3635L60.5627 28.3418H61.4299L61.2248 30.2754H62.4846V31.0371H61.1487L60.9436 33.0879H62.1741V33.8496ZM60.0823 33.0879L60.2873 31.0371H58.7873L58.5823 33.0879H60.0823ZM65.6285 34.1543C65.7613 34.1543 65.8863 34.1797 66.0035 34.2305C66.1246 34.2812 66.2281 34.3516 66.3141 34.4414C66.4039 34.5312 66.4742 34.6367 66.525 34.7578C66.5758 34.875 66.6012 35.002 66.6012 35.1387C66.6012 35.2715 66.5758 35.3965 66.525 35.5137C66.4742 35.6309 66.4039 35.7344 66.3141 35.8242C66.2281 35.9102 66.1246 35.9785 66.0035 36.0293C65.8863 36.0801 65.7613 36.1055 65.6285 36.1055C65.4918 36.1055 65.3648 36.0801 65.2477 36.0293C65.1305 35.9785 65.027 35.9102 64.9371 35.8242C64.8512 35.7344 64.7828 35.6309 64.732 35.5137C64.6813 35.3965 64.6559 35.2715 64.6559 35.1387C64.6559 35.002 64.6813 34.875 64.732 34.7578C64.7828 34.6367 64.8512 34.5312 64.9371 34.4414C65.027 34.3516 65.1305 34.2812 65.2477 34.2305C65.3648 34.1797 65.4918 34.1543 65.6285 34.1543ZM93.3623 33.8496H92.0557L91.8389 36H90.9717L91.1885 33.8496H89.6944L89.4776 36H88.6104L88.8272 33.8496H87.5791V33.0879H88.9034L89.1143 31.0371H87.878V30.2754H89.1905L89.3897 28.3418H90.2452L90.0518 30.2754H91.5518L91.751 28.3418H92.6182L92.4131 30.2754H93.6729V31.0371H92.337L92.1319 33.0879H93.3623V33.8496ZM91.2705 33.0879L91.4756 31.0371H89.9756L89.7705 33.0879H91.2705ZM6.03516 47.8496H4.72852L4.51172 50H3.64453L3.86133 47.8496H2.36719L2.15039 50H1.2832L1.5 47.8496H0.251953V47.0879H1.57617L1.78711 45.0371H0.550781V44.2754H1.86328L2.0625 42.3418H2.91797L2.72461 44.2754H4.22461L4.42383 42.3418H5.29102L5.08594 44.2754H6.3457V45.0371H5.00977L4.80469 47.0879H6.03516V47.8496ZM3.94336 47.0879L4.14844 45.0371H2.64844L2.44336 47.0879H3.94336ZM30.9858 47.8496H29.6791L29.4623 50H28.5952L28.812 47.8496H27.3178L27.101 50H26.2338L26.4506 47.8496H25.2026V47.0879H26.5268L26.7377 45.0371H25.5014V44.2754H26.8139L27.0131 42.3418H27.8686L27.6752 44.2754H29.1752L29.3745 42.3418H30.2416L30.0366 44.2754H31.2963V45.0371H29.9604L29.7553 47.0879H30.9858V47.8496ZM28.894 47.0879L29.0991 45.0371H27.5991L27.394 47.0879H28.894ZM68.4117 47.8496H67.1051L66.8883 50H66.0211L66.2379 47.8496H64.7438L64.527 50H63.6598L63.8766 47.8496H62.6285V47.0879H63.9527L64.1637 45.0371H62.9273V44.2754H64.2398L64.4391 42.3418H65.2945L65.1012 44.2754H66.6012L66.8004 42.3418H67.6676L67.4625 44.2754H68.7223V45.0371H67.3863L67.1813 47.0879H68.4117V47.8496ZM66.3199 47.0879L66.525 45.0371H65.025L64.8199 47.0879H66.3199ZM93.3623 47.8496H92.0557L91.8389 50H90.9717L91.1885 47.8496H89.6944L89.4776 50H88.6104L88.8272 47.8496H87.5791V47.0879H88.9034L89.1143 45.0371H87.878V44.2754H89.1905L89.3897 42.3418H90.2452L90.0518 44.2754H91.5518L91.751 42.3418H92.6182L92.4131 44.2754H93.6729V45.0371H92.337L92.1319 47.0879H93.3623V47.8496ZM91.2705 47.0879L91.4756 45.0371H89.9756L89.7705 47.0879H91.2705ZM6.03516 61.8496H4.72852L4.51172 64H3.64453L3.86133 61.8496H2.36719L2.15039 64H1.2832L1.5 61.8496H0.251953V61.0879H1.57617L1.78711 59.0371H0.550781V58.2754H1.86328L2.0625 56.3418H2.91797L2.72461 58.2754H4.22461L4.42383 56.3418H5.29102L5.08594 58.2754H6.3457V59.0371H5.00977L4.80469 61.0879H6.03516V61.8496ZM3.94336 61.0879L4.14844 59.0371H2.64844L2.44336 61.0879H3.94336ZM30.5815 59.0781L30.183 59.7754L28.5366 58.6855L28.6713 60.6895H27.8334L27.9623 58.6855L26.2807 59.7754L25.9116 59.0898L27.7104 58.2051L25.9116 57.3027L26.3159 56.6172L27.9741 57.7246L27.8334 55.7207H28.6713L28.5248 57.7246L30.183 56.6055L30.5932 57.3262L28.7885 58.2168L30.5815 59.0781ZM37.2234 61.8496H35.9168L35.7 64H34.8328L35.0496 61.8496H33.5555L33.3387 64H32.4715L32.6883 61.8496H31.4402V61.0879H32.7645L32.9754 59.0371H31.7391V58.2754H33.0516L33.2508 56.3418H34.1063L33.9129 58.2754H35.4129L35.6121 56.3418H36.4793L36.2742 58.2754H37.534V59.0371H36.198L35.993 61.0879H37.2234V61.8496ZM35.1316 61.0879L35.3367 59.0371H33.8367L33.6316 61.0879H35.1316ZM40.6779 62.1543C40.8107 62.1543 40.9357 62.1797 41.0529 62.2305C41.174 62.2812 41.2775 62.3516 41.3634 62.4414C41.4533 62.5312 41.5236 62.6367 41.5744 62.7578C41.6252 62.875 41.6505 63.002 41.6505 63.1387C41.6505 63.2715 41.6252 63.3965 41.5744 63.5137C41.5236 63.6309 41.4533 63.7344 41.3634 63.8242C41.2775 63.9102 41.174 63.9785 41.0529 64.0293C40.9357 64.0801 40.8107 64.1055 40.6779 64.1055C40.5412 64.1055 40.4142 64.0801 40.297 64.0293C40.1798 63.9785 40.0763 63.9102 39.9865 63.8242C39.9005 63.7344 39.8322 63.6309 39.7814 63.5137C39.7306 63.3965 39.7052 63.2715 39.7052 63.1387C39.7052 63.002 39.7306 62.875 39.7814 62.7578C39.8322 62.6367 39.9005 62.5312 39.9865 62.4414C40.0763 62.3516 40.1798 62.2812 40.297 62.2305C40.4142 62.1797 40.5412 62.1543 40.6779 62.1543ZM53.1532 62.1543C53.286 62.1543 53.411 62.1797 53.5282 62.2305C53.6493 62.2812 53.7528 62.3516 53.8387 62.4414C53.9286 62.5312 53.9989 62.6367 54.0497 62.7578C54.1005 62.875 54.1259 63.002 54.1259 63.1387C54.1259 63.2715 54.1005 63.3965 54.0497 63.5137C53.9989 63.6309 53.9286 63.7344 53.8387 63.8242C53.7528 63.9102 53.6493 63.9785 53.5282 64.0293C53.411 64.0801 53.286 64.1055 53.1532 64.1055C53.0165 64.1055 52.8895 64.0801 52.7723 64.0293C52.6552 63.9785 52.5516 63.9102 52.4618 63.8242C52.3759 63.7344 52.3075 63.6309 52.2567 63.5137C52.2059 63.3965 52.1805 63.2715 52.1805 63.1387C52.1805 63.002 52.2059 62.875 52.2567 62.7578C52.3075 62.6367 52.3759 62.5312 52.4618 62.4414C52.5516 62.3516 52.6552 62.2812 52.7723 62.2305C52.8895 62.1797 53.0165 62.1543 53.1532 62.1543ZM62.1741 61.8496H60.8674L60.6506 64H59.7834L60.0002 61.8496H58.5061L58.2893 64H57.4221L57.6389 61.8496H56.3909V61.0879H57.7151L57.926 59.0371H56.6897V58.2754H58.0022L58.2014 56.3418H59.0569L58.8635 58.2754H60.3635L60.5627 56.3418H61.4299L61.2248 58.2754H62.4846V59.0371H61.1487L60.9436 61.0879H62.1741V61.8496ZM60.0823 61.0879L60.2873 59.0371H58.7873L58.5823 61.0879H60.0823ZM68.0074 59.0781L67.609 59.7754L65.9625 58.6855L66.0973 60.6895H65.2594L65.3883 58.6855L63.7066 59.7754L63.3375 59.0898L65.1363 58.2051L63.3375 57.3027L63.7418 56.6172L65.4 57.7246L65.2594 55.7207H66.0973L65.9508 57.7246L67.609 56.6055L68.0191 57.3262L66.2145 58.2168L68.0074 59.0781ZM93.3623 61.8496H92.0557L91.8389 64H90.9717L91.1885 61.8496H89.6944L89.4776 64H88.6104L88.8272 61.8496H87.5791V61.0879H88.9034L89.1143 59.0371H87.878V58.2754H89.1905L89.3897 56.3418H90.2452L90.0518 58.2754H91.5518L91.751 56.3418H92.6182L92.4131 58.2754H93.6729V59.0371H92.337L92.1319 61.0879H93.3623V61.8496ZM91.2705 61.0879L91.4756 59.0371H89.9756L89.7705 61.0879H91.2705ZM6.03516 75.8496H4.72852L4.51172 78H3.64453L3.86133 75.8496H2.36719L2.15039 78H1.2832L1.5 75.8496H0.251953V75.0879H1.57617L1.78711 73.0371H0.550781V72.2754H1.86328L2.0625 70.3418H2.91797L2.72461 72.2754H4.22461L4.42383 70.3418H5.29102L5.08594 72.2754H6.3457V73.0371H5.00977L4.80469 75.0879H6.03516V75.8496ZM3.94336 75.0879L4.14844 73.0371H2.64844L2.44336 75.0879H3.94336ZM9.48961 76.1543C9.62242 76.1543 9.74742 76.1797 9.86461 76.2305C9.9857 76.2812 10.0892 76.3516 10.1752 76.4414C10.265 76.5312 10.3353 76.6367 10.3861 76.7578C10.4369 76.875 10.4623 77.002 10.4623 77.1387C10.4623 77.2715 10.4369 77.3965 10.3861 77.5137C10.3353 77.6309 10.265 77.7344 10.1752 77.8242C10.0892 77.9102 9.9857 77.9785 9.86461 78.0293C9.74742 78.0801 9.62242 78.1055 9.48961 78.1055C9.35289 78.1055 9.22594 78.0801 9.10875 78.0293C8.99156 77.9785 8.88805 77.9102 8.7982 77.8242C8.71227 77.7344 8.64391 77.6309 8.59312 77.5137C8.54234 77.3965 8.51695 77.2715 8.51695 77.1387C8.51695 77.002 8.54234 76.875 8.59312 76.7578C8.64391 76.6367 8.71227 76.5312 8.7982 76.4414C8.88805 76.3516 8.99156 76.2812 9.10875 76.2305C9.22594 76.1797 9.35289 76.1543 9.48961 76.1543ZM43.0568 73.0781L42.6584 73.7754L41.0119 72.6855L41.1466 74.6895H40.3088L40.4377 72.6855L38.756 73.7754L38.3869 73.0898L40.1857 72.2051L38.3869 71.3027L38.7912 70.6172L40.4494 71.7246L40.3088 69.7207H41.1466L41.0002 71.7246L42.6584 70.6055L43.0685 71.3262L41.2638 72.2168L43.0568 73.0781ZM49.2945 73.0781L48.896 73.7754L47.2495 72.6855L47.3843 74.6895H46.5464L46.6753 72.6855L44.9937 73.7754L44.6245 73.0898L46.4234 72.2051L44.6245 71.3027L45.0288 70.6172L46.687 71.7246L46.5464 69.7207H47.3843L47.2378 71.7246L48.896 70.6055L49.3062 71.3262L47.5015 72.2168L49.2945 73.0781ZM55.5321 73.0781L55.1337 73.7754L53.4872 72.6855L53.622 74.6895H52.7841L52.913 72.6855L51.2313 73.7754L50.8622 73.0898L52.661 72.2051L50.8622 71.3027L51.2665 70.6172L52.9247 71.7246L52.7841 69.7207H53.622L53.4755 71.7246L55.1337 70.6055L55.5438 71.3262L53.7391 72.2168L55.5321 73.0781ZM84.3415 76.1543C84.4743 76.1543 84.5993 76.1797 84.7165 76.2305C84.8376 76.2812 84.9411 76.3516 85.027 76.4414C85.1169 76.5312 85.1872 76.6367 85.238 76.7578C85.2887 76.875 85.3141 77.002 85.3141 77.1387C85.3141 77.2715 85.2887 77.3965 85.238 77.5137C85.1872 77.6309 85.1169 77.7344 85.027 77.8242C84.9411 77.9102 84.8376 77.9785 84.7165 78.0293C84.5993 78.0801 84.4743 78.1055 84.3415 78.1055C84.2048 78.1055 84.0778 78.0801 83.9606 78.0293C83.8434 77.9785 83.7399 77.9102 83.6501 77.8242C83.5641 77.7344 83.4958 77.6309 83.445 77.5137C83.3942 77.3965 83.3688 77.2715 83.3688 77.1387C83.3688 77.002 83.3942 76.875 83.445 76.7578C83.4958 76.6367 83.5641 76.5312 83.6501 76.4414C83.7399 76.3516 83.8434 76.2812 83.9606 76.2305C84.0778 76.1797 84.2048 76.1543 84.3415 76.1543ZM93.3623 75.8496H92.0557L91.8389 78H90.9717L91.1885 75.8496H89.6944L89.4776 78H88.6104L88.8272 75.8496H87.5791V75.0879H88.9034L89.1143 73.0371H87.878V72.2754H89.1905L89.3897 70.3418H90.2452L90.0518 72.2754H91.5518L91.751 70.3418H92.6182L92.4131 72.2754H93.6729V73.0371H92.337L92.1319 75.0879H93.3623V75.8496ZM91.2705 75.0879L91.4756 73.0371H89.9756L89.7705 75.0879H91.2705ZM11.8685 87.0781L11.4701 87.7754L9.82359 86.6855L9.95836 88.6895H9.12047L9.24937 86.6855L7.56773 87.7754L7.19859 87.0898L8.99742 86.2051L7.19859 85.3027L7.60289 84.6172L9.26109 85.7246L9.12047 83.7207H9.95836L9.81187 85.7246L11.4701 84.6055L11.8802 85.3262L10.0755 86.2168L11.8685 87.0781ZM18.5105 89.8496H17.2038L16.987 92H16.1198L16.3366 89.8496H14.8425L14.6257 92H13.7585L13.9753 89.8496H12.7273V89.0879H14.0515L14.2624 87.0371H13.0261V86.2754H14.3386L14.5378 84.3418H15.3933L15.1999 86.2754H16.6999L16.8991 84.3418H17.7663L17.5612 86.2754H18.821V87.0371H17.4851L17.28 89.0879H18.5105V89.8496ZM16.4187 89.0879L16.6237 87.0371H15.1237L14.9187 89.0879H16.4187ZM24.7481 89.8496H23.4415L23.2247 92H22.3575L22.5743 89.8496H21.0802L20.8634 92H19.9962L20.213 89.8496H18.9649V89.0879H20.2891L20.5001 87.0371H19.2638V86.2754H20.5763L20.7755 84.3418H21.6309L21.4376 86.2754H22.9376L23.1368 84.3418H24.004L23.7989 86.2754H25.0587V87.0371H23.7227L23.5177 89.0879H24.7481V89.8496ZM22.6563 89.0879L22.8614 87.0371H21.3614L21.1563 89.0879H22.6563ZM30.9858 89.8496H29.6791L29.4623 92H28.5952L28.812 89.8496H27.3178L27.101 92H26.2338L26.4506 89.8496H25.2026V89.0879H26.5268L26.7377 87.0371H25.5014V86.2754H26.8139L27.0131 84.3418H27.8686L27.6752 86.2754H29.1752L29.3745 84.3418H30.2416L30.0366 86.2754H31.2963V87.0371H29.9604L29.7553 89.0879H30.9858V89.8496ZM28.894 89.0879L29.0991 87.0371H27.5991L27.394 89.0879H28.894ZM37.2234 89.8496H35.9168L35.7 92H34.8328L35.0496 89.8496H33.5555L33.3387 92H32.4715L32.6883 89.8496H31.4402V89.0879H32.7645L32.9754 87.0371H31.7391V86.2754H33.0516L33.2508 84.3418H34.1063L33.9129 86.2754H35.4129L35.6121 84.3418H36.4793L36.2742 86.2754H37.534V87.0371H36.198L35.993 89.0879H37.2234V89.8496ZM35.1316 89.0879L35.3367 87.0371H33.8367L33.6316 89.0879H35.1316ZM43.4611 89.8496H42.1545L41.9377 92H41.0705L41.2873 89.8496H39.7931L39.5763 92H38.7091L38.9259 89.8496H37.6779V89.0879H39.0021L39.213 87.0371H37.9767V86.2754H39.2892L39.4884 84.3418H40.3439L40.1505 86.2754H41.6505L41.8498 84.3418H42.717L42.5119 86.2754H43.7716V87.0371H42.4357L42.2306 89.0879H43.4611V89.8496ZM41.3693 89.0879L41.5744 87.0371H40.0744L39.8693 89.0879H41.3693ZM49.6987 89.8496H48.3921L48.1753 92H47.3081L47.5249 89.8496H46.0308L45.814 92H44.9468L45.1636 89.8496H43.9155V89.0879H45.2398L45.4507 87.0371H44.2144V86.2754H45.5269L45.7261 84.3418H46.5816L46.3882 86.2754H47.8882L48.0874 84.3418H48.9546L48.7495 86.2754H50.0093V87.0371H48.6734L48.4683 89.0879H49.6987V89.8496ZM47.607 89.0879L47.812 87.0371H46.312L46.107 89.0879H47.607ZM55.9364 89.8496H54.6298L54.413 92H53.5458L53.7626 89.8496H52.2684L52.0516 92H51.1845L51.4012 89.8496H50.1532V89.0879H51.4774L51.6884 87.0371H50.452V86.2754H51.7645L51.9637 84.3418H52.8192L52.6259 86.2754H54.1259L54.3251 84.3418H55.1923L54.9872 86.2754H56.247V87.0371H54.911L54.7059 89.0879H55.9364V89.8496ZM53.8446 89.0879L54.0497 87.0371H52.5497L52.3446 89.0879H53.8446ZM62.1741 89.8496H60.8674L60.6506 92H59.7834L60.0002 89.8496H58.5061L58.2893 92H57.4221L57.6389 89.8496H56.3909V89.0879H57.7151L57.926 87.0371H56.6897V86.2754H58.0022L58.2014 84.3418H59.0569L58.8635 86.2754H60.3635L60.5627 84.3418H61.4299L61.2248 86.2754H62.4846V87.0371H61.1487L60.9436 89.0879H62.1741V89.8496ZM60.0823 89.0879L60.2873 87.0371H58.7873L58.5823 89.0879H60.0823ZM68.4117 89.8496H67.1051L66.8883 92H66.0211L66.2379 89.8496H64.7438L64.527 92H63.6598L63.8766 89.8496H62.6285V89.0879H63.9527L64.1637 87.0371H62.9273V86.2754H64.2398L64.4391 84.3418H65.2945L65.1012 86.2754H66.6012L66.8004 84.3418H67.6676L67.4625 86.2754H68.7223V87.0371H67.3863L67.1813 89.0879H68.4117V89.8496ZM66.3199 89.0879L66.525 87.0371H65.025L64.8199 89.0879H66.3199ZM74.6494 89.8496H73.3427L73.1259 92H72.2588L72.4755 89.8496H70.9814L70.7646 92H69.8974L70.1142 89.8496H68.8662V89.0879H70.1904L70.4013 87.0371H69.165V86.2754H70.4775L70.6767 84.3418H71.5322L71.3388 86.2754H72.8388L73.038 84.3418H73.9052L73.7002 86.2754H74.9599V87.0371H73.624L73.4189 89.0879H74.6494V89.8496ZM72.5576 89.0879L72.7627 87.0371H71.2627L71.0576 89.0879H72.5576ZM80.887 89.8496H79.5804L79.3636 92H78.4964L78.7132 89.8496H77.2191L77.0023 92H76.1351L76.3519 89.8496H75.1038V89.0879H76.428L76.639 87.0371H75.4027V86.2754H76.7152L76.9144 84.3418H77.7698L77.5765 86.2754H79.0765L79.2757 84.3418H80.1429L79.9378 86.2754H81.1976V87.0371H79.8616L79.6566 89.0879H80.887V89.8496ZM78.7952 89.0879L79.0003 87.0371H77.5003L77.2952 89.0879H78.7952ZM86.7204 87.0781L86.322 87.7754L84.6755 86.6855L84.8102 88.6895H83.9723L84.1012 86.6855L82.4196 87.7754L82.0505 87.0898L83.8493 86.2051L82.0505 85.3027L82.4548 84.6172L84.113 85.7246L83.9723 83.7207H84.8102L84.6637 85.7246L86.322 84.6055L86.7321 85.3262L84.9274 86.2168L86.7204 87.0781Z" fill="white"/>
</svg>
