<svg width="104" height="106" viewBox="0 0 104 106" fill="none" xmlns="http://www.w3.org/2000/svg">
<path d="M33.4793 5.8125C33.6121 5.8125 33.7371 5.83789 33.8543 5.88867C33.9754 5.93945 34.0789 6.00977 34.1648 6.09961C34.2547 6.18945 34.325 6.29492 34.3758 6.41602C34.4266 6.5332 34.452 6.66016 34.452 6.79688C34.452 6.92969 34.4266 7.05469 34.3758 7.17188C34.325 7.28906 34.2547 7.39258 34.1648 7.48242C34.0789 7.56836 33.9754 7.63672 33.8543 7.6875C33.7371 7.73828 33.6121 7.76367 33.4793 7.76367C33.3426 7.76367 33.2156 7.73828 33.0984 7.6875C32.9812 7.63672 32.8777 7.56836 32.7879 7.48242C32.702 7.39258 32.6336 7.28906 32.5828 7.17188C32.532 7.05469 32.5066 6.92969 32.5066 6.79688C32.5066 6.66016 32.532 6.5332 32.5828 6.41602C32.6336 6.29492 32.702 6.18945 32.7879 6.09961C32.8777 6.00977 32.9812 5.93945 33.0984 5.88867C33.2156 5.83789 33.3426 5.8125 33.4793 5.8125Z" fill="white"/>
<path d="M39.7169 5.8125C39.8498 5.8125 39.9748 5.83789 40.0919 5.88867C40.213 5.93945 40.3166 6.00977 40.4025 6.09961C40.4923 6.18945 40.5627 6.29492 40.6134 6.41602C40.6642 6.5332 40.6896 6.66016 40.6896 6.79688C40.6896 6.92969 40.6642 7.05469 40.6134 7.17188C40.5627 7.28906 40.4923 7.39258 40.4025 7.48242C40.3166 7.56836 40.213 7.63672 40.0919 7.6875C39.9748 7.73828 39.8498 7.76367 39.7169 7.76367C39.5802 7.76367 39.4533 7.73828 39.3361 7.6875C39.2189 7.63672 39.1154 7.56836 39.0255 7.48242C38.9396 7.39258 38.8712 7.28906 38.8205 7.17188C38.7697 7.05469 38.7443 6.92969 38.7443 6.79688C38.7443 6.66016 38.7697 6.5332 38.8205 6.41602C38.8712 6.29492 38.9396 6.18945 39.0255 6.09961C39.1154 6.00977 39.2189 5.93945 39.3361 5.88867C39.4533 5.83789 39.5802 5.8125 39.7169 5.8125Z" fill="white"/>
<path d="M48.7378 5.50781H47.4312L47.2144 7.6582H46.3472L46.564 5.50781H45.0698L44.8531 7.6582H43.9859L44.2027 5.50781H42.9546V4.74609H44.2788L44.4898 2.69531H43.2534V1.93359H44.5659L44.7652 0H45.6206L45.4273 1.93359H46.9273L47.1265 0H47.9937L47.7886 1.93359H49.0484V2.69531H47.7124L47.5073 4.74609H48.7378V5.50781ZM46.646 4.74609L46.8511 2.69531H45.3511L45.146 4.74609H46.646Z" fill="white"/>
<path d="M54.9755 5.50781H53.6688L53.452 7.6582H52.5848L52.8016 5.50781H51.3075L51.0907 7.6582H50.2235L50.4403 5.50781H49.1923V4.74609H50.5165L50.7274 2.69531H49.4911V1.93359H50.8036L51.0028 0H51.8583L51.6649 1.93359H53.1649L53.3641 0H54.2313L54.0263 1.93359H55.286V2.69531H53.9501L53.745 4.74609H54.9755V5.50781ZM52.8837 4.74609L53.0888 2.69531H51.5888L51.3837 4.74609H52.8837Z" fill="white"/>
<path d="M61.2131 5.50781H59.9065L59.6897 7.6582H58.8225L59.0393 5.50781H57.5452L57.3284 7.6582H56.4612L56.678 5.50781H55.4299V4.74609H56.7541L56.9651 2.69531H55.7288V1.93359H57.0413L57.2405 0H58.0959L57.9026 1.93359H59.4026L59.6018 0H60.469L60.2639 1.93359H61.5237V2.69531H60.1877L59.9827 4.74609H61.2131V5.50781ZM59.1213 4.74609L59.3264 2.69531H57.8264L57.6213 4.74609H59.1213Z" fill="white"/>
<path d="M64.6676 5.8125C64.8004 5.8125 64.9254 5.83789 65.0426 5.88867C65.1637 5.93945 65.2672 6.00977 65.3531 6.09961C65.443 6.18945 65.5133 6.29492 65.5641 6.41602C65.6148 6.5332 65.6402 6.66016 65.6402 6.79688C65.6402 6.92969 65.6148 7.05469 65.5641 7.17188C65.5133 7.28906 65.443 7.39258 65.3531 7.48242C65.2672 7.56836 65.1637 7.63672 65.0426 7.6875C64.9254 7.73828 64.8004 7.76367 64.6676 7.76367C64.5309 7.76367 64.4039 7.73828 64.2867 7.6875C64.1695 7.63672 64.066 7.56836 63.9762 7.48242C63.8902 7.39258 63.8219 7.28906 63.7711 7.17188C63.7203 7.05469 63.6949 6.92969 63.6949 6.79688C63.6949 6.66016 63.7203 6.5332 63.7711 6.41602C63.8219 6.29492 63.8902 6.18945 63.9762 6.09961C64.066 6.00977 64.1695 5.93945 64.2867 5.88867C64.4039 5.83789 64.5309 5.8125 64.6676 5.8125Z" fill="white"/>
<path d="M70.9052 5.8125C71.038 5.8125 71.163 5.83789 71.2802 5.88867C71.4013 5.93945 71.5048 6.00977 71.5908 6.09961C71.6806 6.18945 71.7509 6.29492 71.8017 6.41602C71.8525 6.5332 71.8779 6.66016 71.8779 6.79688C71.8779 6.92969 71.8525 7.05469 71.8017 7.17188C71.7509 7.28906 71.6806 7.39258 71.5908 7.48242C71.5048 7.56836 71.4013 7.63672 71.2802 7.6875C71.163 7.73828 71.038 7.76367 70.9052 7.76367C70.7685 7.76367 70.6416 7.73828 70.5244 7.6875C70.4072 7.63672 70.3037 7.56836 70.2138 7.48242C70.1279 7.39258 70.0595 7.28906 70.0088 7.17188C69.958 7.05469 69.9326 6.92969 69.9326 6.79688C69.9326 6.66016 69.958 6.5332 70.0088 6.41602C70.0595 6.29492 70.1279 6.18945 70.2138 6.09961C70.3037 6.00977 70.4072 5.93945 70.5244 5.88867C70.6416 5.83789 70.7685 5.8125 70.9052 5.8125Z" fill="white"/>
<path d="M14.7663 19.8125C14.8991 19.8125 15.0241 19.8379 15.1413 19.8887C15.2624 19.9395 15.3659 20.0098 15.4519 20.0996C15.5417 20.1895 15.612 20.2949 15.6628 20.416C15.7136 20.5332 15.739 20.6602 15.739 20.7969C15.739 20.9297 15.7136 21.0547 15.6628 21.1719C15.612 21.2891 15.5417 21.3926 15.4519 21.4824C15.3659 21.5684 15.2624 21.6367 15.1413 21.6875C15.0241 21.7383 14.8991 21.7637 14.7663 21.7637C14.6296 21.7637 14.5027 21.7383 14.3855 21.6875C14.2683 21.6367 14.1648 21.5684 14.0749 21.4824C13.989 21.3926 13.9206 21.2891 13.8698 21.1719C13.8191 21.0547 13.7937 20.9297 13.7937 20.7969C13.7937 20.6602 13.8191 20.5332 13.8698 20.416C13.9206 20.2949 13.989 20.1895 14.0749 20.0996C14.1648 20.0098 14.2683 19.9395 14.3855 19.8887C14.5027 19.8379 14.6296 19.8125 14.7663 19.8125Z" fill="white"/>
<path d="M23.7872 19.5078H22.4805L22.2638 21.6582H21.3966L21.6134 19.5078H20.1192L19.9024 21.6582H19.0352L19.252 19.5078H18.004V18.7461H19.3282L19.5391 16.6953H18.3028V15.9336H19.6153L19.8145 14H20.67L20.4766 15.9336H21.9766L22.1759 14H23.043L22.838 15.9336H24.0977V16.6953H22.7618L22.5567 18.7461H23.7872V19.5078ZM21.6954 18.7461L21.9005 16.6953H20.4005L20.1954 18.7461H21.6954Z" fill="white"/>
<path d="M30.0248 19.5078H28.7182L28.5014 21.6582H27.6342L27.851 19.5078H26.3569L26.1401 21.6582H25.2729L25.4897 19.5078H24.2416V18.7461H25.5659L25.7768 16.6953H24.5405V15.9336H25.853L26.0522 14H26.9077L26.7143 15.9336H28.2143L28.4135 14H29.2807L29.0756 15.9336H30.3354V16.6953H28.9995L28.7944 18.7461H30.0248V19.5078ZM27.933 18.7461L28.1381 16.6953H26.6381L26.433 18.7461H27.933Z" fill="white"/>
<path d="M36.2625 19.5078H34.9559L34.7391 21.6582H33.8719L34.0887 19.5078H32.5945L32.3777 21.6582H31.5105L31.7273 19.5078H30.4793V18.7461H31.8035L32.0145 16.6953H30.7781V15.9336H32.0906L32.2898 14H33.1453L32.952 15.9336H34.452L34.6512 14H35.5184L35.3133 15.9336H36.573V16.6953H35.2371L35.032 18.7461H36.2625V19.5078ZM34.1707 18.7461L34.3758 16.6953H32.8758L32.6707 18.7461H34.1707Z" fill="white"/>
<path d="M42.5002 19.5078H41.1935L40.9767 21.6582H40.1095L40.3263 19.5078H38.8322L38.6154 21.6582H37.7482L37.965 19.5078H36.7169V18.7461H38.0412L38.2521 16.6953H37.0158V15.9336H38.3283L38.5275 14H39.383L39.1896 15.9336H40.6896L40.8888 14H41.756L41.5509 15.9336H42.8107V16.6953H41.4748L41.2697 18.7461H42.5002V19.5078ZM40.4084 18.7461L40.6134 16.6953H39.1134L38.9084 18.7461H40.4084Z" fill="white"/>
<path d="M48.3335 16.7363L47.9351 17.4336L46.2886 16.3438L46.4234 18.3477H45.5855L45.7144 16.3438L44.0327 17.4336L43.6636 16.748L45.4624 15.8633L43.6636 14.9609L44.0679 14.2754L45.7261 15.3828L45.5855 13.3789H46.4234L46.2769 15.3828L47.9351 14.2637L48.3452 14.9844L46.5406 15.875L48.3335 16.7363Z" fill="white"/>
<path d="M54.5712 16.7363L54.1727 17.4336L52.5263 16.3438L52.661 18.3477H51.8231L51.952 16.3438L50.2704 17.4336L49.9013 16.748L51.7001 15.8633L49.9013 14.9609L50.3055 14.2754L51.9638 15.3828L51.8231 13.3789H52.661L52.5145 15.3828L54.1727 14.2637L54.5829 14.9844L52.7782 15.875L54.5712 16.7363Z" fill="white"/>
<path d="M60.8088 16.7363L60.4104 17.4336L58.7639 16.3438L58.8987 18.3477H58.0608L58.1897 16.3438L56.508 17.4336L56.1389 16.748L57.9377 15.8633L56.1389 14.9609L56.5432 14.2754L58.2014 15.3828L58.0608 13.3789H58.8987L58.7522 15.3828L60.4104 14.2637L60.8205 14.9844L59.0159 15.875L60.8088 16.7363Z" fill="white"/>
<path d="M67.0465 16.7363L66.648 17.4336L65.0016 16.3438L65.1363 18.3477H64.2984L64.4273 16.3438L62.7457 17.4336L62.3766 16.748L64.1754 15.8633L62.3766 14.9609L62.7809 14.2754L64.4391 15.3828L64.2984 13.3789H65.1363L64.9898 15.3828L66.648 14.2637L67.0582 14.9844L65.2535 15.875L67.0465 16.7363Z" fill="white"/>
<path d="M73.6884 19.5078H72.3818L72.165 21.6582H71.2978L71.5146 19.5078H70.0205L69.8037 21.6582H68.9365L69.1533 19.5078H67.9052V18.7461H69.2295L69.4404 16.6953H68.2041V15.9336H69.5166L69.7158 14H70.5713L70.3779 15.9336H71.8779L72.0771 14H72.9443L72.7392 15.9336H73.999V16.6953H72.663L72.458 18.7461H73.6884V19.5078ZM71.5966 18.7461L71.8017 16.6953H70.3017L70.0966 18.7461H71.5966Z" fill="white"/>
<path d="M79.9261 19.5078H78.6195L78.4027 21.6582H77.5355L77.7523 19.5078H76.2581L76.0413 21.6582H75.1741L75.3909 19.5078H74.1429V18.7461H75.4671L75.678 16.6953H74.4417V15.9336H75.7542L75.9534 14H76.8089L76.6155 15.9336H78.1155L78.3148 14H79.182L78.9769 15.9336H80.2366V16.6953H78.9007L78.6956 18.7461H79.9261V19.5078ZM77.8343 18.7461L78.0394 16.6953H76.5394L76.3343 18.7461H77.8343Z" fill="white"/>
<path d="M86.1637 19.5078H84.8571L84.6403 21.6582H83.7731L83.9899 19.5078H82.4958L82.279 21.6582H81.4118L81.6286 19.5078H80.3805V18.7461H81.7048L81.9157 16.6953H80.6794V15.9336H81.9919L82.1911 14H83.0466L82.8532 15.9336H84.3532L84.5524 14H85.4196L85.2145 15.9336H86.4743V16.6953H85.1384L84.9333 18.7461H86.1637V19.5078ZM84.072 18.7461L84.277 16.6953H82.777L82.572 18.7461H84.072Z" fill="white"/>
<path d="M89.6182 19.8125C89.751 19.8125 89.876 19.8379 89.9932 19.8887C90.1143 19.9395 90.2178 20.0098 90.3037 20.0996C90.3936 20.1895 90.4639 20.2949 90.5147 20.416C90.5655 20.5332 90.5909 20.6602 90.5909 20.7969C90.5909 20.9297 90.5655 21.0547 90.5147 21.1719C90.4639 21.2891 90.3936 21.3926 90.3037 21.4824C90.2178 21.5684 90.1143 21.6367 89.9932 21.6875C89.876 21.7383 89.751 21.7637 89.6182 21.7637C89.4815 21.7637 89.3545 21.7383 89.2373 21.6875C89.1202 21.6367 89.0166 21.5684 88.9268 21.4824C88.8409 21.3926 88.7725 21.2891 88.7217 21.1719C88.6709 21.0547 88.6455 20.9297 88.6455 20.7969C88.6455 20.6602 88.6709 20.5332 88.7217 20.416C88.7725 20.2949 88.8409 20.1895 88.9268 20.0996C89.0166 20.0098 89.1202 19.9395 89.2373 19.8887C89.3545 19.8379 89.4815 19.8125 89.6182 19.8125Z" fill="white"/>
<path d="M11.3119 33.5078H10.0052L9.78844 35.6582H8.92125L9.13805 33.5078H7.64391L7.42711 35.6582H6.55992L6.77672 33.5078H5.52867V32.7461H6.85289L7.06383 30.6953H5.8275V29.9336H7.14L7.33922 28H8.19469L8.00133 29.9336H9.50133L9.70055 28H10.5677L10.3627 29.9336H11.6224V30.6953H10.2865L10.0814 32.7461H11.3119V33.5078ZM9.22008 32.7461L9.42516 30.6953H7.92516L7.72008 32.7461H9.22008Z" fill="white"/>
<path d="M17.5495 33.5078H16.2429L16.0261 35.6582H15.1589L15.3757 33.5078H13.8816L13.6648 35.6582H12.7976L13.0144 33.5078H11.7663V32.7461H13.0905L13.3015 30.6953H12.0652V29.9336H13.3777L13.5769 28H14.4323L14.239 29.9336H15.739L15.9382 28H16.8054L16.6003 29.9336H17.8601V30.6953H16.5241L16.3191 32.7461H17.5495V33.5078ZM15.4577 32.7461L15.6628 30.6953H14.1628L13.9577 32.7461H15.4577Z" fill="white"/>
<path d="M23.3829 30.7363L22.9845 31.4336L21.338 30.3438L21.4727 32.3477H20.6348L20.7638 30.3438L19.0821 31.4336L18.713 30.748L20.5118 29.8633L18.713 28.9609L19.1173 28.2754L20.7755 29.3828L20.6348 27.3789H21.4727L21.3263 29.3828L22.9845 28.2637L23.3946 28.9844L21.5899 29.875L23.3829 30.7363Z" fill="white"/>
<path d="M33.4793 33.8125C33.6121 33.8125 33.7371 33.8379 33.8543 33.8887C33.9754 33.9395 34.0789 34.0098 34.1648 34.0996C34.2547 34.1895 34.325 34.2949 34.3758 34.416C34.4266 34.5332 34.452 34.6602 34.452 34.7969C34.452 34.9297 34.4266 35.0547 34.3758 35.1719C34.325 35.2891 34.2547 35.3926 34.1648 35.4824C34.0789 35.5684 33.9754 35.6367 33.8543 35.6875C33.7371 35.7383 33.6121 35.7637 33.4793 35.7637C33.3426 35.7637 33.2156 35.7383 33.0984 35.6875C32.9812 35.6367 32.8777 35.5684 32.7879 35.4824C32.702 35.3926 32.6336 35.2891 32.5828 35.1719C32.532 35.0547 32.5066 34.9297 32.5066 34.7969C32.5066 34.6602 32.532 34.5332 32.5828 34.416C32.6336 34.2949 32.702 34.1895 32.7879 34.0996C32.8777 34.0098 32.9812 33.9395 33.0984 33.8887C33.2156 33.8379 33.3426 33.8125 33.4793 33.8125Z" fill="white"/>
<path d="M42.5002 33.5078H41.1935L40.9767 35.6582H40.1095L40.3263 33.5078H38.8322L38.6154 35.6582H37.7482L37.965 33.5078H36.7169V32.7461H38.0412L38.2521 30.6953H37.0158V29.9336H38.3283L38.5275 28H39.383L39.1896 29.9336H40.6896L40.8888 28H41.756L41.5509 29.9336H42.8107V30.6953H41.4748L41.2697 32.7461H42.5002V33.5078ZM40.4084 32.7461L40.6134 30.6953H39.1134L38.9084 32.7461H40.4084Z" fill="white"/>
<path d="M48.3335 30.7363L47.9351 31.4336L46.2886 30.3438L46.4234 32.3477H45.5855L45.7144 30.3438L44.0327 31.4336L43.6636 30.748L45.4624 29.8633L43.6636 28.9609L44.0679 28.2754L45.7261 29.3828L45.5855 27.3789H46.4234L46.2769 29.3828L47.9351 28.2637L48.3452 28.9844L46.5406 29.875L48.3335 30.7363Z" fill="white"/>
<path d="M54.5712 30.7363L54.1727 31.4336L52.5263 30.3438L52.661 32.3477H51.8231L51.952 30.3438L50.2704 31.4336L49.9013 30.748L51.7001 29.8633L49.9013 28.9609L50.3055 28.2754L51.9638 29.3828L51.8231 27.3789H52.661L52.5145 29.3828L54.1727 28.2637L54.5829 28.9844L52.7782 29.875L54.5712 30.7363Z" fill="white"/>
<path d="M60.8088 30.7363L60.4104 31.4336L58.7639 30.3438L58.8987 32.3477H58.0608L58.1897 30.3438L56.508 31.4336L56.1389 30.748L57.9377 29.8633L56.1389 28.9609L56.5432 28.2754L58.2014 29.3828L58.0608 27.3789H58.8987L58.7522 29.3828L60.4104 28.2637L60.8205 28.9844L59.0159 29.875L60.8088 30.7363Z" fill="white"/>
<path d="M67.4508 33.5078H66.1441L65.9273 35.6582H65.0602L65.277 33.5078H63.7828L63.566 35.6582H62.6988L62.9156 33.5078H61.6676V32.7461H62.9918L63.2027 30.6953H61.9664V29.9336H63.2789L63.4781 28H64.3336L64.1402 29.9336H65.6402L65.8395 28H66.7066L66.5016 29.9336H67.7613V30.6953H66.4254L66.2203 32.7461H67.4508V33.5078ZM65.359 32.7461L65.5641 30.6953H64.0641L63.859 32.7461H65.359Z" fill="white"/>
<path d="M70.9052 33.8125C71.038 33.8125 71.163 33.8379 71.2802 33.8887C71.4013 33.9395 71.5048 34.0098 71.5908 34.0996C71.6806 34.1895 71.7509 34.2949 71.8017 34.416C71.8525 34.5332 71.8779 34.6602 71.8779 34.7969C71.8779 34.9297 71.8525 35.0547 71.8017 35.1719C71.7509 35.2891 71.6806 35.3926 71.5908 35.4824C71.5048 35.5684 71.4013 35.6367 71.2802 35.6875C71.163 35.7383 71.038 35.7637 70.9052 35.7637C70.7685 35.7637 70.6416 35.7383 70.5244 35.6875C70.4072 35.6367 70.3037 35.5684 70.2138 35.4824C70.1279 35.3926 70.0595 35.2891 70.0088 35.1719C69.958 35.0547 69.9326 34.9297 69.9326 34.7969C69.9326 34.6602 69.958 34.5332 70.0088 34.416C70.0595 34.2949 70.1279 34.1895 70.2138 34.0996C70.3037 34.0098 70.4072 33.9395 70.5244 33.8887C70.6416 33.8379 70.7685 33.8125 70.9052 33.8125Z" fill="white"/>
<path d="M91.9971 30.7363L91.5987 31.4336L89.9522 30.3438L90.087 32.3477H89.2491L89.378 30.3438L87.6963 31.4336L87.3272 30.748L89.126 29.8633L87.3272 28.9609L87.7315 28.2754L89.3897 29.3828L89.2491 27.3789H90.087L89.9405 29.3828L91.5987 28.2637L92.0088 28.9844L90.2041 29.875L91.9971 30.7363Z" fill="white"/>
<path d="M98.2348 30.7363L97.8363 31.4336L96.1898 30.3438L96.3246 32.3477H95.4867L95.6156 30.3438L93.934 31.4336L93.5648 30.748L95.3637 29.8633L93.5648 28.9609L93.9691 28.2754L95.6273 29.3828L95.4867 27.3789H96.3246L96.1781 29.3828L97.8363 28.2637L98.2465 28.9844L96.4418 29.875L98.2348 30.7363Z" fill="white"/>
<path d="M102.094 33.8125C102.226 33.8125 102.351 33.8379 102.469 33.8887C102.59 33.9395 102.693 34.0098 102.779 34.0996C102.869 34.1895 102.939 34.2949 102.99 34.416C103.041 34.5332 103.066 34.6602 103.066 34.7969C103.066 34.9297 103.041 35.0547 102.99 35.1719C102.939 35.2891 102.869 35.3926 102.779 35.4824C102.693 35.5684 102.59 35.6367 102.469 35.6875C102.351 35.7383 102.226 35.7637 102.094 35.7637C101.957 35.7637 101.83 35.7383 101.713 35.6875C101.595 35.6367 101.492 35.5684 101.402 35.4824C101.316 35.3926 101.248 35.2891 101.197 35.1719C101.146 35.0547 101.121 34.9297 101.121 34.7969C101.121 34.6602 101.146 34.5332 101.197 34.416C101.248 34.2949 101.316 34.1895 101.402 34.0996C101.492 34.0098 101.595 33.9395 101.713 33.8887C101.83 33.8379 101.957 33.8125 102.094 33.8125Z" fill="white"/>
<path d="M2.29102 47.8125C2.42383 47.8125 2.54883 47.8379 2.66602 47.8887C2.78711 47.9395 2.89062 48.0098 2.97656 48.0996C3.06641 48.1895 3.13672 48.2949 3.1875 48.416C3.23828 48.5332 3.26367 48.6602 3.26367 48.7969C3.26367 48.9297 3.23828 49.0547 3.1875 49.1719C3.13672 49.2891 3.06641 49.3926 2.97656 49.4824C2.89062 49.5684 2.78711 49.6367 2.66602 49.6875C2.54883 49.7383 2.42383 49.7637 2.29102 49.7637C2.1543 49.7637 2.02734 49.7383 1.91016 49.6875C1.79297 49.6367 1.68945 49.5684 1.59961 49.4824C1.51367 49.3926 1.44531 49.2891 1.39453 49.1719C1.34375 49.0547 1.31836 48.9297 1.31836 48.7969C1.31836 48.6602 1.34375 48.5332 1.39453 48.416C1.44531 48.2949 1.51367 48.1895 1.59961 48.0996C1.68945 48.0098 1.79297 47.9395 1.91016 47.8887C2.02734 47.8379 2.1543 47.8125 2.29102 47.8125Z" fill="white"/>
<path d="M11.3119 47.5078H10.0052L9.78844 49.6582H8.92125L9.13805 47.5078H7.64391L7.42711 49.6582H6.55992L6.77672 47.5078H5.52867V46.7461H6.85289L7.06383 44.6953H5.8275V43.9336H7.14L7.33922 42H8.19469L8.00133 43.9336H9.50133L9.70055 42H10.5677L10.3627 43.9336H11.6224V44.6953H10.2865L10.0814 46.7461H11.3119V47.5078ZM9.22008 46.7461L9.42516 44.6953H7.92516L7.72008 46.7461H9.22008Z" fill="white"/>
<path d="M17.1452 44.7363L16.7468 45.4336L15.1003 44.3438L15.2351 46.3477H14.3972L14.5261 44.3438L12.8445 45.4336L12.4753 44.748L14.2741 43.8633L12.4753 42.9609L12.8796 42.2754L14.5378 43.3828L14.3972 41.3789H15.2351L15.0886 43.3828L16.7468 42.2637L17.157 42.9844L15.3523 43.875L17.1452 44.7363Z" fill="white"/>
<path d="M39.7169 47.8125C39.8498 47.8125 39.9748 47.8379 40.0919 47.8887C40.213 47.9395 40.3166 48.0098 40.4025 48.0996C40.4923 48.1895 40.5627 48.2949 40.6134 48.416C40.6642 48.5332 40.6896 48.6602 40.6896 48.7969C40.6896 48.9297 40.6642 49.0547 40.6134 49.1719C40.5627 49.2891 40.4923 49.3926 40.4025 49.4824C40.3166 49.5684 40.213 49.6367 40.0919 49.6875C39.9748 49.7383 39.8498 49.7637 39.7169 49.7637C39.5802 49.7637 39.4533 49.7383 39.3361 49.6875C39.2189 49.6367 39.1154 49.5684 39.0255 49.4824C38.9396 49.3926 38.8712 49.2891 38.8205 49.1719C38.7697 49.0547 38.7443 48.9297 38.7443 48.7969C38.7443 48.6602 38.7697 48.5332 38.8205 48.416C38.8712 48.2949 38.9396 48.1895 39.0255 48.0996C39.1154 48.0098 39.2189 47.9395 39.3361 47.8887C39.4533 47.8379 39.5802 47.8125 39.7169 47.8125Z" fill="white"/>
<path d="M48.7378 47.5078H47.4312L47.2144 49.6582H46.3472L46.564 47.5078H45.0698L44.8531 49.6582H43.9859L44.2027 47.5078H42.9546V46.7461H44.2788L44.4898 44.6953H43.2534V43.9336H44.5659L44.7652 42H45.6206L45.4273 43.9336H46.9273L47.1265 42H47.9937L47.7886 43.9336H49.0484V44.6953H47.7124L47.5073 46.7461H48.7378V47.5078ZM46.646 46.7461L46.8511 44.6953H45.3511L45.146 46.7461H46.646Z" fill="white"/>
<path d="M54.9755 47.5078H53.6688L53.452 49.6582H52.5848L52.8016 47.5078H51.3075L51.0907 49.6582H50.2235L50.4403 47.5078H49.1923V46.7461H50.5165L50.7274 44.6953H49.4911V43.9336H50.8036L51.0028 42H51.8583L51.6649 43.9336H53.1649L53.3641 42H54.2313L54.0263 43.9336H55.286V44.6953H53.9501L53.745 46.7461H54.9755V47.5078ZM52.8837 46.7461L53.0888 44.6953H51.5888L51.3837 46.7461H52.8837Z" fill="white"/>
<path d="M61.2131 47.5078H59.9065L59.6897 49.6582H58.8225L59.0393 47.5078H57.5452L57.3284 49.6582H56.4612L56.678 47.5078H55.4299V46.7461H56.7541L56.9651 44.6953H55.7288V43.9336H57.0413L57.2405 42H58.0959L57.9026 43.9336H59.4026L59.6018 42H60.469L60.2639 43.9336H61.5237V44.6953H60.1877L59.9827 46.7461H61.2131V47.5078ZM59.1213 46.7461L59.3264 44.6953H57.8264L57.6213 46.7461H59.1213Z" fill="white"/>
<path d="M67.4508 47.5078H66.1441L65.9273 49.6582H65.0602L65.277 47.5078H63.7828L63.566 49.6582H62.6988L62.9156 47.5078H61.6676V46.7461H62.9918L63.2027 44.6953H61.9664V43.9336H63.2789L63.4781 42H64.3336L64.1402 43.9336H65.6402L65.8395 42H66.7066L66.5016 43.9336H67.7613V44.6953H66.4254L66.2203 46.7461H67.4508V47.5078ZM65.359 46.7461L65.5641 44.6953H64.0641L63.859 46.7461H65.359Z" fill="white"/>
<path d="M73.6884 47.5078H72.3818L72.165 49.6582H71.2978L71.5146 47.5078H70.0205L69.8037 49.6582H68.9365L69.1533 47.5078H67.9052V46.7461H69.2295L69.4404 44.6953H68.2041V43.9336H69.5166L69.7158 42H70.5713L70.3779 43.9336H71.8779L72.0771 42H72.9443L72.7392 43.9336H73.999V44.6953H72.663L72.458 46.7461H73.6884V47.5078ZM71.5966 46.7461L71.8017 44.6953H70.3017L70.0966 46.7461H71.5966Z" fill="white"/>
<path d="M77.1429 47.8125C77.2757 47.8125 77.4007 47.8379 77.5179 47.8887C77.639 47.9395 77.7425 48.0098 77.8284 48.0996C77.9183 48.1895 77.9886 48.2949 78.0394 48.416C78.0902 48.5332 78.1155 48.6602 78.1155 48.7969C78.1155 48.9297 78.0902 49.0547 78.0394 49.1719C77.9886 49.2891 77.9183 49.3926 77.8284 49.4824C77.7425 49.5684 77.639 49.6367 77.5179 49.6875C77.4007 49.7383 77.2757 49.7637 77.1429 49.7637C77.0062 49.7637 76.8792 49.7383 76.762 49.6875C76.6448 49.6367 76.5413 49.5684 76.4515 49.4824C76.3655 49.3926 76.2972 49.2891 76.2464 49.1719C76.1956 49.0547 76.1702 48.9297 76.1702 48.7969C76.1702 48.6602 76.1956 48.5332 76.2464 48.416C76.2972 48.2949 76.3655 48.1895 76.4515 48.0996C76.5413 48.0098 76.6448 47.9395 76.762 47.8887C76.8792 47.8379 77.0062 47.8125 77.1429 47.8125Z" fill="white"/>
<path d="M4.66992 58.7363L4.27148 59.4336L2.625 58.3438L2.75977 60.3477H1.92188L2.05078 58.3438L0.369141 59.4336L0 58.748L1.79883 57.8633L0 56.9609L0.404297 56.2754L2.0625 57.3828L1.92188 55.3789H2.75977L2.61328 57.3828L4.27148 56.2637L4.68164 56.9844L2.87695 57.875L4.66992 58.7363Z" fill="white"/>
<path d="M11.3119 61.5078H10.0052L9.78844 63.6582H8.92125L9.13805 61.5078H7.64391L7.42711 63.6582H6.55992L6.77672 61.5078H5.52867V60.7461H6.85289L7.06383 58.6953H5.8275V57.9336H7.14L7.33922 56H8.19469L8.00133 57.9336H9.50133L9.70055 56H10.5677L10.3627 57.9336H11.6224V58.6953H10.2865L10.0814 60.7461H11.3119V61.5078ZM9.22008 60.7461L9.42516 58.6953H7.92516L7.72008 60.7461H9.22008Z" fill="white"/>
<path d="M14.7663 61.8125C14.8991 61.8125 15.0241 61.8379 15.1413 61.8887C15.2624 61.9395 15.3659 62.0098 15.4519 62.0996C15.5417 62.1895 15.612 62.2949 15.6628 62.416C15.7136 62.5332 15.739 62.6602 15.739 62.7969C15.739 62.9297 15.7136 63.0547 15.6628 63.1719C15.612 63.2891 15.5417 63.3926 15.4519 63.4824C15.3659 63.5684 15.2624 63.6367 15.1413 63.6875C15.0241 63.7383 14.8991 63.7637 14.7663 63.7637C14.6296 63.7637 14.5027 63.7383 14.3855 63.6875C14.2683 63.6367 14.1648 63.5684 14.0749 63.4824C13.989 63.3926 13.9206 63.2891 13.8698 63.1719C13.8191 63.0547 13.7937 62.9297 13.7937 62.7969C13.7937 62.6602 13.8191 62.5332 13.8698 62.416C13.9206 62.2949 13.989 62.1895 14.0749 62.0996C14.1648 62.0098 14.2683 61.9395 14.3855 61.8887C14.5027 61.8379 14.6296 61.8125 14.7663 61.8125Z" fill="white"/>
<path d="M33.4793 61.8125C33.6121 61.8125 33.7371 61.8379 33.8543 61.8887C33.9754 61.9395 34.0789 62.0098 34.1648 62.0996C34.2547 62.1895 34.325 62.2949 34.3758 62.416C34.4266 62.5332 34.452 62.6602 34.452 62.7969C34.452 62.9297 34.4266 63.0547 34.3758 63.1719C34.325 63.2891 34.2547 63.3926 34.1648 63.4824C34.0789 63.5684 33.9754 63.6367 33.8543 63.6875C33.7371 63.7383 33.6121 63.7637 33.4793 63.7637C33.3426 63.7637 33.2156 63.7383 33.0984 63.6875C32.9812 63.6367 32.8777 63.5684 32.7879 63.4824C32.702 63.3926 32.6336 63.2891 32.5828 63.1719C32.532 63.0547 32.5066 62.9297 32.5066 62.7969C32.5066 62.6602 32.532 62.5332 32.5828 62.416C32.6336 62.2949 32.702 62.1895 32.7879 62.0996C32.8777 62.0098 32.9812 61.9395 33.0984 61.8887C33.2156 61.8379 33.3426 61.8125 33.4793 61.8125Z" fill="white"/>
<path d="M42.5002 61.5078H41.1935L40.9767 63.6582H40.1095L40.3263 61.5078H38.8322L38.6154 63.6582H37.7482L37.965 61.5078H36.7169V60.7461H38.0412L38.2521 58.6953H37.0158V57.9336H38.3283L38.5275 56H39.383L39.1896 57.9336H40.6896L40.8888 56H41.756L41.5509 57.9336H42.8107V58.6953H41.4748L41.2697 60.7461H42.5002V61.5078ZM40.4084 60.7461L40.6134 58.6953H39.1134L38.9084 60.7461H40.4084Z" fill="white"/>
<path d="M48.3335 58.7363L47.9351 59.4336L46.2886 58.3438L46.4234 60.3477H45.5855L45.7144 58.3438L44.0327 59.4336L43.6636 58.748L45.4624 57.8633L43.6636 56.9609L44.0679 56.2754L45.7261 57.3828L45.5855 55.3789H46.4234L46.2769 57.3828L47.9351 56.2637L48.3452 56.9844L46.5406 57.875L48.3335 58.7363Z" fill="white"/>
<path d="M64.6676 61.8125C64.8004 61.8125 64.9254 61.8379 65.0426 61.8887C65.1637 61.9395 65.2672 62.0098 65.3531 62.0996C65.443 62.1895 65.5133 62.2949 65.5641 62.416C65.6148 62.5332 65.6402 62.6602 65.6402 62.7969C65.6402 62.9297 65.6148 63.0547 65.5641 63.1719C65.5133 63.2891 65.443 63.3926 65.3531 63.4824C65.2672 63.5684 65.1637 63.6367 65.0426 63.6875C64.9254 63.7383 64.8004 63.7637 64.6676 63.7637C64.5309 63.7637 64.4039 63.7383 64.2867 63.6875C64.1695 63.6367 64.066 63.5684 63.9762 63.4824C63.8902 63.3926 63.8219 63.2891 63.7711 63.1719C63.7203 63.0547 63.6949 62.9297 63.6949 62.7969C63.6949 62.6602 63.7203 62.5332 63.7711 62.416C63.8219 62.2949 63.8902 62.1895 63.9762 62.0996C64.066 62.0098 64.1695 61.9395 64.2867 61.8887C64.4039 61.8379 64.5309 61.8125 64.6676 61.8125Z" fill="white"/>
<path d="M73.6884 61.5078H72.3818L72.165 63.6582H71.2978L71.5146 61.5078H70.0205L69.8037 63.6582H68.9365L69.1533 61.5078H67.9052V60.7461H69.2295L69.4404 58.6953H68.2041V57.9336H69.5166L69.7158 56H70.5713L70.3779 57.9336H71.8779L72.0771 56H72.9443L72.7392 57.9336H73.999V58.6953H72.663L72.458 60.7461H73.6884V61.5078ZM71.5966 60.7461L71.8017 58.6953H70.3017L70.0966 60.7461H71.5966Z" fill="white"/>
<path d="M79.9261 61.5078H78.6195L78.4027 63.6582H77.5355L77.7523 61.5078H76.2581L76.0413 63.6582H75.1741L75.3909 61.5078H74.1429V60.7461H75.4671L75.678 58.6953H74.4417V57.9336H75.7542L75.9534 56H76.8089L76.6155 57.9336H78.1155L78.3148 56H79.182L78.9769 57.9336H80.2366V58.6953H78.9007L78.6956 60.7461H79.9261V61.5078ZM77.8343 60.7461L78.0394 58.6953H76.5394L76.3343 60.7461H77.8343Z" fill="white"/>
<path d="M86.1637 61.5078H84.8571L84.6403 63.6582H83.7731L83.9899 61.5078H82.4958L82.279 63.6582H81.4118L81.6286 61.5078H80.3805V60.7461H81.7048L81.9157 58.6953H80.6794V57.9336H81.9919L82.1911 56H83.0466L82.8532 57.9336H84.3532L84.5524 56H85.4196L85.2145 57.9336H86.4743V58.6953H85.1384L84.9333 60.7461H86.1637V61.5078ZM84.072 60.7461L84.277 58.6953H82.777L82.572 60.7461H84.072Z" fill="white"/>
<path d="M92.4717 60.9102H90.169V63.3008H89.1612V60.9102H86.8584V60.0195H89.1612V57.6465H90.169V60.0195H92.4717V60.9102Z" fill="white"/>
<path d="M10.9076 72.7363L10.5091 73.4336L8.86266 72.3438L8.99742 74.3477H8.15953L8.28844 72.3438L6.6068 73.4336L6.23766 72.748L8.03648 71.8633L6.23766 70.9609L6.64195 70.2754L8.30016 71.3828L8.15953 69.3789H8.99742L8.85094 71.3828L10.5091 70.2637L10.9193 70.9844L9.11461 71.875L10.9076 72.7363Z" fill="white"/>
<path d="M17.5495 75.5078H16.2429L16.0261 77.6582H15.1589L15.3757 75.5078H13.8816L13.6648 77.6582H12.7976L13.0144 75.5078H11.7663V74.7461H13.0905L13.3015 72.6953H12.0652V71.9336H13.3777L13.5769 70H14.4323L14.239 71.9336H15.739L15.9382 70H16.8054L16.6003 71.9336H17.8601V72.6953H16.5241L16.3191 74.7461H17.5495V75.5078ZM15.4577 74.7461L15.6628 72.6953H14.1628L13.9577 74.7461H15.4577Z" fill="white"/>
<path d="M21.004 75.8125C21.1368 75.8125 21.2618 75.8379 21.379 75.8887C21.5001 75.9395 21.6036 76.0098 21.6895 76.0996C21.7794 76.1895 21.8497 76.2949 21.9005 76.416C21.9513 76.5332 21.9766 76.6602 21.9766 76.7969C21.9766 76.9297 21.9513 77.0547 21.9005 77.1719C21.8497 77.2891 21.7794 77.3926 21.6895 77.4824C21.6036 77.5684 21.5001 77.6367 21.379 77.6875C21.2618 77.7383 21.1368 77.7637 21.004 77.7637C20.8673 77.7637 20.7403 77.7383 20.6231 77.6875C20.5059 77.6367 20.4024 77.5684 20.3126 77.4824C20.2266 77.3926 20.1583 77.2891 20.1075 77.1719C20.0567 77.0547 20.0313 76.9297 20.0313 76.7969C20.0313 76.6602 20.0567 76.5332 20.1075 76.416C20.1583 76.2949 20.2266 76.1895 20.3126 76.0996C20.4024 76.0098 20.5059 75.9395 20.6231 75.8887C20.7403 75.8379 20.8673 75.8125 21.004 75.8125Z" fill="white"/>
<path d="M35.8582 72.7363L35.4598 73.4336L33.8133 72.3438L33.948 74.3477H33.1102L33.2391 72.3438L31.5574 73.4336L31.1883 72.748L32.9871 71.8633L31.1883 70.9609L31.5926 70.2754L33.2508 71.3828L33.1102 69.3789H33.948L33.8016 71.3828L35.4598 70.2637L35.8699 70.9844L34.0652 71.875L35.8582 72.7363Z" fill="white"/>
<path d="M42.5002 75.5078H41.1935L40.9767 77.6582H40.1095L40.3263 75.5078H38.8322L38.6154 77.6582H37.7482L37.965 75.5078H36.7169V74.7461H38.0412L38.2521 72.6953H37.0158V71.9336H38.3283L38.5275 70H39.383L39.1896 71.9336H40.6896L40.8888 70H41.756L41.5509 71.9336H42.8107V72.6953H41.4748L41.2697 74.7461H42.5002V75.5078ZM40.4084 74.7461L40.6134 72.6953H39.1134L38.9084 74.7461H40.4084Z" fill="white"/>
<path d="M48.7378 75.5078H47.4312L47.2144 77.6582H46.3472L46.564 75.5078H45.0698L44.8531 77.6582H43.9859L44.2027 75.5078H42.9546V74.7461H44.2788L44.4898 72.6953H43.2534V71.9336H44.5659L44.7652 70H45.6206L45.4273 71.9336H46.9273L47.1265 70H47.9937L47.7886 71.9336H49.0484V72.6953H47.7124L47.5073 74.7461H48.7378V75.5078ZM46.646 74.7461L46.8511 72.6953H45.3511L45.146 74.7461H46.646Z" fill="white"/>
<path d="M54.9755 75.5078H53.6688L53.452 77.6582H52.5848L52.8016 75.5078H51.3075L51.0907 77.6582H50.2235L50.4403 75.5078H49.1923V74.7461H50.5165L50.7274 72.6953H49.4911V71.9336H50.8036L51.0028 70H51.8583L51.6649 71.9336H53.1649L53.3641 70H54.2313L54.0263 71.9336H55.286V72.6953H53.9501L53.745 74.7461H54.9755V75.5078ZM52.8837 74.7461L53.0888 72.6953H51.5888L51.3837 74.7461H52.8837Z" fill="white"/>
<path d="M61.2131 75.5078H59.9065L59.6897 77.6582H58.8225L59.0393 75.5078H57.5452L57.3284 77.6582H56.4612L56.678 75.5078H55.4299V74.7461H56.7541L56.9651 72.6953H55.7288V71.9336H57.0413L57.2405 70H58.0959L57.9026 71.9336H59.4026L59.6018 70H60.469L60.2639 71.9336H61.5237V72.6953H60.1877L59.9827 74.7461H61.2131V75.5078ZM59.1213 74.7461L59.3264 72.6953H57.8264L57.6213 74.7461H59.1213Z" fill="white"/>
<path d="M67.4508 75.5078H66.1441L65.9273 77.6582H65.0602L65.277 75.5078H63.7828L63.566 77.6582H62.6988L62.9156 75.5078H61.6676V74.7461H62.9918L63.2027 72.6953H61.9664V71.9336H63.2789L63.4781 70H64.3336L64.1402 71.9336H65.6402L65.8395 70H66.7066L66.5016 71.9336H67.7613V72.6953H66.4254L66.2203 74.7461H67.4508V75.5078ZM65.359 74.7461L65.5641 72.6953H64.0641L63.859 74.7461H65.359Z" fill="white"/>
<path d="M73.2841 72.7363L72.8857 73.4336L71.2392 72.3438L71.374 74.3477H70.5361L70.665 72.3438L68.9834 73.4336L68.6142 72.748L70.413 71.8633L68.6142 70.9609L69.0185 70.2754L70.6767 71.3828L70.5361 69.3789H71.374L71.2275 71.3828L72.8857 70.2637L73.2959 70.9844L71.4912 71.875L73.2841 72.7363Z" fill="white"/>
<path d="M85.1794 74.9453H81.6755V73.9844H85.1794V74.9453Z" fill="white"/>
<path d="M92.4014 75.5078H91.0948L90.878 77.6582H90.0108L90.2276 75.5078H88.7334L88.5166 77.6582H87.6495L87.8662 75.5078H86.6182V74.7461H87.9424L88.1534 72.6953H86.917V71.9336H88.2295L88.4287 70H89.2842L89.0909 71.9336H90.5909L90.7901 70H91.6573L91.4522 71.9336H92.712V72.6953H91.376L91.1709 74.7461H92.4014V75.5078ZM90.3096 74.7461L90.5147 72.6953H89.0147L88.8096 74.7461H90.3096Z" fill="white"/>
<path d="M95.8559 75.8125C95.9887 75.8125 96.1137 75.8379 96.2309 75.8887C96.352 75.9395 96.4555 76.0098 96.5414 76.0996C96.6312 76.1895 96.7016 76.2949 96.7523 76.416C96.8031 76.5332 96.8285 76.6602 96.8285 76.7969C96.8285 76.9297 96.8031 77.0547 96.7523 77.1719C96.7016 77.2891 96.6312 77.3926 96.5414 77.4824C96.4555 77.5684 96.352 77.6367 96.2309 77.6875C96.1137 77.7383 95.9887 77.7637 95.8559 77.7637C95.7191 77.7637 95.5922 77.7383 95.475 77.6875C95.3578 77.6367 95.2543 77.5684 95.1645 77.4824C95.0785 77.3926 95.0102 77.2891 94.9594 77.1719C94.9086 77.0547 94.8832 76.9297 94.8832 76.7969C94.8832 76.6602 94.9086 76.5332 94.9594 76.416C95.0102 76.2949 95.0785 76.1895 95.1645 76.0996C95.2543 76.0098 95.3578 75.9395 95.475 75.8887C95.5922 75.8379 95.7191 75.8125 95.8559 75.8125Z" fill="white"/>
<path d="M17.1452 86.7363L16.7468 87.4336L15.1003 86.3438L15.2351 88.3477H14.3972L14.5261 86.3438L12.8445 87.4336L12.4753 86.748L14.2741 85.8633L12.4753 84.9609L12.8796 84.2754L14.5378 85.3828L14.3972 83.3789H15.2351L15.0886 85.3828L16.7468 84.2637L17.157 84.9844L15.3523 85.875L17.1452 86.7363Z" fill="white"/>
<path d="M23.7872 89.5078H22.4805L22.2638 91.6582H21.3966L21.6134 89.5078H20.1192L19.9024 91.6582H19.0352L19.252 89.5078H18.004V88.7461H19.3282L19.5391 86.6953H18.3028V85.9336H19.6153L19.8145 84H20.67L20.4766 85.9336H21.9766L22.1759 84H23.043L22.838 85.9336H24.0977V86.6953H22.7618L22.5567 88.7461H23.7872V89.5078ZM21.6954 88.7461L21.9005 86.6953H20.4005L20.1954 88.7461H21.6954Z" fill="white"/>
<path d="M30.0248 89.5078H28.7182L28.5014 91.6582H27.6342L27.851 89.5078H26.3569L26.1401 91.6582H25.2729L25.4897 89.5078H24.2416V88.7461H25.5659L25.7768 86.6953H24.5405V85.9336H25.853L26.0522 84H26.9077L26.7143 85.9336H28.2143L28.4135 84H29.2807L29.0756 85.9336H30.3354V86.6953H28.9995L28.7944 88.7461H30.0248V89.5078ZM27.933 88.7461L28.1381 86.6953H26.6381L26.433 88.7461H27.933Z" fill="white"/>
<path d="M33.4793 89.8125C33.6121 89.8125 33.7371 89.8379 33.8543 89.8887C33.9754 89.9395 34.0789 90.0098 34.1648 90.0996C34.2547 90.1895 34.325 90.2949 34.3758 90.416C34.4266 90.5332 34.452 90.6602 34.452 90.7969C34.452 90.9297 34.4266 91.0547 34.3758 91.1719C34.325 91.2891 34.2547 91.3926 34.1648 91.4824C34.0789 91.5684 33.9754 91.6367 33.8543 91.6875C33.7371 91.7383 33.6121 91.7637 33.4793 91.7637C33.3426 91.7637 33.2156 91.7383 33.0984 91.6875C32.9812 91.6367 32.8777 91.5684 32.7879 91.4824C32.702 91.3926 32.6336 91.2891 32.5828 91.1719C32.532 91.0547 32.5066 90.9297 32.5066 90.7969C32.5066 90.6602 32.532 90.5332 32.5828 90.416C32.6336 90.2949 32.702 90.1895 32.7879 90.0996C32.8777 90.0098 32.9812 89.9395 33.0984 89.8887C33.2156 89.8379 33.3426 89.8125 33.4793 89.8125Z" fill="white"/>
<path d="M39.7169 89.8125C39.8498 89.8125 39.9748 89.8379 40.0919 89.8887C40.213 89.9395 40.3166 90.0098 40.4025 90.0996C40.4923 90.1895 40.5627 90.2949 40.6134 90.416C40.6642 90.5332 40.6896 90.6602 40.6896 90.7969C40.6896 90.9297 40.6642 91.0547 40.6134 91.1719C40.5627 91.2891 40.4923 91.3926 40.4025 91.4824C40.3166 91.5684 40.213 91.6367 40.0919 91.6875C39.9748 91.7383 39.8498 91.7637 39.7169 91.7637C39.5802 91.7637 39.4533 91.7383 39.3361 91.6875C39.2189 91.6367 39.1154 91.5684 39.0255 91.4824C38.9396 91.3926 38.8712 91.2891 38.8205 91.1719C38.7697 91.0547 38.7443 90.9297 38.7443 90.7969C38.7443 90.6602 38.7697 90.5332 38.8205 90.416C38.8712 90.2949 38.9396 90.1895 39.0255 90.0996C39.1154 90.0098 39.2189 89.9395 39.3361 89.8887C39.4533 89.8379 39.5802 89.8125 39.7169 89.8125Z" fill="white"/>
<path d="M45.9546 89.8125C46.0874 89.8125 46.2124 89.8379 46.3296 89.8887C46.4507 89.9395 46.5542 90.0098 46.6402 90.0996C46.73 90.1895 46.8003 90.2949 46.8511 90.416C46.9019 90.5332 46.9273 90.6602 46.9273 90.7969C46.9273 90.9297 46.9019 91.0547 46.8511 91.1719C46.8003 91.2891 46.73 91.3926 46.6402 91.4824C46.5542 91.5684 46.4507 91.6367 46.3296 91.6875C46.2124 91.7383 46.0874 91.7637 45.9546 91.7637C45.8179 91.7637 45.6909 91.7383 45.5738 91.6875C45.4566 91.6367 45.3531 91.5684 45.2632 91.4824C45.1773 91.3926 45.1089 91.2891 45.0581 91.1719C45.0073 91.0547 44.982 90.9297 44.982 90.7969C44.982 90.6602 45.0073 90.5332 45.0581 90.416C45.1089 90.2949 45.1773 90.1895 45.2632 90.0996C45.3531 90.0098 45.4566 89.9395 45.5738 89.8887C45.6909 89.8379 45.8179 89.8125 45.9546 89.8125Z" fill="white"/>
<path d="M58.4299 89.8125C58.5627 89.8125 58.6877 89.8379 58.8049 89.8887C58.926 89.9395 59.0295 90.0098 59.1155 90.0996C59.2053 90.1895 59.2756 90.2949 59.3264 90.416C59.3772 90.5332 59.4026 90.6602 59.4026 90.7969C59.4026 90.9297 59.3772 91.0547 59.3264 91.1719C59.2756 91.2891 59.2053 91.3926 59.1155 91.4824C59.0295 91.5684 58.926 91.6367 58.8049 91.6875C58.6877 91.7383 58.5627 91.7637 58.4299 91.7637C58.2932 91.7637 58.1663 91.7383 58.0491 91.6875C57.9319 91.6367 57.8284 91.5684 57.7385 91.4824C57.6526 91.3926 57.5842 91.2891 57.5334 91.1719C57.4827 91.0547 57.4573 90.9297 57.4573 90.7969C57.4573 90.6602 57.4827 90.5332 57.5334 90.416C57.5842 90.2949 57.6526 90.1895 57.7385 90.0996C57.8284 90.0098 57.9319 89.9395 58.0491 89.8887C58.1663 89.8379 58.2932 89.8125 58.4299 89.8125Z" fill="white"/>
<path d="M64.6676 89.8125C64.8004 89.8125 64.9254 89.8379 65.0426 89.8887C65.1637 89.9395 65.2672 90.0098 65.3531 90.0996C65.443 90.1895 65.5133 90.2949 65.5641 90.416C65.6148 90.5332 65.6402 90.6602 65.6402 90.7969C65.6402 90.9297 65.6148 91.0547 65.5641 91.1719C65.5133 91.2891 65.443 91.3926 65.3531 91.4824C65.2672 91.5684 65.1637 91.6367 65.0426 91.6875C64.9254 91.7383 64.8004 91.7637 64.6676 91.7637C64.5309 91.7637 64.4039 91.7383 64.2867 91.6875C64.1695 91.6367 64.066 91.5684 63.9762 91.4824C63.8902 91.3926 63.8219 91.2891 63.7711 91.1719C63.7203 91.0547 63.6949 90.9297 63.6949 90.7969C63.6949 90.6602 63.7203 90.5332 63.7711 90.416C63.8219 90.2949 63.8902 90.1895 63.9762 90.0996C64.066 90.0098 64.1695 89.9395 64.2867 89.8887C64.4039 89.8379 64.5309 89.8125 64.6676 89.8125Z" fill="white"/>
<path d="M70.9052 89.8125C71.038 89.8125 71.163 89.8379 71.2802 89.8887C71.4013 89.9395 71.5048 90.0098 71.5908 90.0996C71.6806 90.1895 71.7509 90.2949 71.8017 90.416C71.8525 90.5332 71.8779 90.6602 71.8779 90.7969C71.8779 90.9297 71.8525 91.0547 71.8017 91.1719C71.7509 91.2891 71.6806 91.3926 71.5908 91.4824C71.5048 91.5684 71.4013 91.6367 71.2802 91.6875C71.163 91.7383 71.038 91.7637 70.9052 91.7637C70.7685 91.7637 70.6416 91.7383 70.5244 91.6875C70.4072 91.6367 70.3037 91.5684 70.2138 91.4824C70.1279 91.3926 70.0595 91.2891 70.0088 91.1719C69.958 91.0547 69.9326 90.9297 69.9326 90.7969C69.9326 90.6602 69.958 90.5332 70.0088 90.416C70.0595 90.2949 70.1279 90.1895 70.2138 90.0996C70.3037 90.0098 70.4072 89.9395 70.5244 89.8887C70.6416 89.8379 70.7685 89.8125 70.9052 89.8125Z" fill="white"/>
<path d="M79.9261 89.5078H78.6195L78.4027 91.6582H77.5355L77.7523 89.5078H76.2581L76.0413 91.6582H75.1741L75.3909 89.5078H74.1429V88.7461H75.4671L75.678 86.6953H74.4417V85.9336H75.7542L75.9534 84H76.8089L76.6155 85.9336H78.1155L78.3148 84H79.182L78.9769 85.9336H80.2366V86.6953H78.9007L78.6956 88.7461H79.9261V89.5078ZM77.8343 88.7461L78.0394 86.6953H76.5394L76.3343 88.7461H77.8343Z" fill="white"/>
<path d="M86.1637 89.5078H84.8571L84.6403 91.6582H83.7731L83.9899 89.5078H82.4958L82.279 91.6582H81.4118L81.6286 89.5078H80.3805V88.7461H81.7048L81.9157 86.6953H80.6794V85.9336H81.9919L82.1911 84H83.0466L82.8532 85.9336H84.3532L84.5524 84H85.4196L85.2145 85.9336H86.4743V86.6953H85.1384L84.9333 88.7461H86.1637V89.5078ZM84.072 88.7461L84.277 86.6953H82.777L82.572 88.7461H84.072Z" fill="white"/>
<path d="M89.6182 89.8125C89.751 89.8125 89.876 89.8379 89.9932 89.8887C90.1143 89.9395 90.2178 90.0098 90.3037 90.0996C90.3936 90.1895 90.4639 90.2949 90.5147 90.416C90.5655 90.5332 90.5909 90.6602 90.5909 90.7969C90.5909 90.9297 90.5655 91.0547 90.5147 91.1719C90.4639 91.2891 90.3936 91.3926 90.3037 91.4824C90.2178 91.5684 90.1143 91.6367 89.9932 91.6875C89.876 91.7383 89.751 91.7637 89.6182 91.7637C89.4815 91.7637 89.3545 91.7383 89.2373 91.6875C89.1202 91.6367 89.0166 91.5684 88.9268 91.4824C88.8409 91.3926 88.7725 91.2891 88.7217 91.1719C88.6709 91.0547 88.6455 90.9297 88.6455 90.7969C88.6455 90.6602 88.6709 90.5332 88.7217 90.416C88.7725 90.2949 88.8409 90.1895 88.9268 90.0996C89.0166 90.0098 89.1202 89.9395 89.2373 89.8887C89.3545 89.8379 89.4815 89.8125 89.6182 89.8125Z" fill="white"/>
<path d="M35.8582 100.736L35.4598 101.434L33.8133 100.344L33.948 102.348H33.1102L33.2391 100.344L31.5574 101.434L31.1883 100.748L32.9871 99.8633L31.1883 98.9609L31.5926 98.2754L33.2508 99.3828L33.1102 97.3789H33.948L33.8016 99.3828L35.4598 98.2637L35.8699 98.9844L34.0652 99.875L35.8582 100.736Z" fill="white"/>
<path d="M42.0959 100.736L41.6974 101.434L40.0509 100.344L40.1857 102.348H39.3478L39.4767 100.344L37.7951 101.434L37.4259 100.748L39.2248 99.8633L37.4259 98.9609L37.8302 98.2754L39.4884 99.3828L39.3478 97.3789H40.1857L40.0392 99.3828L41.6974 98.2637L42.1076 98.9844L40.3029 99.875L42.0959 100.736Z" fill="white"/>
<path d="M48.7378 103.508H47.4312L47.2144 105.658H46.3472L46.564 103.508H45.0698L44.8531 105.658H43.9859L44.2027 103.508H42.9546V102.746H44.2788L44.4898 100.695H43.2534V99.9336H44.5659L44.7652 98H45.6206L45.4273 99.9336H46.9273L47.1265 98H47.9937L47.7886 99.9336H49.0484V100.695H47.7124L47.5073 102.746H48.7378V103.508ZM46.646 102.746L46.8511 100.695H45.3511L45.146 102.746H46.646Z" fill="white"/>
<path d="M54.9755 103.508H53.6688L53.452 105.658H52.5848L52.8016 103.508H51.3075L51.0907 105.658H50.2235L50.4403 103.508H49.1923V102.746H50.5165L50.7274 100.695H49.4911V99.9336H50.8036L51.0028 98H51.8583L51.6649 99.9336H53.1649L53.3641 98H54.2313L54.0263 99.9336H55.286V100.695H53.9501L53.745 102.746H54.9755V103.508ZM52.8837 102.746L53.0888 100.695H51.5888L51.3837 102.746H52.8837Z" fill="white"/>
<path d="M61.2131 103.508H59.9065L59.6897 105.658H58.8225L59.0393 103.508H57.5452L57.3284 105.658H56.4612L56.678 103.508H55.4299V102.746H56.7541L56.9651 100.695H55.7288V99.9336H57.0413L57.2405 98H58.0959L57.9026 99.9336H59.4026L59.6018 98H60.469L60.2639 99.9336H61.5237V100.695H60.1877L59.9827 102.746H61.2131V103.508ZM59.1213 102.746L59.3264 100.695H57.8264L57.6213 102.746H59.1213Z" fill="white"/>
<path d="M67.4508 103.508H66.1441L65.9273 105.658H65.0602L65.277 103.508H63.7828L63.566 105.658H62.6988L62.9156 103.508H61.6676V102.746H62.9918L63.2027 100.695H61.9664V99.9336H63.2789L63.4781 98H64.3336L64.1402 99.9336H65.6402L65.8395 98H66.7066L66.5016 99.9336H67.7613V100.695H66.4254L66.2203 102.746H67.4508V103.508ZM65.359 102.746L65.5641 100.695H64.0641L63.859 102.746H65.359Z" fill="white"/>
<path d="M73.2841 100.736L72.8857 101.434L71.2392 100.344L71.374 102.348H70.5361L70.665 100.344L68.9834 101.434L68.6142 100.748L70.413 99.8633L68.6142 98.9609L69.0185 98.2754L70.6767 99.3828L70.5361 97.3789H71.374L71.2275 99.3828L72.8857 98.2637L73.2959 98.9844L71.4912 99.875L73.2841 100.736Z" fill="white"/>
<path d="M79.5218 100.736L79.1234 101.434L77.4769 100.344L77.6116 102.348H76.7738L76.9027 100.344L75.221 101.434L74.8519 100.748L76.6507 99.8633L74.8519 98.9609L75.2562 98.2754L76.9144 99.3828L76.7738 97.3789H77.6116L77.4652 99.3828L79.1234 98.2637L79.5335 98.9844L77.7288 99.875L79.5218 100.736Z" fill="white"/>
</svg>
