<svg width="86" height="80" viewBox="0 0 86 80" fill="none" xmlns="http://www.w3.org/2000/svg">
<path d="M5.63086 4.07812L5.23242 4.77539L3.58594 3.68555L3.7207 5.68945H2.88281L3.01172 3.68555L1.33008 4.77539L0.960938 4.08984L2.75977 3.20508L0.960938 2.30273L1.36523 1.61719L3.02344 2.72461L2.88281 0.720703H3.7207L3.57422 2.72461L5.23242 1.60547L5.64258 2.32617L3.83789 3.2168L5.63086 4.07812Z" fill="white"/>
<path d="M12.2728 6.84961H10.9662L10.7494 9H9.88219L10.099 6.84961H8.60484L8.38805 9H7.52086L7.73766 6.84961H6.48961V6.08789H7.81383L8.02477 4.03711H6.78844V3.27539H8.10094L8.30016 1.3418H9.15562L8.96227 3.27539H10.4623L10.6615 1.3418H11.5287L11.3236 3.27539H12.5834V4.03711H11.2474L11.0423 6.08789H12.2728V6.84961ZM10.181 6.08789L10.3861 4.03711H8.88609L8.68102 6.08789H10.181Z" fill="white"/>
<path d="M18.5105 6.84961H17.2038L16.987 9H16.1198L16.3366 6.84961H14.8425L14.6257 9H13.7585L13.9753 6.84961H12.7273V6.08789H14.0515L14.2624 4.03711H13.0261V3.27539H14.3386L14.5378 1.3418H15.3933L15.1999 3.27539H16.6999L16.8991 1.3418H17.7663L17.5612 3.27539H18.821V4.03711H17.4851L17.28 6.08789H18.5105V6.84961ZM16.4187 6.08789L16.6237 4.03711H15.1237L14.9187 6.08789H16.4187Z" fill="white"/>
<path d="M24.7481 6.84961H23.4415L23.2247 9H22.3575L22.5743 6.84961H21.0802L20.8634 9H19.9962L20.213 6.84961H18.9649V6.08789H20.2891L20.5001 4.03711H19.2638V3.27539H20.5763L20.7755 1.3418H21.6309L21.4376 3.27539H22.9376L23.1368 1.3418H24.004L23.7989 3.27539H25.0587V4.03711H23.7227L23.5177 6.08789H24.7481V6.84961ZM22.6563 6.08789L22.8614 4.03711H21.3614L21.1563 6.08789H22.6563Z" fill="white"/>
<path d="M30.9858 6.84961H29.6791L29.4623 9H28.5952L28.812 6.84961H27.3178L27.101 9H26.2338L26.4506 6.84961H25.2026V6.08789H26.5268L26.7377 4.03711H25.5014V3.27539H26.8139L27.0131 1.3418H27.8686L27.6752 3.27539H29.1752L29.3745 1.3418H30.2416L30.0366 3.27539H31.2963V4.03711H29.9604L29.7553 6.08789H30.9858V6.84961ZM28.894 6.08789L29.0991 4.03711H27.5991L27.394 6.08789H28.894Z" fill="white"/>
<path d="M34.4402 7.1543C34.573 7.1543 34.698 7.17969 34.8152 7.23047C34.9363 7.28125 35.0398 7.35156 35.1258 7.44141C35.2156 7.53125 35.2859 7.63672 35.3367 7.75781C35.3875 7.875 35.4129 8.00195 35.4129 8.13867C35.4129 8.27148 35.3875 8.39648 35.3367 8.51367C35.2859 8.63086 35.2156 8.73438 35.1258 8.82422C35.0398 8.91016 34.9363 8.97852 34.8152 9.0293C34.698 9.08008 34.573 9.10547 34.4402 9.10547C34.3035 9.10547 34.1766 9.08008 34.0594 9.0293C33.9422 8.97852 33.8387 8.91016 33.7488 8.82422C33.6629 8.73438 33.5945 8.63086 33.5438 8.51367C33.493 8.39648 33.4676 8.27148 33.4676 8.13867C33.4676 8.00195 33.493 7.875 33.5438 7.75781C33.5945 7.63672 33.6629 7.53125 33.7488 7.44141C33.8387 7.35156 33.9422 7.28125 34.0594 7.23047C34.1766 7.17969 34.3035 7.1543 34.4402 7.1543Z" fill="white"/>
<path d="M59.3909 7.1543C59.5237 7.1543 59.6487 7.17969 59.7659 7.23047C59.887 7.28125 59.9905 7.35156 60.0764 7.44141C60.1662 7.53125 60.2366 7.63672 60.2873 7.75781C60.3381 7.875 60.3635 8.00195 60.3635 8.13867C60.3635 8.27148 60.3381 8.39648 60.2873 8.51367C60.2366 8.63086 60.1662 8.73438 60.0764 8.82422C59.9905 8.91016 59.887 8.97852 59.7659 9.0293C59.6487 9.08008 59.5237 9.10547 59.3909 9.10547C59.2541 9.10547 59.1272 9.08008 59.01 9.0293C58.8928 8.97852 58.7893 8.91016 58.6995 8.82422C58.6135 8.73438 58.5452 8.63086 58.4944 8.51367C58.4436 8.39648 58.4182 8.27148 58.4182 8.13867C58.4182 8.00195 58.4436 7.875 58.4944 7.75781C58.5452 7.63672 58.6135 7.53125 58.6995 7.44141C58.7893 7.35156 58.8928 7.28125 59.01 7.23047C59.1272 7.17969 59.2541 7.1543 59.3909 7.1543Z" fill="white"/>
<path d="M68.4117 6.84961H67.1051L66.8883 9H66.0211L66.2379 6.84961H64.7438L64.527 9H63.6598L63.8766 6.84961H62.6285V6.08789H63.9527L64.1637 4.03711H62.9273V3.27539H64.2398L64.4391 1.3418H65.2945L65.1012 3.27539H66.6012L66.8004 1.3418H67.6676L67.4625 3.27539H68.7223V4.03711H67.3863L67.1813 6.08789H68.4117V6.84961ZM66.3199 6.08789L66.525 4.03711H65.025L64.8199 6.08789H66.3199Z" fill="white"/>
<path d="M74.6494 6.84961H73.3427L73.1259 9H72.2588L72.4755 6.84961H70.9814L70.7646 9H69.8974L70.1142 6.84961H68.8662V6.08789H70.1904L70.4013 4.03711H69.165V3.27539H70.4775L70.6767 1.3418H71.5322L71.3388 3.27539H72.8388L73.038 1.3418H73.9052L73.7002 3.27539H74.9599V4.03711H73.624L73.4189 6.08789H74.6494V6.84961ZM72.5576 6.08789L72.7627 4.03711H71.2627L71.0576 6.08789H72.5576Z" fill="white"/>
<path d="M80.4827 4.07812L80.0843 4.77539L78.4378 3.68555L78.5726 5.68945H77.7347L77.8636 3.68555L76.182 4.77539L75.8128 4.08984L77.6116 3.20508L75.8128 2.30273L76.2171 1.61719L77.8753 2.72461L77.7347 0.720703H78.5726L78.4261 2.72461L80.0843 1.60547L80.4945 2.32617L78.6898 3.2168L80.4827 4.07812Z" fill="white"/>
<path d="M11.8685 18.0781L11.4701 18.7754L9.82359 17.6855L9.95836 19.6895H9.12047L9.24937 17.6855L7.56773 18.7754L7.19859 18.0898L8.99742 17.2051L7.19859 16.3027L7.60289 15.6172L9.26109 16.7246L9.12047 14.7207H9.95836L9.81187 16.7246L11.4701 15.6055L11.8802 16.3262L10.0755 17.2168L11.8685 18.0781Z" fill="white"/>
<path d="M18.5105 20.8496H17.2038L16.987 23H16.1198L16.3366 20.8496H14.8425L14.6257 23H13.7585L13.9753 20.8496H12.7273V20.0879H14.0515L14.2624 18.0371H13.0261V17.2754H14.3386L14.5378 15.3418H15.3933L15.1999 17.2754H16.6999L16.8991 15.3418H17.7663L17.5612 17.2754H18.821V18.0371H17.4851L17.28 20.0879H18.5105V20.8496ZM16.4187 20.0879L16.6237 18.0371H15.1237L14.9187 20.0879H16.4187Z" fill="white"/>
<path d="M21.9649 21.1543C22.0977 21.1543 22.2227 21.1797 22.3399 21.2305C22.461 21.2812 22.5645 21.3516 22.6505 21.4414C22.7403 21.5312 22.8106 21.6367 22.8614 21.7578C22.9122 21.875 22.9376 22.002 22.9376 22.1387C22.9376 22.2715 22.9122 22.3965 22.8614 22.5137C22.8106 22.6309 22.7403 22.7344 22.6505 22.8242C22.5645 22.9102 22.461 22.9785 22.3399 23.0293C22.2227 23.0801 22.0977 23.1055 21.9649 23.1055C21.8282 23.1055 21.7013 23.0801 21.5841 23.0293C21.4669 22.9785 21.3634 22.9102 21.2735 22.8242C21.1876 22.7344 21.1192 22.6309 21.0684 22.5137C21.0177 22.3965 20.9923 22.2715 20.9923 22.1387C20.9923 22.002 21.0177 21.875 21.0684 21.7578C21.1192 21.6367 21.1876 21.5312 21.2735 21.4414C21.3634 21.3516 21.4669 21.2812 21.5841 21.2305C21.7013 21.1797 21.8282 21.1543 21.9649 21.1543Z" fill="white"/>
<path d="M36.8191 18.0781L36.4207 18.7754L34.7742 17.6855L34.909 19.6895H34.0711L34.2 17.6855L32.5184 18.7754L32.1492 18.0898L33.948 17.2051L32.1492 16.3027L32.5535 15.6172L34.2117 16.7246L34.0711 14.7207H34.909L34.7625 16.7246L36.4207 15.6055L36.8309 16.3262L35.0262 17.2168L36.8191 18.0781Z" fill="white"/>
<path d="M43.4611 20.8496H42.1545L41.9377 23H41.0705L41.2873 20.8496H39.7931L39.5763 23H38.7091L38.9259 20.8496H37.6779V20.0879H39.0021L39.213 18.0371H37.9767V17.2754H39.2892L39.4884 15.3418H40.3439L40.1505 17.2754H41.6505L41.8498 15.3418H42.717L42.5119 17.2754H43.7716V18.0371H42.4357L42.2306 20.0879H43.4611V20.8496ZM41.3693 20.0879L41.5744 18.0371H40.0744L39.8693 20.0879H41.3693Z" fill="white"/>
<path d="M46.9155 21.1543C47.0484 21.1543 47.1734 21.1797 47.2905 21.2305C47.4116 21.2812 47.5152 21.3516 47.6011 21.4414C47.6909 21.5312 47.7612 21.6367 47.812 21.7578C47.8628 21.875 47.8882 22.002 47.8882 22.1387C47.8882 22.2715 47.8628 22.3965 47.812 22.5137C47.7612 22.6309 47.6909 22.7344 47.6011 22.8242C47.5152 22.9102 47.4116 22.9785 47.2905 23.0293C47.1734 23.0801 47.0484 23.1055 46.9155 23.1055C46.7788 23.1055 46.6519 23.0801 46.5347 23.0293C46.4175 22.9785 46.314 22.9102 46.2241 22.8242C46.1382 22.7344 46.0698 22.6309 46.0191 22.5137C45.9683 22.3965 45.9429 22.2715 45.9429 22.1387C45.9429 22.002 45.9683 21.875 46.0191 21.7578C46.0698 21.6367 46.1382 21.5312 46.2241 21.4414C46.314 21.3516 46.4175 21.2812 46.5347 21.2305C46.6519 21.1797 46.7788 21.1543 46.9155 21.1543Z" fill="white"/>
<path d="M55.9364 20.8496H54.6298L54.413 23H53.5458L53.7626 20.8496H52.2684L52.0516 23H51.1845L51.4012 20.8496H50.1532V20.0879H51.4774L51.6884 18.0371H50.452V17.2754H51.7645L51.9637 15.3418H52.8192L52.6259 17.2754H54.1259L54.3251 15.3418H55.1923L54.9872 17.2754H56.247V18.0371H54.911L54.7059 20.0879H55.9364V20.8496ZM53.8446 20.0879L54.0497 18.0371H52.5497L52.3446 20.0879H53.8446Z" fill="white"/>
<path d="M62.1741 20.8496H60.8674L60.6506 23H59.7834L60.0002 20.8496H58.5061L58.2893 23H57.4221L57.6389 20.8496H56.3909V20.0879H57.7151L57.926 18.0371H56.6897V17.2754H58.0022L58.2014 15.3418H59.0569L58.8635 17.2754H60.3635L60.5627 15.3418H61.4299L61.2248 17.2754H62.4846V18.0371H61.1487L60.9436 20.0879H62.1741V20.8496ZM60.0823 20.0879L60.2873 18.0371H58.7873L58.5823 20.0879H60.0823Z" fill="white"/>
<path d="M68.0074 18.0781L67.609 18.7754L65.9625 17.6855L66.0973 19.6895H65.2594L65.3883 17.6855L63.7066 18.7754L63.3375 18.0898L65.1363 17.2051L63.3375 16.3027L63.7418 15.6172L65.4 16.7246L65.2594 14.7207H66.0973L65.9508 16.7246L67.609 15.6055L68.0191 16.3262L66.2145 17.2168L68.0074 18.0781Z" fill="white"/>
<path d="M24.3438 32.0781L23.9454 32.7754L22.2989 31.6855L22.4337 33.6895H21.5958L21.7247 31.6855L20.043 32.7754L19.6739 32.0898L21.4727 31.2051L19.6739 30.3027L20.0782 29.6172L21.7364 30.7246L21.5958 28.7207H22.4337L22.2872 30.7246L23.9454 29.6055L24.3555 30.3262L22.5509 31.2168L24.3438 32.0781Z" fill="white"/>
<path d="M30.9858 34.8496H29.6791L29.4623 37H28.5952L28.812 34.8496H27.3178L27.101 37H26.2338L26.4506 34.8496H25.2026V34.0879H26.5268L26.7377 32.0371H25.5014V31.2754H26.8139L27.0131 29.3418H27.8686L27.6752 31.2754H29.1752L29.3745 29.3418H30.2416L30.0366 31.2754H31.2963V32.0371H29.9604L29.7553 34.0879H30.9858V34.8496ZM28.894 34.0879L29.0991 32.0371H27.5991L27.394 34.0879H28.894Z" fill="white"/>
<path d="M34.4402 35.1543C34.573 35.1543 34.698 35.1797 34.8152 35.2305C34.9363 35.2812 35.0398 35.3516 35.1258 35.4414C35.2156 35.5312 35.2859 35.6367 35.3367 35.7578C35.3875 35.875 35.4129 36.002 35.4129 36.1387C35.4129 36.2715 35.3875 36.3965 35.3367 36.5137C35.2859 36.6309 35.2156 36.7344 35.1258 36.8242C35.0398 36.9102 34.9363 36.9785 34.8152 37.0293C34.698 37.0801 34.573 37.1055 34.4402 37.1055C34.3035 37.1055 34.1766 37.0801 34.0594 37.0293C33.9422 36.9785 33.8387 36.9102 33.7488 36.8242C33.6629 36.7344 33.5945 36.6309 33.5438 36.5137C33.493 36.3965 33.4676 36.2715 33.4676 36.1387C33.4676 36.002 33.493 35.875 33.5438 35.7578C33.5945 35.6367 33.6629 35.5312 33.7488 35.4414C33.8387 35.3516 33.9422 35.2812 34.0594 35.2305C34.1766 35.1797 34.3035 35.1543 34.4402 35.1543Z" fill="white"/>
<path d="M49.2945 32.0781L48.896 32.7754L47.2495 31.6855L47.3843 33.6895H46.5464L46.6753 31.6855L44.9937 32.7754L44.6245 32.0898L46.4234 31.2051L44.6245 30.3027L45.0288 29.6172L46.687 30.7246L46.5464 28.7207H47.3843L47.2378 30.7246L48.896 29.6055L49.3062 30.3262L47.5015 31.2168L49.2945 32.0781Z" fill="white"/>
<path d="M55.9364 34.8496H54.6298L54.413 37H53.5458L53.7626 34.8496H52.2684L52.0516 37H51.1845L51.4012 34.8496H50.1532V34.0879H51.4774L51.6884 32.0371H50.452V31.2754H51.7645L51.9637 29.3418H52.8192L52.6259 31.2754H54.1259L54.3251 29.3418H55.1923L54.9872 31.2754H56.247V32.0371H54.911L54.7059 34.0879H55.9364V34.8496ZM53.8446 34.0879L54.0497 32.0371H52.5497L52.3446 34.0879H53.8446Z" fill="white"/>
<path d="M59.3909 35.1543C59.5237 35.1543 59.6487 35.1797 59.7659 35.2305C59.887 35.2812 59.9905 35.3516 60.0764 35.4414C60.1662 35.5312 60.2366 35.6367 60.2873 35.7578C60.3381 35.875 60.3635 36.002 60.3635 36.1387C60.3635 36.2715 60.3381 36.3965 60.2873 36.5137C60.2366 36.6309 60.1662 36.7344 60.0764 36.8242C59.9905 36.9102 59.887 36.9785 59.7659 37.0293C59.6487 37.0801 59.5237 37.1055 59.3909 37.1055C59.2541 37.1055 59.1272 37.0801 59.01 37.0293C58.8928 36.9785 58.7893 36.9102 58.6995 36.8242C58.6135 36.7344 58.5452 36.6309 58.4944 36.5137C58.4436 36.3965 58.4182 36.2715 58.4182 36.1387C58.4182 36.002 58.4436 35.875 58.4944 35.7578C58.5452 35.6367 58.6135 35.5312 58.6995 35.4414C58.7893 35.3516 58.8928 35.2812 59.01 35.2305C59.1272 35.1797 59.2541 35.1543 59.3909 35.1543Z" fill="white"/>
<path d="M28.2026 49.1543C28.3354 49.1543 28.4604 49.1797 28.5776 49.2305C28.6987 49.2812 28.8022 49.3516 28.8881 49.4414C28.978 49.5312 29.0483 49.6367 29.0991 49.7578C29.1498 49.875 29.1752 50.002 29.1752 50.1387C29.1752 50.2715 29.1498 50.3965 29.0991 50.5137C29.0483 50.6309 28.978 50.7344 28.8881 50.8242C28.8022 50.9102 28.6987 50.9785 28.5776 51.0293C28.4604 51.0801 28.3354 51.1055 28.2026 51.1055C28.0659 51.1055 27.9389 51.0801 27.8217 51.0293C27.7045 50.9785 27.601 50.9102 27.5112 50.8242C27.4252 50.7344 27.3569 50.6309 27.3061 50.5137C27.2553 50.3965 27.2299 50.2715 27.2299 50.1387C27.2299 50.002 27.2553 49.875 27.3061 49.7578C27.3569 49.6367 27.4252 49.5312 27.5112 49.4414C27.601 49.3516 27.7045 49.2812 27.8217 49.2305C27.9389 49.1797 28.0659 49.1543 28.2026 49.1543Z" fill="white"/>
<path d="M37.2234 48.8496H35.9168L35.7 51H34.8328L35.0496 48.8496H33.5555L33.3387 51H32.4715L32.6883 48.8496H31.4402V48.0879H32.7645L32.9754 46.0371H31.7391V45.2754H33.0516L33.2508 43.3418H34.1063L33.9129 45.2754H35.4129L35.6121 43.3418H36.4793L36.2742 45.2754H37.534V46.0371H36.198L35.993 48.0879H37.2234V48.8496ZM35.1316 48.0879L35.3367 46.0371H33.8367L33.6316 48.0879H35.1316Z" fill="white"/>
<path d="M43.4611 48.8496H42.1545L41.9377 51H41.0705L41.2873 48.8496H39.7931L39.5763 51H38.7091L38.9259 48.8496H37.6779V48.0879H39.0021L39.213 46.0371H37.9767V45.2754H39.2892L39.4884 43.3418H40.3439L40.1505 45.2754H41.6505L41.8498 43.3418H42.717L42.5119 45.2754H43.7716V46.0371H42.4357L42.2306 48.0879H43.4611V48.8496ZM41.3693 48.0879L41.5744 46.0371H40.0744L39.8693 48.0879H41.3693Z" fill="white"/>
<path d="M46.9155 49.1543C47.0484 49.1543 47.1734 49.1797 47.2905 49.2305C47.4116 49.2812 47.5152 49.3516 47.6011 49.4414C47.6909 49.5312 47.7612 49.6367 47.812 49.7578C47.8628 49.875 47.8882 50.002 47.8882 50.1387C47.8882 50.2715 47.8628 50.3965 47.812 50.5137C47.7612 50.6309 47.6909 50.7344 47.6011 50.8242C47.5152 50.9102 47.4116 50.9785 47.2905 51.0293C47.1734 51.0801 47.0484 51.1055 46.9155 51.1055C46.7788 51.1055 46.6519 51.0801 46.5347 51.0293C46.4175 50.9785 46.314 50.9102 46.2241 50.8242C46.1382 50.7344 46.0698 50.6309 46.0191 50.5137C45.9683 50.3965 45.9429 50.2715 45.9429 50.1387C45.9429 50.002 45.9683 49.875 46.0191 49.7578C46.0698 49.6367 46.1382 49.5312 46.2241 49.4414C46.314 49.3516 46.4175 49.2812 46.5347 49.2305C46.6519 49.1797 46.7788 49.1543 46.9155 49.1543Z" fill="white"/>
<path d="M62.1741 48.8496H60.8674L60.6506 51H59.7834L60.0002 48.8496H58.5061L58.2893 51H57.4221L57.6389 48.8496H56.3909V48.0879H57.7151L57.926 46.0371H56.6897V45.2754H58.0022L58.2014 43.3418H59.0569L58.8635 45.2754H60.3635L60.5627 43.3418H61.4299L61.2248 45.2754H62.4846V46.0371H61.1487L60.9436 48.0879H62.1741V48.8496ZM60.0823 48.0879L60.2873 46.0371H58.7873L58.5823 48.0879H60.0823Z" fill="white"/>
<path d="M65.6285 49.1543C65.7613 49.1543 65.8863 49.1797 66.0035 49.2305C66.1246 49.2812 66.2281 49.3516 66.3141 49.4414C66.4039 49.5312 66.4742 49.6367 66.525 49.7578C66.5758 49.875 66.6012 50.002 66.6012 50.1387C66.6012 50.2715 66.5758 50.3965 66.525 50.5137C66.4742 50.6309 66.4039 50.7344 66.3141 50.8242C66.2281 50.9102 66.1246 50.9785 66.0035 51.0293C65.8863 51.0801 65.7613 51.1055 65.6285 51.1055C65.4918 51.1055 65.3648 51.0801 65.2477 51.0293C65.1305 50.9785 65.027 50.9102 64.9371 50.8242C64.8512 50.7344 64.7828 50.6309 64.732 50.5137C64.6813 50.3965 64.6559 50.2715 64.6559 50.1387C64.6559 50.002 64.6813 49.875 64.732 49.7578C64.7828 49.6367 64.8512 49.5312 64.9371 49.4414C65.027 49.3516 65.1305 49.2812 65.2477 49.2305C65.3648 49.1797 65.4918 49.1543 65.6285 49.1543Z" fill="white"/>
<path d="M15.7273 63.1543C15.8601 63.1543 15.9851 63.1797 16.1023 63.2305C16.2234 63.2812 16.3269 63.3516 16.4128 63.4414C16.5027 63.5312 16.573 63.6367 16.6237 63.7578C16.6745 63.875 16.6999 64.002 16.6999 64.1387C16.6999 64.2715 16.6745 64.3965 16.6237 64.5137C16.573 64.6309 16.5027 64.7344 16.4128 64.8242C16.3269 64.9102 16.2234 64.9785 16.1023 65.0293C15.9851 65.0801 15.8601 65.1055 15.7273 65.1055C15.5905 65.1055 15.4636 65.0801 15.3464 65.0293C15.2292 64.9785 15.1257 64.9102 15.0359 64.8242C14.9499 64.7344 14.8816 64.6309 14.8308 64.5137C14.78 64.3965 14.7546 64.2715 14.7546 64.1387C14.7546 64.002 14.78 63.875 14.8308 63.7578C14.8816 63.6367 14.9499 63.5312 15.0359 63.4414C15.1257 63.3516 15.2292 63.2812 15.3464 63.2305C15.4636 63.1797 15.5905 63.1543 15.7273 63.1543Z" fill="white"/>
<path d="M24.7481 62.8496H23.4415L23.2247 65H22.3575L22.5743 62.8496H21.0802L20.8634 65H19.9962L20.213 62.8496H18.9649V62.0879H20.2891L20.5001 60.0371H19.2638V59.2754H20.5763L20.7755 57.3418H21.6309L21.4376 59.2754H22.9376L23.1368 57.3418H24.004L23.7989 59.2754H25.0587V60.0371H23.7227L23.5177 62.0879H24.7481V62.8496ZM22.6563 62.0879L22.8614 60.0371H21.3614L21.1563 62.0879H22.6563Z" fill="white"/>
<path d="M30.9858 62.8496H29.6791L29.4623 65H28.5952L28.812 62.8496H27.3178L27.101 65H26.2338L26.4506 62.8496H25.2026V62.0879H26.5268L26.7377 60.0371H25.5014V59.2754H26.8139L27.0131 57.3418H27.8686L27.6752 59.2754H29.1752L29.3745 57.3418H30.2416L30.0366 59.2754H31.2963V60.0371H29.9604L29.7553 62.0879H30.9858V62.8496ZM28.894 62.0879L29.0991 60.0371H27.5991L27.394 62.0879H28.894Z" fill="white"/>
<path d="M36.8191 60.0781L36.4207 60.7754L34.7742 59.6855L34.909 61.6895H34.0711L34.2 59.6855L32.5184 60.7754L32.1492 60.0898L33.948 59.2051L32.1492 58.3027L32.5535 57.6172L34.2117 58.7246L34.0711 56.7207H34.909L34.7625 58.7246L36.4207 57.6055L36.8309 58.3262L35.0262 59.2168L36.8191 60.0781Z" fill="white"/>
<path d="M49.2945 60.0781L48.896 60.7754L47.2495 59.6855L47.3843 61.6895H46.5464L46.6753 59.6855L44.9937 60.7754L44.6245 60.0898L46.4234 59.2051L44.6245 58.3027L45.0288 57.6172L46.687 58.7246L46.5464 56.7207H47.3843L47.2378 58.7246L48.896 57.6055L49.3062 58.3262L47.5015 59.2168L49.2945 60.0781Z" fill="white"/>
<path d="M55.9364 62.8496H54.6298L54.413 65H53.5458L53.7626 62.8496H52.2684L52.0516 65H51.1845L51.4012 62.8496H50.1532V62.0879H51.4774L51.6884 60.0371H50.452V59.2754H51.7645L51.9637 57.3418H52.8192L52.6259 59.2754H54.1259L54.3251 57.3418H55.1923L54.9872 59.2754H56.247V60.0371H54.911L54.7059 62.0879H55.9364V62.8496ZM53.8446 62.0879L54.0497 60.0371H52.5497L52.3446 62.0879H53.8446Z" fill="white"/>
<path d="M59.3909 63.1543C59.5237 63.1543 59.6487 63.1797 59.7659 63.2305C59.887 63.2812 59.9905 63.3516 60.0764 63.4414C60.1662 63.5312 60.2366 63.6367 60.2873 63.7578C60.3381 63.875 60.3635 64.002 60.3635 64.1387C60.3635 64.2715 60.3381 64.3965 60.2873 64.5137C60.2366 64.6309 60.1662 64.7344 60.0764 64.8242C59.9905 64.9102 59.887 64.9785 59.7659 65.0293C59.6487 65.0801 59.5237 65.1055 59.3909 65.1055C59.2541 65.1055 59.1272 65.0801 59.01 65.0293C58.8928 64.9785 58.7893 64.9102 58.6995 64.8242C58.6135 64.7344 58.5452 64.6309 58.4944 64.5137C58.4436 64.3965 58.4182 64.2715 58.4182 64.1387C58.4182 64.002 58.4436 63.875 58.4944 63.7578C58.5452 63.6367 58.6135 63.5312 58.6995 63.4414C58.7893 63.3516 58.8928 63.2812 59.01 63.2305C59.1272 63.1797 59.2541 63.1543 59.3909 63.1543Z" fill="white"/>
<path d="M74.6494 62.8496H73.3427L73.1259 65H72.2588L72.4755 62.8496H70.9814L70.7646 65H69.8974L70.1142 62.8496H68.8662V62.0879H70.1904L70.4013 60.0371H69.165V59.2754H70.4775L70.6767 57.3418H71.5322L71.3388 59.2754H72.8388L73.038 57.3418H73.9052L73.7002 59.2754H74.9599V60.0371H73.624L73.4189 62.0879H74.6494V62.8496ZM72.5576 62.0879L72.7627 60.0371H71.2627L71.0576 62.0879H72.5576Z" fill="white"/>
<path d="M78.1038 63.1543C78.2366 63.1543 78.3616 63.1797 78.4788 63.2305C78.5999 63.2812 78.7034 63.3516 78.7894 63.4414C78.8792 63.5312 78.9495 63.6367 79.0003 63.7578C79.0511 63.875 79.0765 64.002 79.0765 64.1387C79.0765 64.2715 79.0511 64.3965 79.0003 64.5137C78.9495 64.6309 78.8792 64.7344 78.7894 64.8242C78.7034 64.9102 78.5999 64.9785 78.4788 65.0293C78.3616 65.0801 78.2366 65.1055 78.1038 65.1055C77.9671 65.1055 77.8402 65.0801 77.723 65.0293C77.6058 64.9785 77.5023 64.9102 77.4124 64.8242C77.3265 64.7344 77.2581 64.6309 77.2073 64.5137C77.1566 64.3965 77.1312 64.2715 77.1312 64.1387C77.1312 64.002 77.1566 63.875 77.2073 63.7578C77.2581 63.6367 77.3265 63.5312 77.4124 63.4414C77.5023 63.3516 77.6058 63.2812 77.723 63.2305C77.8402 63.1797 77.9671 63.1543 78.1038 63.1543Z" fill="white"/>
<path d="M3.25195 77.1543C3.38477 77.1543 3.50977 77.1797 3.62695 77.2305C3.74805 77.2812 3.85156 77.3516 3.9375 77.4414C4.02734 77.5312 4.09766 77.6367 4.14844 77.7578C4.19922 77.875 4.22461 78.002 4.22461 78.1387C4.22461 78.2715 4.19922 78.3965 4.14844 78.5137C4.09766 78.6309 4.02734 78.7344 3.9375 78.8242C3.85156 78.9102 3.74805 78.9785 3.62695 79.0293C3.50977 79.0801 3.38477 79.1055 3.25195 79.1055C3.11523 79.1055 2.98828 79.0801 2.87109 79.0293C2.75391 78.9785 2.65039 78.9102 2.56055 78.8242C2.47461 78.7344 2.40625 78.6309 2.35547 78.5137C2.30469 78.3965 2.2793 78.2715 2.2793 78.1387C2.2793 78.002 2.30469 77.875 2.35547 77.7578C2.40625 77.6367 2.47461 77.5312 2.56055 77.4414C2.65039 77.3516 2.75391 77.2812 2.87109 77.2305C2.98828 77.1797 3.11523 77.1543 3.25195 77.1543Z" fill="white"/>
<path d="M12.2728 76.8496H10.9662L10.7494 79H9.88219L10.099 76.8496H8.60484L8.38805 79H7.52086L7.73766 76.8496H6.48961V76.0879H7.81383L8.02477 74.0371H6.78844V73.2754H8.10094L8.30016 71.3418H9.15562L8.96227 73.2754H10.4623L10.6615 71.3418H11.5287L11.3236 73.2754H12.5834V74.0371H11.2474L11.0423 76.0879H12.2728V76.8496ZM10.181 76.0879L10.3861 74.0371H8.88609L8.68102 76.0879H10.181Z" fill="white"/>
<path d="M18.5105 76.8496H17.2038L16.987 79H16.1198L16.3366 76.8496H14.8425L14.6257 79H13.7585L13.9753 76.8496H12.7273V76.0879H14.0515L14.2624 74.0371H13.0261V73.2754H14.3386L14.5378 71.3418H15.3933L15.1999 73.2754H16.6999L16.8991 71.3418H17.7663L17.5612 73.2754H18.821V74.0371H17.4851L17.28 76.0879H18.5105V76.8496ZM16.4187 76.0879L16.6237 74.0371H15.1237L14.9187 76.0879H16.4187Z" fill="white"/>
<path d="M24.3438 74.0781L23.9454 74.7754L22.2989 73.6855L22.4337 75.6895H21.5958L21.7247 73.6855L20.043 74.7754L19.6739 74.0898L21.4727 73.2051L19.6739 72.3027L20.0782 71.6172L21.7364 72.7246L21.5958 70.7207H22.4337L22.2872 72.7246L23.9454 71.6055L24.3555 72.3262L22.5509 73.2168L24.3438 74.0781Z" fill="white"/>
<path d="M55.5321 74.0781L55.1337 74.7754L53.4872 73.6855L53.622 75.6895H52.7841L52.913 73.6855L51.2313 74.7754L50.8622 74.0898L52.661 73.2051L50.8622 72.3027L51.2665 71.6172L52.9247 72.7246L52.7841 70.7207H53.622L53.4755 72.7246L55.1337 71.6055L55.5438 72.3262L53.7391 73.2168L55.5321 74.0781Z" fill="white"/>
<path d="M62.1741 76.8496H60.8674L60.6506 79H59.7834L60.0002 76.8496H58.5061L58.2893 79H57.4221L57.6389 76.8496H56.3909V76.0879H57.7151L57.926 74.0371H56.6897V73.2754H58.0022L58.2014 71.3418H59.0569L58.8635 73.2754H60.3635L60.5627 71.3418H61.4299L61.2248 73.2754H62.4846V74.0371H61.1487L60.9436 76.0879H62.1741V76.8496ZM60.0823 76.0879L60.2873 74.0371H58.7873L58.5823 76.0879H60.0823Z" fill="white"/>
<path d="M68.4117 76.8496H67.1051L66.8883 79H66.0211L66.2379 76.8496H64.7438L64.527 79H63.6598L63.8766 76.8496H62.6285V76.0879H63.9527L64.1637 74.0371H62.9273V73.2754H64.2398L64.4391 71.3418H65.2945L65.1012 73.2754H66.6012L66.8004 71.3418H67.6676L67.4625 73.2754H68.7223V74.0371H67.3863L67.1813 76.0879H68.4117V76.8496ZM66.3199 76.0879L66.525 74.0371H65.025L64.8199 76.0879H66.3199Z" fill="white"/>
<path d="M74.6494 76.8496H73.3427L73.1259 79H72.2588L72.4755 76.8496H70.9814L70.7646 79H69.8974L70.1142 76.8496H68.8662V76.0879H70.1904L70.4013 74.0371H69.165V73.2754H70.4775L70.6767 71.3418H71.5322L71.3388 73.2754H72.8388L73.038 71.3418H73.9052L73.7002 73.2754H74.9599V74.0371H73.624L73.4189 76.0879H74.6494V76.8496ZM72.5576 76.0879L72.7627 74.0371H71.2627L71.0576 76.0879H72.5576Z" fill="white"/>
<path d="M80.887 76.8496H79.5804L79.3636 79H78.4964L78.7132 76.8496H77.2191L77.0023 79H76.1351L76.3519 76.8496H75.1038V76.0879H76.428L76.639 74.0371H75.4027V73.2754H76.7152L76.9144 71.3418H77.7698L77.5765 73.2754H79.0765L79.2757 71.3418H80.1429L79.9378 73.2754H81.1976V74.0371H79.8616L79.6566 76.0879H80.887V76.8496ZM78.7952 76.0879L79.0003 74.0371H77.5003L77.2952 76.0879H78.7952Z" fill="white"/>
<path d="M84.3415 77.1543C84.4743 77.1543 84.5993 77.1797 84.7165 77.2305C84.8376 77.2812 84.9411 77.3516 85.027 77.4414C85.1169 77.5312 85.1872 77.6367 85.238 77.7578C85.2887 77.875 85.3141 78.002 85.3141 78.1387C85.3141 78.2715 85.2887 78.3965 85.238 78.5137C85.1872 78.6309 85.1169 78.7344 85.027 78.8242C84.9411 78.9102 84.8376 78.9785 84.7165 79.0293C84.5993 79.0801 84.4743 79.1055 84.3415 79.1055C84.2048 79.1055 84.0778 79.0801 83.9606 79.0293C83.8434 78.9785 83.7399 78.9102 83.6501 78.8242C83.5641 78.7344 83.4958 78.6309 83.445 78.5137C83.3942 78.3965 83.3688 78.2715 83.3688 78.1387C83.3688 78.002 83.3942 77.875 83.445 77.7578C83.4958 77.6367 83.5641 77.5312 83.6501 77.4414C83.7399 77.3516 83.8434 77.2812 83.9606 77.2305C84.0778 77.1797 84.2048 77.1543 84.3415 77.1543Z" fill="white"/>
</svg>
