<svg width="73" height="88" viewBox="0 0 73 88" fill="none" xmlns="http://www.w3.org/2000/svg">
<path d="M7.58813 5.51953H6.83031L6.47484 4.40625H4.34984L3.99047 5.51953H3.26781L4.96313 0.414062H5.91625L7.58813 5.51953ZM6.27563 3.78516L5.41234 1.05469L4.54906 3.78516H6.27563Z" fill="white"/>
<path d="M11.3559 3.99219C11.3559 4.23698 11.3078 4.45443 11.2114 4.64453C11.1177 4.83203 10.9822 4.99089 10.8052 5.12109C10.6307 5.2513 10.4184 5.35026 10.1684 5.41797C9.92104 5.48568 9.645 5.51953 9.34031 5.51953H8.00438V0.414062H9.46531C10.6033 0.414062 11.1723 0.828125 11.1723 1.65625C11.1723 1.93229 11.1059 2.16927 10.9731 2.36719C10.8429 2.5651 10.6294 2.71224 10.3325 2.80859C10.4705 2.83464 10.6007 2.87891 10.7231 2.94141C10.8481 3.00391 10.9575 3.08464 11.0513 3.18359C11.145 3.28255 11.2192 3.39974 11.2739 3.53516C11.3286 3.67057 11.3559 3.82292 11.3559 3.99219ZM10.4497 1.75C10.4497 1.64583 10.4341 1.54818 10.4028 1.45703C10.3716 1.36328 10.3169 1.28385 10.2388 1.21875C10.1606 1.15104 10.0552 1.09766 9.92234 1.05859C9.78953 1.01953 9.62156 1 9.41844 1H8.69969V2.59766H9.395C9.55385 2.59766 9.69708 2.58073 9.82469 2.54688C9.9549 2.51302 10.0656 2.46094 10.1567 2.39062C10.2505 2.32031 10.3221 2.23307 10.3716 2.12891C10.4236 2.02214 10.4497 1.89583 10.4497 1.75ZM10.6177 4.01562C10.6177 3.88542 10.5903 3.76823 10.5356 3.66406C10.4809 3.5599 10.4015 3.47266 10.2973 3.40234C10.1932 3.32943 10.0656 3.27344 9.91453 3.23438C9.76609 3.19531 9.59813 3.17578 9.41063 3.17578H8.69969V4.93359H9.43406C9.8325 4.93359 10.1294 4.85938 10.3247 4.71094C10.52 4.5625 10.6177 4.33073 10.6177 4.01562Z" fill="white"/>
<path d="M15.4323 5.32812C15.0235 5.4974 14.5951 5.58203 14.1472 5.58203C13.4258 5.58203 12.8711 5.36719 12.4831 4.9375C12.0977 4.50521 11.905 3.86719 11.905 3.02344C11.905 2.61458 11.9584 2.24479 12.0652 1.91406C12.1719 1.58333 12.3243 1.30339 12.5222 1.07422C12.7201 0.842448 12.9597 0.664062 13.2409 0.539062C13.5222 0.414062 13.8373 0.351562 14.1862 0.351562C14.4232 0.351562 14.6433 0.372396 14.8464 0.414062C15.0495 0.453125 15.2448 0.514323 15.4323 0.597656V1.28125C15.2474 1.17969 15.056 1.10286 14.8581 1.05078C14.6602 0.996094 14.4441 0.96875 14.2097 0.96875C13.9701 0.96875 13.7527 1.01432 13.5573 1.10547C13.3646 1.19401 13.2006 1.32422 13.0652 1.49609C12.9297 1.66536 12.8256 1.8737 12.7527 2.12109C12.6797 2.36589 12.6433 2.64583 12.6433 2.96094C12.6433 3.6224 12.7774 4.12109 13.0456 4.45703C13.3139 4.79297 13.7071 4.96094 14.2253 4.96094C14.4441 4.96094 14.6537 4.9362 14.8542 4.88672C15.0547 4.83464 15.2474 4.76302 15.4323 4.67188V5.32812Z" fill="white"/>
<path d="M19.8173 2.91016C19.8173 3.15495 19.7978 3.38932 19.7588 3.61328C19.7223 3.83724 19.6624 4.04557 19.5791 4.23828C19.4957 4.43099 19.3877 4.60677 19.2548 4.76562C19.122 4.92188 18.9593 5.05599 18.7666 5.16797C18.5739 5.27995 18.3499 5.36719 18.0947 5.42969C17.8395 5.48958 17.5491 5.51953 17.2236 5.51953H16.1298V0.414062H17.4463C18.2431 0.414062 18.8369 0.619792 19.2275 1.03125C19.6207 1.4401 19.8173 2.06641 19.8173 2.91016ZM19.0869 2.96094C19.0869 2.59896 19.053 2.29297 18.9853 2.04297C18.9176 1.79297 18.8147 1.59115 18.6767 1.4375C18.5387 1.28385 18.3655 1.17318 18.1572 1.10547C17.9489 1.03516 17.7041 1 17.4228 1H16.8252V4.91797H17.3447C18.5061 4.91797 19.0869 4.26562 19.0869 2.96094Z" fill="white"/>
<path d="M23.55 5.51953H20.6477V0.414062H23.55V1H21.343V2.58203H23.4641V3.16797H21.343V4.92578H23.55V5.51953Z" fill="white"/>
<path d="M27.7006 1.00781H25.5327V2.66406H27.5873V3.24609H25.5327V5.51953H24.8217V0.414062H27.7006V1.00781Z" fill="white"/>
<path d="M32.1091 1.28906C31.919 1.1875 31.7236 1.10938 31.5231 1.05469C31.3226 0.997396 31.1039 0.96875 30.8669 0.96875C30.596 0.96875 30.3552 1.01693 30.1442 1.11328C29.9333 1.20964 29.7549 1.34635 29.6091 1.52344C29.4658 1.69792 29.3552 1.90885 29.277 2.15625C29.2015 2.40365 29.1637 2.67708 29.1637 2.97656C29.1637 3.28906 29.195 3.56901 29.2575 3.81641C29.32 4.0638 29.4177 4.27344 29.5505 4.44531C29.6833 4.61719 29.8526 4.7487 30.0583 4.83984C30.2666 4.93099 30.5153 4.97656 30.8044 4.97656C30.8539 4.97656 30.9072 4.97396 30.9645 4.96875C31.0218 4.96354 31.0791 4.95703 31.1364 4.94922C31.1937 4.9388 31.2484 4.92708 31.3005 4.91406C31.3552 4.90104 31.4033 4.88672 31.445 4.87109V3.24609H30.402V2.67188H32.1325V5.28125C32.0257 5.33073 31.9124 5.375 31.7927 5.41406C31.6755 5.45312 31.5544 5.48568 31.4294 5.51172C31.307 5.53776 31.1846 5.55729 31.0622 5.57031C30.9398 5.58333 30.8213 5.58984 30.7067 5.58984C30.3578 5.58984 30.0427 5.53516 29.7614 5.42578C29.4828 5.31641 29.2445 5.15495 29.0466 4.94141C28.8512 4.72526 28.7002 4.45703 28.5934 4.13672C28.4893 3.81641 28.4372 3.44531 28.4372 3.02344C28.4372 2.60417 28.4958 2.22917 28.613 1.89844C28.7302 1.5651 28.8942 1.28385 29.1052 1.05469C29.3187 0.822917 29.5739 0.647135 29.8708 0.527344C30.1703 0.404948 30.4997 0.34375 30.8591 0.34375C31.0882 0.34375 31.3057 0.364583 31.5114 0.40625C31.7197 0.445312 31.919 0.509115 32.1091 0.597656V1.28906Z" fill="white"/>
<path d="M36.3066 5.51953H35.6113V3.17578H33.4667V5.51953H32.7714V0.414062H33.4667V2.57422H35.6113V0.414062H36.3066V5.51953Z" fill="white"/>
<path d="M38.3439 1H37.1681V0.414062H40.2228V1H39.047V4.92578H40.2228V5.51953H37.1681V4.92578H38.3439V1Z" fill="white"/>
<path d="M44.0805 0.414062V3.96094C44.0805 4.17969 44.0479 4.38802 43.9828 4.58594C43.9177 4.78125 43.8187 4.95182 43.6859 5.09766C43.5531 5.24349 43.3865 5.35938 43.1859 5.44531C42.9854 5.53125 42.7497 5.57422 42.4789 5.57422C42.3773 5.57422 42.2732 5.56641 42.1664 5.55078C42.0622 5.53776 41.9607 5.51953 41.8617 5.49609C41.7654 5.47005 41.6742 5.4401 41.5883 5.40625C41.5023 5.36979 41.4281 5.33073 41.3656 5.28906V4.58984C41.5271 4.70703 41.7055 4.79948 41.9008 4.86719C42.0987 4.9349 42.294 4.96875 42.4867 4.96875C42.7706 4.96875 42.9893 4.88281 43.143 4.71094C43.2966 4.53646 43.3734 4.28646 43.3734 3.96094V1.01562H41.432V0.414062H44.0805Z" fill="white"/>
<path d="M48.903 5.51953H48.028L46.1178 3.01562V5.51953H45.4225V0.414062H46.1178V2.78516L47.9889 0.414062H48.8131L46.7975 2.83984L48.903 5.51953Z" fill="white"/>
<path d="M49.9012 6.32031C50.0341 6.32552 50.163 6.3138 50.288 6.28516C50.413 6.25651 50.5223 6.21354 50.6161 6.15625C50.7124 6.10156 50.7893 6.03255 50.8466 5.94922C50.9039 5.86589 50.9325 5.77083 50.9325 5.66406C50.9325 5.55469 50.913 5.46615 50.8739 5.39844C50.8374 5.33073 50.7958 5.26823 50.7489 5.21094C50.702 5.15365 50.6591 5.09245 50.62 5.02734C50.5835 4.96224 50.5653 4.875 50.5653 4.76562C50.5653 4.71094 50.5757 4.65365 50.5966 4.59375C50.6174 4.53385 50.6486 4.47917 50.6903 4.42969C50.7346 4.38021 50.7893 4.33984 50.8544 4.30859C50.9221 4.27734 51.0015 4.26172 51.0927 4.26172C51.1838 4.26172 51.271 4.28125 51.3544 4.32031C51.4403 4.35677 51.5145 4.41406 51.577 4.49219C51.6421 4.57031 51.6929 4.66797 51.7294 4.78516C51.7684 4.90234 51.788 5.04036 51.788 5.19922C51.788 5.41536 51.7476 5.6224 51.6669 5.82031C51.5887 6.02083 51.4703 6.19792 51.3114 6.35156C51.1552 6.50521 50.9585 6.6276 50.7216 6.71875C50.4872 6.8099 50.2137 6.85547 49.9012 6.85547V6.32031Z" fill="white"/>
<path d="M56.9777 5.51953H54.0402V0.414062H54.7472V4.92578H56.9777V5.51953Z" fill="white"/>
<path d="M61.4955 5.51953H60.8158L60.7142 2.33594L60.6712 1.11328L60.433 1.82422L59.6791 3.85547H59.1986L58.4798 1.90234L58.2416 1.11328L58.2259 2.39062L58.1361 5.51953H57.4798L57.7298 0.414062H58.5541L59.2416 2.33594L59.4642 2.98438L59.6791 2.33594L60.4017 0.414062H61.2494L61.4955 5.51953Z" fill="white"/>
<path d="M65.3844 5.51953H64.4781L62.9898 2.33594L62.5602 1.3125V5.51953H61.9117V0.414062H62.8063L64.2242 3.42969L64.7359 4.59766V0.414062H65.3844V5.51953Z" fill="white"/>
<path d="M69.7889 2.93359C69.7889 3.39193 69.7342 3.78776 69.6248 4.12109C69.5181 4.45443 69.3722 4.73047 69.1873 4.94922C69.0051 5.16536 68.7902 5.32682 68.5428 5.43359C68.298 5.53776 68.0389 5.58984 67.7655 5.58984C67.4373 5.58984 67.1509 5.53125 66.9061 5.41406C66.6639 5.29427 66.4621 5.1224 66.3006 4.89844C66.1418 4.67448 66.0233 4.40234 65.9452 4.08203C65.867 3.75911 65.828 3.39583 65.828 2.99219C65.828 2.53906 65.8814 2.14583 65.9881 1.8125C66.0949 1.47917 66.2394 1.20443 66.4217 0.988281C66.6066 0.769531 66.8215 0.608073 67.0663 0.503906C67.311 0.397135 67.5702 0.34375 67.8436 0.34375C68.1717 0.34375 68.4569 0.403646 68.6991 0.523438C68.9439 0.643229 69.147 0.815104 69.3084 1.03906C69.4699 1.26042 69.5897 1.53125 69.6678 1.85156C69.7485 2.17188 69.7889 2.53255 69.7889 2.93359ZM69.0663 2.98438C69.0663 2.6849 69.0428 2.41146 68.9959 2.16406C68.9517 1.91406 68.8788 1.69922 68.7772 1.51953C68.6756 1.33984 68.5441 1.20052 68.3827 1.10156C68.2238 1.0026 68.0311 0.953125 67.8045 0.953125C67.5858 0.953125 67.397 1.00651 67.2381 1.11328C67.0819 1.21745 66.953 1.36068 66.8514 1.54297C66.7498 1.72266 66.6743 1.9349 66.6248 2.17969C66.5754 2.42188 66.5506 2.67969 66.5506 2.95312C66.5506 3.25521 66.5741 3.53125 66.6209 3.78125C66.6678 4.02865 66.7407 4.24219 66.8397 4.42188C66.9413 4.59896 67.0715 4.73698 67.2303 4.83594C67.3892 4.9349 67.5806 4.98438 67.8045 4.98438C68.0233 4.98438 68.2121 4.93229 68.3709 4.82812C68.5298 4.72135 68.66 4.57812 68.7616 4.39844C68.8657 4.21615 68.9426 4.00391 68.992 3.76172C69.0415 3.51953 69.0663 3.26042 69.0663 2.98438Z" fill="white"/>
<path d="M72.4122 0L72.2989 1.83203H71.627L71.5177 0H72.4122Z" fill="white"/>
<path d="M33.2675 15.3203C33.4003 15.3255 33.5292 15.3138 33.6542 15.2852C33.7792 15.2565 33.8886 15.2135 33.9823 15.1562C34.0787 15.1016 34.1555 15.0326 34.2128 14.9492C34.2701 14.8659 34.2988 14.7708 34.2988 14.6641C34.2988 14.5547 34.2792 14.4661 34.2402 14.3984C34.2037 14.3307 34.162 14.2682 34.1152 14.2109C34.0683 14.1536 34.0253 14.0924 33.9863 14.0273C33.9498 13.9622 33.9316 13.875 33.9316 13.7656C33.9316 13.7109 33.942 13.6536 33.9628 13.5938C33.9836 13.5339 34.0149 13.4792 34.0566 13.4297C34.1008 13.3802 34.1555 13.3398 34.2206 13.3086C34.2883 13.2773 34.3678 13.2617 34.4589 13.2617C34.5501 13.2617 34.6373 13.2812 34.7206 13.3203C34.8066 13.3568 34.8808 13.4141 34.9433 13.4922C35.0084 13.5703 35.0592 13.668 35.0956 13.7852C35.1347 13.9023 35.1542 14.0404 35.1542 14.1992C35.1542 14.4154 35.1139 14.6224 35.0331 14.8203C34.955 15.0208 34.8365 15.1979 34.6777 15.3516C34.5214 15.5052 34.3248 15.6276 34.0878 15.7188C33.8534 15.8099 33.58 15.8555 33.2675 15.8555V15.3203Z" fill="white"/>
<path d="M40.465 10.9766C40.465 11.1849 40.4259 11.3919 40.3478 11.5977C40.2697 11.8008 40.1486 11.9831 39.9845 12.1445C39.8205 12.306 39.6108 12.4375 39.3556 12.5391C39.1004 12.638 38.7957 12.6875 38.4416 12.6875H37.8088V14.5195H37.1134V9.41406H38.5509C38.8035 9.41406 39.0457 9.44271 39.2775 9.5C39.5093 9.55469 39.7124 9.64453 39.8869 9.76953C40.064 9.89453 40.2046 10.056 40.3088 10.2539C40.4129 10.4518 40.465 10.6927 40.465 10.9766ZM39.7423 11.0078C39.7423 10.6797 39.6343 10.4284 39.4181 10.2539C39.2046 10.0794 38.9051 9.99219 38.5197 9.99219H37.8088V12.0938H38.4572C38.8686 12.0938 39.1851 12.0039 39.4064 11.8242C39.6304 11.6445 39.7423 11.3724 39.7423 11.0078Z" fill="white"/>
<path d="M43.3031 9L43.1898 10.832H42.518L42.4086 9H43.3031Z" fill="white"/>
<path d="M45.7428 15.3203C45.8756 15.3255 46.0045 15.3138 46.1295 15.2852C46.2545 15.2565 46.3639 15.2135 46.4577 15.1562C46.554 15.1016 46.6308 15.0326 46.6881 14.9492C46.7454 14.8659 46.7741 14.7708 46.7741 14.6641C46.7741 14.5547 46.7545 14.4661 46.7155 14.3984C46.679 14.3307 46.6373 14.2682 46.5905 14.2109C46.5436 14.1536 46.5006 14.0924 46.4616 14.0273C46.4251 13.9622 46.4069 13.875 46.4069 13.7656C46.4069 13.7109 46.4173 13.6536 46.4381 13.5938C46.459 13.5339 46.4902 13.4792 46.5319 13.4297C46.5761 13.3802 46.6308 13.3398 46.6959 13.3086C46.7636 13.2773 46.8431 13.2617 46.9342 13.2617C47.0254 13.2617 47.1126 13.2812 47.1959 13.3203C47.2819 13.3568 47.3561 13.4141 47.4186 13.4922C47.4837 13.5703 47.5345 13.668 47.5709 13.7852C47.61 13.9023 47.6295 14.0404 47.6295 14.1992C47.6295 14.4154 47.5892 14.6224 47.5084 14.8203C47.4303 15.0208 47.3118 15.1979 47.153 15.3516C46.9967 15.5052 46.8001 15.6276 46.5631 15.7188C46.3288 15.8099 46.0553 15.8555 45.7428 15.8555V15.3203Z" fill="white"/>
<path d="M50.7958 14.5664C50.5249 14.5273 50.2893 14.4414 50.0887 14.3086C49.8882 14.1758 49.7216 14.0013 49.5887 13.7852C49.4559 13.5664 49.357 13.3099 49.2919 13.0156C49.2268 12.7188 49.1942 12.3906 49.1942 12.0312C49.1942 11.5677 49.2476 11.1667 49.3544 10.8281C49.4611 10.4896 49.6057 10.2109 49.788 9.99219C49.9729 9.77083 50.1877 9.60807 50.4325 9.50391C50.6773 9.39714 50.9364 9.34375 51.2098 9.34375C51.538 9.34375 51.8231 9.40365 52.0653 9.52344C52.3101 9.64062 52.5132 9.8112 52.6747 10.0352C52.8361 10.2565 52.9559 10.526 53.0341 10.8438C53.1148 11.1589 53.1552 11.5143 53.1552 11.9102C53.1552 12.3268 53.1109 12.6927 53.0223 13.0078C52.9338 13.3203 52.8127 13.5859 52.6591 13.8047C52.5054 14.0234 52.3244 14.1953 52.1161 14.3203C51.9078 14.4453 51.6838 14.5273 51.4442 14.5664C51.4833 14.7956 51.5744 14.9792 51.7177 15.1172C51.8609 15.2578 52.0627 15.3281 52.3231 15.3281C52.4481 15.3281 52.5705 15.3073 52.6903 15.2656C52.8127 15.224 52.9364 15.1536 53.0614 15.0547L53.37 15.5352C53.1981 15.6758 53.021 15.776 52.8387 15.8359C52.6565 15.8958 52.469 15.9258 52.2762 15.9258C52.0679 15.9258 51.8765 15.8971 51.702 15.8398C51.5276 15.7826 51.3752 15.6966 51.245 15.582C51.1174 15.4701 51.0145 15.3281 50.9364 15.1562C50.8583 14.987 50.8114 14.7904 50.7958 14.5664ZM52.4325 11.9922C52.4325 11.6901 52.4091 11.4154 52.3622 11.168C52.3179 10.918 52.245 10.7044 52.1434 10.5273C52.0419 10.3477 51.9104 10.2083 51.7489 10.1094C51.5901 10.0104 51.3973 9.96094 51.1708 9.96094C50.952 9.96094 50.7632 10.013 50.6044 10.1172C50.4481 10.2214 50.3192 10.3633 50.2177 10.543C50.1161 10.7201 50.0406 10.9284 49.9911 11.168C49.9416 11.4049 49.9169 11.6576 49.9169 11.9258C49.9169 12.2357 49.9403 12.5169 49.9872 12.7695C50.0341 13.0195 50.107 13.2344 50.2059 13.4141C50.3075 13.5938 50.4377 13.7331 50.5966 13.832C50.7554 13.9284 50.9468 13.9766 51.1708 13.9766C51.3895 13.9766 51.5783 13.9245 51.7372 13.8203C51.896 13.7161 52.0262 13.5742 52.1278 13.3945C52.232 13.2148 52.3088 13.0052 52.3583 12.7656C52.4078 12.5234 52.4325 12.2656 52.4325 11.9922Z" fill="white"/>
<path d="M57.2355 14.5195H56.4503L55.6886 12.8867C55.6313 12.7617 55.5727 12.6589 55.5128 12.5781C55.4529 12.4948 55.3878 12.4297 55.3175 12.3828C55.2498 12.3333 55.1743 12.2982 55.0909 12.2773C55.0102 12.2565 54.9191 12.2461 54.8175 12.2461H54.4894V14.5195H53.7941V9.41406H55.1613C55.4581 9.41406 55.7133 9.44661 55.9269 9.51172C56.1404 9.57682 56.3149 9.66797 56.4503 9.78516C56.5883 9.90234 56.6886 10.0443 56.7511 10.2109C56.8162 10.375 56.8488 10.5573 56.8488 10.7578C56.8488 10.9167 56.8253 11.0677 56.7784 11.2109C56.7316 11.3516 56.6613 11.4805 56.5675 11.5977C56.4764 11.7122 56.3618 11.8125 56.2238 11.8984C56.0883 11.9818 55.9321 12.0443 55.755 12.0859C55.8982 12.1354 56.0193 12.2227 56.1183 12.3477C56.2198 12.4701 56.3227 12.6341 56.4269 12.8398L57.2355 14.5195ZM56.1222 10.8164C56.1222 10.543 56.0363 10.3385 55.8644 10.2031C55.6951 10.0677 55.4555 10 55.1456 10H54.4894V11.6875H55.0519C55.2159 11.6875 55.3631 11.6693 55.4933 11.6328C55.6261 11.5938 55.7381 11.5378 55.8292 11.4648C55.923 11.3893 55.9946 11.2982 56.0441 11.1914C56.0961 11.082 56.1222 10.957 56.1222 10.8164Z" fill="white"/>
<path d="M61.183 13.1367C61.183 13.3789 61.1335 13.5911 61.0345 13.7734C60.9356 13.9557 60.7976 14.1081 60.6205 14.2305C60.4434 14.3503 60.2298 14.4401 59.9798 14.5C59.7324 14.5599 59.459 14.5898 59.1595 14.5898C59.0241 14.5898 58.8887 14.5846 58.7533 14.5742C58.6205 14.5638 58.4916 14.5508 58.3666 14.5352C58.2442 14.5195 58.1283 14.5013 58.0189 14.4805C57.9095 14.4596 57.8106 14.4375 57.722 14.4141V13.7422C57.9173 13.8151 58.1361 13.8724 58.3783 13.9141C58.6231 13.9557 58.9004 13.9766 59.2103 13.9766C59.4343 13.9766 59.6244 13.9596 59.7806 13.9258C59.9395 13.8893 60.0684 13.8372 60.1673 13.7695C60.2689 13.6992 60.3418 13.6146 60.3861 13.5156C60.433 13.4167 60.4564 13.3034 60.4564 13.1758C60.4564 13.0378 60.4173 12.9206 60.3392 12.8242C60.2637 12.7253 60.1634 12.638 60.0384 12.5625C59.9134 12.4844 59.7702 12.4141 59.6087 12.3516C59.4499 12.2865 59.2871 12.2201 59.1205 12.1523C58.9538 12.0846 58.7897 12.0117 58.6283 11.9336C58.4694 11.8529 58.3275 11.7591 58.2025 11.6523C58.0775 11.543 57.9759 11.4154 57.8978 11.2695C57.8223 11.1237 57.7845 10.9505 57.7845 10.75C57.7845 10.5755 57.821 10.4036 57.8939 10.2344C57.9668 10.0651 58.0801 9.91536 58.2337 9.78516C58.3874 9.65234 58.584 9.54557 58.8236 9.46484C59.0658 9.38411 59.3535 9.34375 59.6869 9.34375C59.7728 9.34375 59.8653 9.34766 59.9642 9.35547C60.0658 9.36328 60.1673 9.375 60.2689 9.39062C60.3731 9.40365 60.4746 9.41927 60.5736 9.4375C60.6752 9.45573 60.7689 9.47526 60.8548 9.49609V10.1211C60.6543 10.0638 60.4538 10.0208 60.2533 9.99219C60.0528 9.96094 59.8587 9.94531 59.6712 9.94531C59.2728 9.94531 58.9798 10.0117 58.7923 10.1445C58.6048 10.2773 58.5111 10.4557 58.5111 10.6797C58.5111 10.8177 58.5489 10.9362 58.6244 11.0352C58.7025 11.1341 58.8041 11.2227 58.9291 11.3008C59.0541 11.3789 59.196 11.4505 59.3548 11.5156C59.5163 11.5781 59.6804 11.6432 59.847 11.7109C60.0137 11.7786 60.1765 11.8529 60.3353 11.9336C60.4968 12.0143 60.64 12.1107 60.765 12.2227C60.89 12.332 60.9903 12.4609 61.0658 12.6094C61.1439 12.7578 61.183 12.9336 61.183 13.1367Z" fill="white"/>
<path d="M65.5094 10.0078H63.9977V14.5195H63.2945V10.0078H61.7828V9.41406H65.5094V10.0078Z" fill="white"/>
<path d="M68.2538 9L68.1405 10.832H67.4686L67.3592 9H68.2538Z" fill="white"/>
<path d="M29.1091 24.3203C29.2419 24.3255 29.3708 24.3138 29.4958 24.2852C29.6208 24.2565 29.7302 24.2135 29.8239 24.1562C29.9203 24.1016 29.9971 24.0326 30.0544 23.9492C30.1117 23.8659 30.1403 23.7708 30.1403 23.6641C30.1403 23.5547 30.1208 23.4661 30.0817 23.3984C30.0453 23.3307 30.0036 23.2682 29.9567 23.2109C29.9098 23.1536 29.8669 23.0924 29.8278 23.0273C29.7914 22.9622 29.7731 22.875 29.7731 22.7656C29.7731 22.7109 29.7835 22.6536 29.8044 22.5938C29.8252 22.5339 29.8565 22.4792 29.8981 22.4297C29.9424 22.3802 29.9971 22.3398 30.0622 22.3086C30.1299 22.2773 30.2093 22.2617 30.3005 22.2617C30.3916 22.2617 30.4789 22.2812 30.5622 22.3203C30.6481 22.3568 30.7223 22.4141 30.7848 22.4922C30.8499 22.5703 30.9007 22.668 30.9372 22.7852C30.9762 22.9023 30.9958 23.0404 30.9958 23.1992C30.9958 23.4154 30.9554 23.6224 30.8747 23.8203C30.7966 24.0208 30.6781 24.1979 30.5192 24.3516C30.363 24.5052 30.1664 24.6276 29.9294 24.7188C29.695 24.8099 29.4216 24.8555 29.1091 24.8555V24.3203Z" fill="white"/>
<path d="M36.1152 23.5195H35.5058L35.4823 22.8867C35.3652 23.0221 35.2532 23.1354 35.1464 23.2266C35.0422 23.3151 34.9381 23.3867 34.8339 23.4414C34.7297 23.4961 34.6243 23.5339 34.5175 23.5547C34.4133 23.5781 34.3027 23.5898 34.1855 23.5898C33.7818 23.5898 33.4771 23.4714 33.2714 23.2344C33.0657 22.9974 32.9628 22.6393 32.9628 22.1602V19.5977H33.6425V22.1055C33.6425 22.707 33.8691 23.0078 34.3222 23.0078C34.4055 23.0078 34.4863 22.9961 34.5644 22.9727C34.6451 22.9466 34.7284 22.9036 34.8144 22.8438C34.9029 22.7812 34.9967 22.6979 35.0956 22.5938C35.1972 22.4896 35.3105 22.3581 35.4355 22.1992V19.5977H36.1152V23.5195Z" fill="white"/>
<path d="M39.1447 18L39.0314 19.832H38.3595L38.2502 18H39.1447Z" fill="white"/>
<path d="M41.5844 24.3203C41.7172 24.3255 41.8461 24.3138 41.9711 24.2852C42.0961 24.2565 42.2055 24.2135 42.2992 24.1562C42.3956 24.1016 42.4724 24.0326 42.5297 23.9492C42.587 23.8659 42.6156 23.7708 42.6156 23.6641C42.6156 23.5547 42.5961 23.4661 42.557 23.3984C42.5206 23.3307 42.4789 23.2682 42.432 23.2109C42.3852 23.1536 42.3422 23.0924 42.3031 23.0273C42.2667 22.9622 42.2484 22.875 42.2484 22.7656C42.2484 22.7109 42.2589 22.6536 42.2797 22.5938C42.3005 22.5339 42.3318 22.4792 42.3734 22.4297C42.4177 22.3802 42.4724 22.3398 42.5375 22.3086C42.6052 22.2773 42.6846 22.2617 42.7758 22.2617C42.8669 22.2617 42.9542 22.2812 43.0375 22.3203C43.1234 22.3568 43.1977 22.4141 43.2602 22.4922C43.3253 22.5703 43.376 22.668 43.4125 22.7852C43.4516 22.9023 43.4711 23.0404 43.4711 23.1992C43.4711 23.4154 43.4307 23.6224 43.35 23.8203C43.2719 24.0208 43.1534 24.1979 42.9945 24.3516C42.8383 24.5052 42.6417 24.6276 42.4047 24.7188C42.1703 24.8099 41.8969 24.8555 41.5844 24.8555V24.3203Z" fill="white"/>
<path d="M49.1959 18.4141L47.4616 23.5195H46.5241L44.8288 18.4141H45.6139L46.7155 21.8555L47.028 22.8633L47.3483 21.8555L48.4538 18.4141H49.1959Z" fill="white"/>
<path d="M53.1942 18.4141L52.8505 23.5195H51.9481L51.3153 21.7031L51.1395 21.1211L50.9559 21.75L50.37 23.5195H49.4989L49.1473 18.4141H49.8036L50.0028 21.8867L50.0614 22.8398L50.3075 22.0312L50.9247 20.1367H51.4052L52.1161 22.168L52.3544 22.8398L52.37 22.1367L52.5731 18.4141H53.1942Z" fill="white"/>
<path d="M57.4347 23.5195H56.5558L55.3136 21.457L54.0675 23.5195H53.2003L54.8995 20.9102L53.337 18.4141H54.1613L55.3292 20.3359L56.505 18.4141H57.3058L55.7394 20.8789L57.4347 23.5195Z" fill="white"/>
<path d="M61.6869 18.4141L59.8392 21.6953V23.5195H59.1361V21.6797L57.2884 18.4141H58.1283L59.1439 20.2812L59.5189 21.0312L59.8627 20.3516L60.89 18.4141H61.6869Z" fill="white"/>
<path d="M64.0953 18L63.982 19.832H63.3102L63.2008 18H64.0953Z" fill="white"/>
<path d="M24.9506 33.3203C25.0834 33.3255 25.2123 33.3138 25.3373 33.2852C25.4623 33.2565 25.5717 33.2135 25.6655 33.1562C25.7618 33.1016 25.8386 33.0326 25.8959 32.9492C25.9532 32.8659 25.9819 32.7708 25.9819 32.6641C25.9819 32.5547 25.9623 32.4661 25.9233 32.3984C25.8868 32.3307 25.8452 32.2682 25.7983 32.2109C25.7514 32.1536 25.7084 32.0924 25.6694 32.0273C25.6329 31.9622 25.6147 31.875 25.6147 31.7656C25.6147 31.7109 25.6251 31.6536 25.6459 31.5938C25.6668 31.5339 25.698 31.4792 25.7397 31.4297C25.784 31.3802 25.8386 31.3398 25.9037 31.3086C25.9715 31.2773 26.0509 31.2617 26.142 31.2617C26.2332 31.2617 26.3204 31.2812 26.4037 31.3203C26.4897 31.3568 26.5639 31.4141 26.6264 31.4922C26.6915 31.5703 26.7423 31.668 26.7787 31.7852C26.8178 31.9023 26.8373 32.0404 26.8373 32.1992C26.8373 32.4154 26.797 32.6224 26.7162 32.8203C26.6381 33.0208 26.5196 33.1979 26.3608 33.3516C26.2045 33.5052 26.0079 33.6276 25.7709 33.7188C25.5366 33.8099 25.2631 33.8555 24.9506 33.8555V33.3203Z" fill="white"/>
<path d="M32.0895 27.9609L29.4841 31.8711H32.1403V32.5195H28.613V32L31.2341 28.0469H28.6833V27.4141H32.0895V27.9609Z" fill="white"/>
<path d="M34.9863 27L34.873 28.832H34.2011L34.0917 27H34.9863Z" fill="white"/>
<path d="M37.4259 33.3203C37.5588 33.3255 37.6877 33.3138 37.8127 33.2852C37.9377 33.2565 38.047 33.2135 38.1408 33.1562C38.2371 33.1016 38.314 33.0326 38.3713 32.9492C38.4285 32.8659 38.4572 32.7708 38.4572 32.6641C38.4572 32.5547 38.4377 32.4661 38.3986 32.3984C38.3621 32.3307 38.3205 32.2682 38.2736 32.2109C38.2267 32.1536 38.1838 32.0924 38.1447 32.0273C38.1082 31.9622 38.09 31.875 38.09 31.7656C38.09 31.7109 38.1004 31.6536 38.1213 31.5938C38.1421 31.5339 38.1733 31.4792 38.215 31.4297C38.2593 31.3802 38.314 31.3398 38.3791 31.3086C38.4468 31.2773 38.5262 31.2617 38.6173 31.2617C38.7085 31.2617 38.7957 31.2812 38.8791 31.3203C38.965 31.3568 39.0392 31.4141 39.1017 31.4922C39.1668 31.5703 39.2176 31.668 39.2541 31.7852C39.2931 31.9023 39.3127 32.0404 39.3127 32.1992C39.3127 32.4154 39.2723 32.6224 39.1916 32.8203C39.1134 33.0208 38.9949 33.1979 38.8361 33.3516C38.6798 33.5052 38.4832 33.6276 38.2463 33.7188C38.0119 33.8099 37.7384 33.8555 37.4259 33.8555V33.3203Z" fill="white"/>
<path d="M45.0141 32.5195H44.2562L43.9008 31.4062H41.7758L41.4164 32.5195H40.6937L42.3891 27.4141H43.3422L45.0141 32.5195ZM43.7016 30.7852L42.8383 28.0547L41.975 30.7852H43.7016Z" fill="white"/>
<path d="M48.7819 30.9922C48.7819 31.237 48.7337 31.4544 48.6373 31.6445C48.5436 31.832 48.4082 31.9909 48.2311 32.1211C48.0566 32.2513 47.8444 32.3503 47.5944 32.418C47.347 32.4857 47.0709 32.5195 46.7663 32.5195H45.4303V27.4141H46.8913C48.0293 27.4141 48.5983 27.8281 48.5983 28.6562C48.5983 28.9323 48.5319 29.1693 48.3991 29.3672C48.2689 29.5651 48.0553 29.7122 47.7584 29.8086C47.8965 29.8346 48.0267 29.8789 48.1491 29.9414C48.2741 30.0039 48.3834 30.0846 48.4772 30.1836C48.5709 30.2826 48.6452 30.3997 48.6998 30.5352C48.7545 30.6706 48.7819 30.8229 48.7819 30.9922ZM47.8756 28.75C47.8756 28.6458 47.86 28.5482 47.8288 28.457C47.7975 28.3633 47.7428 28.2839 47.6647 28.2188C47.5866 28.151 47.4811 28.0977 47.3483 28.0586C47.2155 28.0195 47.0475 28 46.8444 28H46.1256V29.5977H46.8209C46.9798 29.5977 47.123 29.5807 47.2506 29.5469C47.3808 29.513 47.4915 29.4609 47.5827 29.3906C47.6764 29.3203 47.748 29.2331 47.7975 29.1289C47.8496 29.0221 47.8756 28.8958 47.8756 28.75ZM48.0436 31.0156C48.0436 30.8854 48.0163 30.7682 47.9616 30.6641C47.9069 30.5599 47.8274 30.4727 47.7233 30.4023C47.6191 30.3294 47.4915 30.2734 47.3405 30.2344C47.192 30.1953 47.0241 30.1758 46.8366 30.1758H46.1256V31.9336H46.86C47.2584 31.9336 47.5553 31.8594 47.7506 31.7109C47.9459 31.5625 48.0436 31.3307 48.0436 31.0156Z" fill="white"/>
<path d="M52.8583 32.3281C52.4494 32.4974 52.021 32.582 51.5731 32.582C50.8518 32.582 50.2971 32.3672 49.9091 31.9375C49.5236 31.5052 49.3309 30.8672 49.3309 30.0234C49.3309 29.6146 49.3843 29.2448 49.4911 28.9141C49.5979 28.5833 49.7502 28.3034 49.9481 28.0742C50.146 27.8424 50.3856 27.6641 50.6669 27.5391C50.9481 27.4141 51.2632 27.3516 51.6122 27.3516C51.8492 27.3516 52.0692 27.3724 52.2723 27.4141C52.4755 27.4531 52.6708 27.5143 52.8583 27.5977V28.2812C52.6734 28.1797 52.482 28.1029 52.2841 28.0508C52.0861 27.9961 51.87 27.9688 51.6356 27.9688C51.396 27.9688 51.1786 28.0143 50.9833 28.1055C50.7906 28.194 50.6265 28.3242 50.4911 28.4961C50.3557 28.6654 50.2515 28.8737 50.1786 29.1211C50.1057 29.3659 50.0692 29.6458 50.0692 29.9609C50.0692 30.6224 50.2033 31.1211 50.4716 31.457C50.7398 31.793 51.133 31.9609 51.6512 31.9609C51.87 31.9609 52.0796 31.9362 52.2802 31.8867C52.4807 31.8346 52.6734 31.763 52.8583 31.6719V32.3281Z" fill="white"/>
<path d="M57.2433 29.9102C57.2433 30.1549 57.2238 30.3893 57.1847 30.6133C57.1482 30.8372 57.0883 31.0456 57.005 31.2383C56.9217 31.431 56.8136 31.6068 56.6808 31.7656C56.548 31.9219 56.3852 32.056 56.1925 32.168C55.9998 32.2799 55.7758 32.3672 55.5206 32.4297C55.2654 32.4896 54.9751 32.5195 54.6495 32.5195H53.5558V27.4141H54.8722C55.6691 27.4141 56.2628 27.6198 56.6534 28.0312C57.0467 28.4401 57.2433 29.0664 57.2433 29.9102ZM56.5128 29.9609C56.5128 29.599 56.479 29.293 56.4113 29.043C56.3435 28.793 56.2407 28.5911 56.1027 28.4375C55.9646 28.2839 55.7915 28.1732 55.5831 28.1055C55.3748 28.0352 55.13 28 54.8488 28H54.2511V31.918H54.7706C55.9321 31.918 56.5128 31.2656 56.5128 29.9609Z" fill="white"/>
<path d="M59.9369 27L59.8236 28.832H59.1517L59.0423 27H59.9369Z" fill="white"/>
<path d="M20.7922 42.3203C20.925 42.3255 21.0539 42.3138 21.1789 42.2852C21.3039 42.2565 21.4133 42.2135 21.507 42.1562C21.6034 42.1016 21.6802 42.0326 21.7375 41.9492C21.7948 41.8659 21.8234 41.7708 21.8234 41.6641C21.8234 41.5547 21.8039 41.4661 21.7648 41.3984C21.7284 41.3307 21.6867 41.2682 21.6398 41.2109C21.593 41.1536 21.55 41.0924 21.5109 41.0273C21.4745 40.9622 21.4562 40.875 21.4562 40.7656C21.4562 40.7109 21.4667 40.6536 21.4875 40.5938C21.5083 40.5339 21.5396 40.4792 21.5812 40.4297C21.6255 40.3802 21.6802 40.3398 21.7453 40.3086C21.813 40.2773 21.8924 40.2617 21.9836 40.2617C22.0747 40.2617 22.162 40.2812 22.2453 40.3203C22.3312 40.3568 22.4055 40.4141 22.468 40.4922C22.5331 40.5703 22.5839 40.668 22.6203 40.7852C22.6594 40.9023 22.6789 41.0404 22.6789 41.1992C22.6789 41.4154 22.6385 41.6224 22.5578 41.8203C22.4797 42.0208 22.3612 42.1979 22.2023 42.3516C22.0461 42.5052 21.8495 42.6276 21.6125 42.7188C21.3781 42.8099 21.1047 42.8555 20.7922 42.8555V42.3203Z" fill="white"/>
<path d="M27.7084 41.5195H24.8061V36.4141H27.7084V37H25.5014V38.582H27.6225V39.168H25.5014V40.9258H27.7084V41.5195Z" fill="white"/>
<path d="M30.8278 36L30.7145 37.832H30.0427L29.9333 36H30.8278Z" fill="white"/>
<path d="M33.2675 42.3203C33.4003 42.3255 33.5292 42.3138 33.6542 42.2852C33.7792 42.2565 33.8886 42.2135 33.9823 42.1562C34.0787 42.1016 34.1555 42.0326 34.2128 41.9492C34.2701 41.8659 34.2988 41.7708 34.2988 41.6641C34.2988 41.5547 34.2792 41.4661 34.2402 41.3984C34.2037 41.3307 34.162 41.2682 34.1152 41.2109C34.0683 41.1536 34.0253 41.0924 33.9863 41.0273C33.9498 40.9622 33.9316 40.875 33.9316 40.7656C33.9316 40.7109 33.942 40.6536 33.9628 40.5938C33.9836 40.5339 34.0149 40.4792 34.0566 40.4297C34.1008 40.3802 34.1555 40.3398 34.2206 40.3086C34.2883 40.2773 34.3678 40.2617 34.4589 40.2617C34.5501 40.2617 34.6373 40.2812 34.7206 40.3203C34.8066 40.3568 34.8808 40.4141 34.9433 40.4922C35.0084 40.5703 35.0592 40.668 35.0956 40.7852C35.1347 40.9023 35.1542 41.0404 35.1542 41.1992C35.1542 41.4154 35.1139 41.6224 35.0331 41.8203C34.955 42.0208 34.8365 42.1979 34.6777 42.3516C34.5214 42.5052 34.3248 42.6276 34.0878 42.7188C33.8534 42.8099 33.58 42.8555 33.2675 42.8555V42.3203Z" fill="white"/>
<path d="M40.1759 37.0078H38.008V38.6641H40.0627V39.2461H38.008V41.5195H37.297V36.4141H40.1759V37.0078Z" fill="white"/>
<path d="M44.5844 37.2891C44.3943 37.1875 44.199 37.1094 43.9984 37.0547C43.7979 36.9974 43.5792 36.9688 43.3422 36.9688C43.0714 36.9688 42.8305 37.0169 42.6195 37.1133C42.4086 37.2096 42.2302 37.3464 42.0844 37.5234C41.9411 37.6979 41.8305 37.9089 41.7523 38.1562C41.6768 38.4036 41.6391 38.6771 41.6391 38.9766C41.6391 39.2891 41.6703 39.569 41.7328 39.8164C41.7953 40.0638 41.893 40.2734 42.0258 40.4453C42.1586 40.6172 42.3279 40.7487 42.5336 40.8398C42.7419 40.931 42.9906 40.9766 43.2797 40.9766C43.3292 40.9766 43.3826 40.974 43.4398 40.9688C43.4971 40.9635 43.5544 40.957 43.6117 40.9492C43.669 40.9388 43.7237 40.9271 43.7758 40.9141C43.8305 40.901 43.8786 40.8867 43.9203 40.8711V39.2461H42.8773V38.6719H44.6078V41.2812C44.501 41.3307 44.3878 41.375 44.268 41.4141C44.1508 41.4531 44.0297 41.4857 43.9047 41.5117C43.7823 41.5378 43.6599 41.5573 43.5375 41.5703C43.4151 41.5833 43.2966 41.5898 43.182 41.5898C42.8331 41.5898 42.518 41.5352 42.2367 41.4258C41.9581 41.3164 41.7198 41.1549 41.5219 40.9414C41.3266 40.7253 41.1755 40.457 41.0687 40.1367C40.9646 39.8164 40.9125 39.4453 40.9125 39.0234C40.9125 38.6042 40.9711 38.2292 41.0883 37.8984C41.2055 37.5651 41.3695 37.2839 41.5805 37.0547C41.794 36.8229 42.0492 36.6471 42.3461 36.5273C42.6456 36.4049 42.975 36.3438 43.3344 36.3438C43.5635 36.3438 43.781 36.3646 43.9867 36.4062C44.1951 36.4453 44.3943 36.5091 44.5844 36.5977V37.2891Z" fill="white"/>
<path d="M48.7819 41.5195H48.0866V39.1758H45.942V41.5195H45.2467V36.4141H45.942V38.5742H48.0866V36.4141H48.7819V41.5195Z" fill="white"/>
<path d="M50.8192 37H49.6434V36.4141H52.6981V37H51.5223V40.9258H52.6981V41.5195H49.6434V40.9258H50.8192V37Z" fill="white"/>
<path d="M55.7784 36L55.6652 37.832H54.9933L54.8839 36H55.7784Z" fill="white"/>
<path d="M16.6338 51.3203C16.7666 51.3255 16.8955 51.3138 17.0205 51.2852C17.1455 51.2565 17.2548 51.2135 17.3486 51.1562C17.4449 51.1016 17.5218 51.0326 17.5791 50.9492C17.6364 50.8659 17.665 50.7708 17.665 50.6641C17.665 50.5547 17.6455 50.4661 17.6064 50.3984C17.5699 50.3307 17.5283 50.2682 17.4814 50.2109C17.4345 50.1536 17.3916 50.0924 17.3525 50.0273C17.316 49.9622 17.2978 49.875 17.2978 49.7656C17.2978 49.7109 17.3082 49.6536 17.3291 49.5938C17.3499 49.5339 17.3811 49.4792 17.4228 49.4297C17.4671 49.3802 17.5218 49.3398 17.5869 49.3086C17.6546 49.2773 17.734 49.2617 17.8252 49.2617C17.9163 49.2617 18.0035 49.2812 18.0869 49.3203C18.1728 49.3568 18.247 49.4141 18.3095 49.4922C18.3746 49.5703 18.4254 49.668 18.4619 49.7852C18.5009 49.9023 18.5205 50.0404 18.5205 50.1992C18.5205 50.4154 18.4801 50.6224 18.3994 50.8203C18.3213 51.0208 18.2028 51.1979 18.0439 51.3516C17.8877 51.5052 17.691 51.6276 17.4541 51.7188C17.2197 51.8099 16.9463 51.8555 16.6338 51.8555V51.3203Z" fill="white"/>
<path d="M23.2883 45.4141V48.9609C23.2883 49.1797 23.2557 49.388 23.1906 49.5859C23.1255 49.7812 23.0266 49.9518 22.8937 50.0977C22.7609 50.2435 22.5943 50.3594 22.3937 50.4453C22.1932 50.5312 21.9576 50.5742 21.6867 50.5742C21.5852 50.5742 21.481 50.5664 21.3742 50.5508C21.2701 50.5378 21.1685 50.5195 21.0695 50.4961C20.9732 50.4701 20.882 50.4401 20.7961 50.4062C20.7102 50.3698 20.6359 50.3307 20.5734 50.2891V49.5898C20.7349 49.707 20.9133 49.7995 21.1086 49.8672C21.3065 49.9349 21.5018 49.9688 21.6945 49.9688C21.9784 49.9688 22.1971 49.8828 22.3508 49.7109C22.5044 49.5365 22.5812 49.2865 22.5812 48.9609V46.0156H20.6398V45.4141H23.2883Z" fill="white"/>
<path d="M26.6694 45L26.5561 46.832H25.8842L25.7748 45H26.6694Z" fill="white"/>
<path d="M29.1091 51.3203C29.2419 51.3255 29.3708 51.3138 29.4958 51.2852C29.6208 51.2565 29.7302 51.2135 29.8239 51.1562C29.9203 51.1016 29.9971 51.0326 30.0544 50.9492C30.1117 50.8659 30.1403 50.7708 30.1403 50.6641C30.1403 50.5547 30.1208 50.4661 30.0817 50.3984C30.0453 50.3307 30.0036 50.2682 29.9567 50.2109C29.9098 50.1536 29.8669 50.0924 29.8278 50.0273C29.7914 49.9622 29.7731 49.875 29.7731 49.7656C29.7731 49.7109 29.7835 49.6536 29.8044 49.5938C29.8252 49.5339 29.8565 49.4792 29.8981 49.4297C29.9424 49.3802 29.9971 49.3398 30.0622 49.3086C30.1299 49.2773 30.2093 49.2617 30.3005 49.2617C30.3916 49.2617 30.4789 49.2812 30.5622 49.3203C30.6481 49.3568 30.7223 49.4141 30.7848 49.4922C30.8499 49.5703 30.9007 49.668 30.9372 49.7852C30.9762 49.9023 30.9958 50.0404 30.9958 50.1992C30.9958 50.4154 30.9554 50.6224 30.8747 50.8203C30.7966 51.0208 30.6781 51.1979 30.5192 51.3516C30.363 51.5052 30.1664 51.6276 29.9294 51.7188C29.695 51.8099 29.4216 51.8555 29.1091 51.8555V51.3203Z" fill="white"/>
<path d="M36.4277 50.5195H35.5527L33.6425 48.0156V50.5195H32.9472V45.4141H33.6425V47.7852L35.5136 45.4141H36.3378L34.3222 47.8398L36.4277 50.5195Z" fill="white"/>
<path d="M40.3439 50.5195H37.4064V45.4141H38.1134V49.9258H40.3439V50.5195Z" fill="white"/>
<path d="M44.8617 50.5195H44.182L44.0805 47.3359L44.0375 46.1133L43.7992 46.8242L43.0453 48.8555H42.5648L41.8461 46.9023L41.6078 46.1133L41.5922 47.3906L41.5023 50.5195H40.8461L41.0961 45.4141H41.9203L42.6078 47.3359L42.8305 47.9844L43.0453 47.3359L43.768 45.4141H44.6156L44.8617 50.5195Z" fill="white"/>
<path d="M48.7506 50.5195H47.8444L46.3561 47.3359L45.9264 46.3125V50.5195H45.278V45.4141H46.1725L47.5905 48.4297L48.1022 49.5977V45.4141H48.7506V50.5195Z" fill="white"/>
<path d="M51.62 45L51.5067 46.832H50.8348L50.7255 45H51.62Z" fill="white"/>
<path d="M12.4753 60.3203C12.6081 60.3255 12.737 60.3138 12.862 60.2852C12.987 60.2565 13.0964 60.2135 13.1902 60.1562C13.2865 60.1016 13.3633 60.0326 13.4206 59.9492C13.4779 59.8659 13.5066 59.7708 13.5066 59.6641C13.5066 59.5547 13.487 59.4661 13.448 59.3984C13.4115 59.3307 13.3698 59.2682 13.323 59.2109C13.2761 59.1536 13.2331 59.0924 13.1941 59.0273C13.1576 58.9622 13.1394 58.875 13.1394 58.7656C13.1394 58.7109 13.1498 58.6536 13.1706 58.5938C13.1915 58.5339 13.2227 58.4792 13.2644 58.4297C13.3086 58.3802 13.3633 58.3398 13.4284 58.3086C13.4961 58.2773 13.5756 58.2617 13.6667 58.2617C13.7579 58.2617 13.8451 58.2812 13.9284 58.3203C14.0144 58.3568 14.0886 58.4141 14.1511 58.4922C14.2162 58.5703 14.267 58.668 14.3034 58.7852C14.3425 58.9023 14.362 59.0404 14.362 59.1992C14.362 59.4154 14.3217 59.6224 14.2409 59.8203C14.1628 60.0208 14.0443 60.1979 13.8855 60.3516C13.7292 60.5052 13.5326 60.6276 13.2956 60.7188C13.0612 60.8099 12.7878 60.8555 12.4753 60.8555V60.3203Z" fill="white"/>
<path d="M19.8877 56.9336C19.8877 57.3919 19.833 57.7878 19.7236 58.1211C19.6168 58.4544 19.471 58.7305 19.2861 58.9492C19.1038 59.1654 18.889 59.3268 18.6416 59.4336C18.3968 59.5378 18.1377 59.5898 17.8642 59.5898C17.5361 59.5898 17.2496 59.5312 17.0048 59.4141C16.7627 59.2943 16.5608 59.1224 16.3994 58.8984C16.2405 58.6745 16.122 58.4023 16.0439 58.082C15.9658 57.7591 15.9267 57.3958 15.9267 56.9922C15.9267 56.5391 15.9801 56.1458 16.0869 55.8125C16.1936 55.4792 16.3382 55.2044 16.5205 54.9883C16.7054 54.7695 16.9202 54.6081 17.165 54.5039C17.4098 54.3971 17.6689 54.3438 17.9423 54.3438C18.2705 54.3438 18.5556 54.4036 18.7978 54.5234C19.0426 54.6432 19.2457 54.8151 19.4072 55.0391C19.5686 55.2604 19.6884 55.5312 19.7666 55.8516C19.8473 56.1719 19.8877 56.5326 19.8877 56.9336ZM19.165 56.9844C19.165 56.6849 19.1416 56.4115 19.0947 56.1641C19.0504 55.9141 18.9775 55.6992 18.8759 55.5195C18.7744 55.3398 18.6429 55.2005 18.4814 55.1016C18.3226 55.0026 18.1298 54.9531 17.9033 54.9531C17.6845 54.9531 17.4957 55.0065 17.3369 55.1133C17.1806 55.2174 17.0517 55.3607 16.9502 55.543C16.8486 55.7227 16.7731 55.9349 16.7236 56.1797C16.6741 56.4219 16.6494 56.6797 16.6494 56.9531C16.6494 57.2552 16.6728 57.5312 16.7197 57.7812C16.7666 58.0286 16.8395 58.2422 16.9384 58.4219C17.04 58.599 17.1702 58.737 17.3291 58.8359C17.4879 58.9349 17.6793 58.9844 17.9033 58.9844C18.122 58.9844 18.3108 58.9323 18.4697 58.8281C18.6285 58.7214 18.7588 58.5781 18.8603 58.3984C18.9645 58.2161 19.0413 58.0039 19.0908 57.7617C19.1403 57.5195 19.165 57.2604 19.165 56.9844Z" fill="white"/>
<path d="M22.5109 54L22.3977 55.832H21.7258L21.6164 54H22.5109Z" fill="white"/>
<path d="M24.9506 60.3203C25.0834 60.3255 25.2123 60.3138 25.3373 60.2852C25.4623 60.2565 25.5717 60.2135 25.6655 60.1562C25.7618 60.1016 25.8386 60.0326 25.8959 59.9492C25.9532 59.8659 25.9819 59.7708 25.9819 59.6641C25.9819 59.5547 25.9623 59.4661 25.9233 59.3984C25.8868 59.3307 25.8452 59.2682 25.7983 59.2109C25.7514 59.1536 25.7084 59.0924 25.6694 59.0273C25.6329 58.9622 25.6147 58.875 25.6147 58.7656C25.6147 58.7109 25.6251 58.6536 25.6459 58.5938C25.6668 58.5339 25.698 58.4792 25.7397 58.4297C25.784 58.3802 25.8386 58.3398 25.9037 58.3086C25.9715 58.2773 26.0509 58.2617 26.142 58.2617C26.2332 58.2617 26.3204 58.2812 26.4037 58.3203C26.4897 58.3568 26.5639 58.4141 26.6264 58.4922C26.6915 58.5703 26.7423 58.668 26.7787 58.7852C26.8178 58.9023 26.8373 59.0404 26.8373 59.1992C26.8373 59.4154 26.797 59.6224 26.7162 59.8203C26.6381 60.0208 26.5196 60.1979 26.3608 60.3516C26.2045 60.5052 26.0079 60.6276 25.7709 60.7188C25.5366 60.8099 25.2631 60.8555 24.9506 60.8555V60.3203Z" fill="white"/>
<path d="M32.1481 55.9766C32.1481 56.1849 32.1091 56.3919 32.0309 56.5977C31.9528 56.8008 31.8317 56.9831 31.6677 57.1445C31.5036 57.306 31.294 57.4375 31.0387 57.5391C30.7835 57.638 30.4789 57.6875 30.1247 57.6875H29.4919V59.5195H28.7966V54.4141H30.2341C30.4867 54.4141 30.7289 54.4427 30.9606 54.5C31.1924 54.5547 31.3955 54.6445 31.57 54.7695C31.7471 54.8945 31.8877 55.056 31.9919 55.2539C32.096 55.4518 32.1481 55.6927 32.1481 55.9766ZM31.4255 56.0078C31.4255 55.6797 31.3174 55.4284 31.1012 55.2539C30.8877 55.0794 30.5882 54.9922 30.2028 54.9922H29.4919V57.0938H30.1403C30.5518 57.0938 30.8682 57.0039 31.0895 56.8242C31.3135 56.6445 31.4255 56.3724 31.4255 56.0078Z" fill="white"/>
<path d="M34.162 59.5664C33.8912 59.5273 33.6555 59.4414 33.455 59.3086C33.2545 59.1758 33.0878 59.0013 32.955 58.7852C32.8222 58.5664 32.7232 58.3099 32.6581 58.0156C32.593 57.7188 32.5605 57.3906 32.5605 57.0312C32.5605 56.5677 32.6139 56.1667 32.7206 55.8281C32.8274 55.4896 32.9719 55.2109 33.1542 54.9922C33.3391 54.7708 33.554 54.6081 33.7988 54.5039C34.0435 54.3971 34.3027 54.3438 34.5761 54.3438C34.9042 54.3438 35.1894 54.4036 35.4316 54.5234C35.6764 54.6406 35.8795 54.8112 36.0409 55.0352C36.2024 55.2565 36.3222 55.526 36.4003 55.8438C36.481 56.1589 36.5214 56.5143 36.5214 56.9102C36.5214 57.3268 36.4771 57.6927 36.3886 58.0078C36.3001 58.3203 36.179 58.5859 36.0253 58.8047C35.8717 59.0234 35.6907 59.1953 35.4823 59.3203C35.274 59.4453 35.0501 59.5273 34.8105 59.5664C34.8495 59.7956 34.9407 59.9792 35.0839 60.1172C35.2271 60.2578 35.429 60.3281 35.6894 60.3281C35.8144 60.3281 35.9368 60.3073 36.0566 60.2656C36.179 60.224 36.3027 60.1536 36.4277 60.0547L36.7363 60.5352C36.5644 60.6758 36.3873 60.776 36.205 60.8359C36.0227 60.8958 35.8352 60.9258 35.6425 60.9258C35.4342 60.9258 35.2428 60.8971 35.0683 60.8398C34.8938 60.7826 34.7415 60.6966 34.6113 60.582C34.4836 60.4701 34.3808 60.3281 34.3027 60.1562C34.2245 59.987 34.1777 59.7904 34.162 59.5664ZM35.7988 56.9922C35.7988 56.6901 35.7753 56.4154 35.7284 56.168C35.6842 55.918 35.6113 55.7044 35.5097 55.5273C35.4081 55.3477 35.2766 55.2083 35.1152 55.1094C34.9563 55.0104 34.7636 54.9609 34.537 54.9609C34.3183 54.9609 34.1295 55.013 33.9706 55.1172C33.8144 55.2214 33.6855 55.3633 33.5839 55.543C33.4823 55.7201 33.4068 55.9284 33.3573 56.168C33.3079 56.4049 33.2831 56.6576 33.2831 56.9258C33.2831 57.2357 33.3066 57.5169 33.3534 57.7695C33.4003 58.0195 33.4732 58.2344 33.5722 58.4141C33.6738 58.5938 33.804 58.7331 33.9628 58.832C34.1217 58.9284 34.3131 58.9766 34.537 58.9766C34.7558 58.9766 34.9446 58.9245 35.1034 58.8203C35.2623 58.7161 35.3925 58.5742 35.4941 58.3945C35.5982 58.2148 35.6751 58.0052 35.7245 57.7656C35.774 57.5234 35.7988 57.2656 35.7988 56.9922Z" fill="white"/>
<path d="M40.6017 59.5195H39.8166L39.0548 57.8867C38.9976 57.7617 38.939 57.6589 38.8791 57.5781C38.8192 57.4948 38.7541 57.4297 38.6838 57.3828C38.616 57.3333 38.5405 57.2982 38.4572 57.2773C38.3765 57.2565 38.2853 57.2461 38.1838 57.2461H37.8556V59.5195H37.1603V54.4141H38.5275C38.8244 54.4141 39.0796 54.4466 39.2931 54.5117C39.5067 54.5768 39.6811 54.668 39.8166 54.7852C39.9546 54.9023 40.0548 55.0443 40.1173 55.2109C40.1824 55.375 40.215 55.5573 40.215 55.7578C40.215 55.9167 40.1916 56.0677 40.1447 56.2109C40.0978 56.3516 40.0275 56.4805 39.9338 56.5977C39.8426 56.7122 39.728 56.8125 39.59 56.8984C39.4546 56.9818 39.2983 57.0443 39.1213 57.0859C39.2645 57.1354 39.3856 57.2227 39.4845 57.3477C39.5861 57.4701 39.689 57.6341 39.7931 57.8398L40.6017 59.5195ZM39.4884 55.8164C39.4884 55.543 39.4025 55.3385 39.2306 55.2031C39.0614 55.0677 38.8218 55 38.5119 55H37.8556V56.6875H38.4181C38.5822 56.6875 38.7293 56.6693 38.8595 56.6328C38.9923 56.5938 39.1043 56.5378 39.1955 56.4648C39.2892 56.3893 39.3608 56.2982 39.4103 56.1914C39.4624 56.082 39.4884 55.957 39.4884 55.8164Z" fill="white"/>
<path d="M44.5492 58.1367C44.5492 58.3789 44.4997 58.5911 44.4008 58.7734C44.3018 58.9557 44.1638 59.1081 43.9867 59.2305C43.8096 59.3503 43.5961 59.4401 43.3461 59.5C43.0987 59.5599 42.8253 59.5898 42.5258 59.5898C42.3904 59.5898 42.2549 59.5846 42.1195 59.5742C41.9867 59.5638 41.8578 59.5508 41.7328 59.5352C41.6104 59.5195 41.4945 59.5013 41.3852 59.4805C41.2758 59.4596 41.1768 59.4375 41.0883 59.4141V58.7422C41.2836 58.8151 41.5023 58.8724 41.7445 58.9141C41.9893 58.9557 42.2667 58.9766 42.5766 58.9766C42.8005 58.9766 42.9906 58.9596 43.1469 58.9258C43.3057 58.8893 43.4346 58.8372 43.5336 58.7695C43.6352 58.6992 43.7081 58.6146 43.7523 58.5156C43.7992 58.4167 43.8227 58.3034 43.8227 58.1758C43.8227 58.0378 43.7836 57.9206 43.7055 57.8242C43.6299 57.7253 43.5297 57.638 43.4047 57.5625C43.2797 57.4844 43.1365 57.4141 42.975 57.3516C42.8161 57.2865 42.6534 57.2201 42.4867 57.1523C42.3201 57.0846 42.156 57.0117 41.9945 56.9336C41.8357 56.8529 41.6937 56.7591 41.5687 56.6523C41.4437 56.543 41.3422 56.4154 41.2641 56.2695C41.1885 56.1237 41.1508 55.9505 41.1508 55.75C41.1508 55.5755 41.1872 55.4036 41.2602 55.2344C41.3331 55.0651 41.4464 54.9154 41.6 54.7852C41.7536 54.6523 41.9503 54.5456 42.1898 54.4648C42.432 54.3841 42.7198 54.3438 43.0531 54.3438C43.1391 54.3438 43.2315 54.3477 43.3305 54.3555C43.432 54.3633 43.5336 54.375 43.6352 54.3906C43.7393 54.4036 43.8409 54.4193 43.9398 54.4375C44.0414 54.4557 44.1352 54.4753 44.2211 54.4961V55.1211C44.0206 55.0638 43.8201 55.0208 43.6195 54.9922C43.419 54.9609 43.225 54.9453 43.0375 54.9453C42.6391 54.9453 42.3461 55.0117 42.1586 55.1445C41.9711 55.2773 41.8773 55.4557 41.8773 55.6797C41.8773 55.8177 41.9151 55.9362 41.9906 56.0352C42.0687 56.1341 42.1703 56.2227 42.2953 56.3008C42.4203 56.3789 42.5622 56.4505 42.7211 56.5156C42.8826 56.5781 43.0466 56.6432 43.2133 56.7109C43.3799 56.7786 43.5427 56.8529 43.7016 56.9336C43.863 57.0143 44.0062 57.1107 44.1312 57.2227C44.2562 57.332 44.3565 57.4609 44.432 57.6094C44.5102 57.7578 44.5492 57.9336 44.5492 58.1367Z" fill="white"/>
<path d="M47.4616 54L47.3483 55.832H46.6764L46.567 54H47.4616Z" fill="white"/>
<path d="M8.31688 69.3203C8.44969 69.3255 8.57859 69.3138 8.70359 69.2852C8.82859 69.2565 8.93797 69.2135 9.03172 69.1562C9.12807 69.1016 9.2049 69.0326 9.26219 68.9492C9.31948 68.8659 9.34813 68.7708 9.34813 68.6641C9.34813 68.5547 9.32859 68.4661 9.28953 68.3984C9.25307 68.3307 9.21141 68.2682 9.16453 68.2109C9.11766 68.1536 9.07469 68.0924 9.03563 68.0273C8.99917 67.9622 8.98094 67.875 8.98094 67.7656C8.98094 67.7109 8.99135 67.6536 9.01219 67.5938C9.03302 67.5339 9.06427 67.4792 9.10594 67.4297C9.15021 67.3802 9.2049 67.3398 9.27 67.3086C9.33771 67.2773 9.41714 67.2617 9.50828 67.2617C9.59943 67.2617 9.68667 67.2812 9.77 67.3203C9.85594 67.3568 9.93016 67.4141 9.99266 67.4922C10.0578 67.5703 10.1085 67.668 10.145 67.7852C10.1841 67.9023 10.2036 68.0404 10.2036 68.1992C10.2036 68.4154 10.1632 68.6224 10.0825 68.8203C10.0044 69.0208 9.88589 69.1979 9.72703 69.3516C9.57078 69.5052 9.37417 69.6276 9.13719 69.7188C8.90281 69.8099 8.62938 69.8555 8.31688 69.8555V69.3203Z" fill="white"/>
<path d="M15.6081 64.0078H14.0964V68.5195H13.3933V64.0078H11.8816V63.4141H15.6081V64.0078Z" fill="white"/>
<path d="M18.3525 63L18.2392 64.832H17.5673L17.458 63H18.3525Z" fill="white"/>
<path d="M20.7922 69.3203C20.925 69.3255 21.0539 69.3138 21.1789 69.2852C21.3039 69.2565 21.4133 69.2135 21.507 69.1562C21.6034 69.1016 21.6802 69.0326 21.7375 68.9492C21.7948 68.8659 21.8234 68.7708 21.8234 68.6641C21.8234 68.5547 21.8039 68.4661 21.7648 68.3984C21.7284 68.3307 21.6867 68.2682 21.6398 68.2109C21.593 68.1536 21.55 68.0924 21.5109 68.0273C21.4745 67.9622 21.4562 67.875 21.4562 67.7656C21.4562 67.7109 21.4667 67.6536 21.4875 67.5938C21.5083 67.5339 21.5396 67.4792 21.5812 67.4297C21.6255 67.3802 21.6802 67.3398 21.7453 67.3086C21.813 67.2773 21.8924 67.2617 21.9836 67.2617C22.0747 67.2617 22.162 67.2812 22.2453 67.3203C22.3312 67.3568 22.4055 67.4141 22.468 67.4922C22.5331 67.5703 22.5839 67.668 22.6203 67.7852C22.6594 67.9023 22.6789 68.0404 22.6789 68.1992C22.6789 68.4154 22.6385 68.6224 22.5578 68.8203C22.4797 69.0208 22.3612 69.1979 22.2023 69.3516C22.0461 69.5052 21.8495 69.6276 21.6125 69.7188C21.3781 69.8099 21.1047 69.8555 20.7922 69.8555V69.3203Z" fill="white"/>
<path d="M27.9975 66.7422C27.9975 67.0234 27.9571 67.2786 27.8764 67.5078C27.7983 67.7344 27.6824 67.9284 27.5287 68.0898C27.3751 68.2487 27.1863 68.3724 26.9623 68.4609C26.741 68.5469 26.4858 68.5898 26.1967 68.5898C25.879 68.5898 25.6095 68.5482 25.3881 68.4648C25.1668 68.3815 24.9858 68.2643 24.8452 68.1133C24.7071 67.9596 24.6056 67.776 24.5405 67.5625C24.478 67.349 24.4467 67.1107 24.4467 66.8477V63.4141H25.142V66.793C25.142 66.9935 25.1603 67.1693 25.1967 67.3203C25.2358 67.4714 25.2983 67.5977 25.3842 67.6992C25.4702 67.8008 25.5808 67.8776 25.7162 67.9297C25.8543 67.9818 26.0222 68.0078 26.2202 68.0078C26.5899 68.0078 26.8621 67.901 27.0366 67.6875C27.2136 67.474 27.3022 67.1732 27.3022 66.7852V63.4141H27.9975V66.7422Z" fill="white"/>
<path d="M32.5622 63.4141L30.8278 68.5195H29.8903L28.195 63.4141H28.9802L30.0817 66.8555L30.3942 67.8633L30.7145 66.8555L31.82 63.4141H32.5622Z" fill="white"/>
<path d="M36.5605 63.4141L36.2167 68.5195H35.3144L34.6816 66.7031L34.5058 66.1211L34.3222 66.75L33.7363 68.5195H32.8652L32.5136 63.4141H33.1698L33.3691 66.8867L33.4277 67.8398L33.6738 67.0312L34.2909 65.1367H34.7714L35.4823 67.168L35.7206 67.8398L35.7363 67.1367L35.9394 63.4141H36.5605Z" fill="white"/>
<path d="M40.8009 68.5195H39.922L38.6798 66.457L37.4338 68.5195H36.5666L38.2658 65.9102L36.7033 63.4141H37.5275L38.6955 65.3359L39.8713 63.4141H40.672L39.1056 65.8789L40.8009 68.5195Z" fill="white"/>
<path d="M43.3031 63L43.1898 64.832H42.518L42.4086 63H43.3031Z" fill="white"/>
<path d="M4.15844 78.3203C4.29125 78.3255 4.42016 78.3138 4.54516 78.2852C4.67016 78.2565 4.77953 78.2135 4.87328 78.1562C4.96964 78.1016 5.04646 78.0326 5.10375 77.9492C5.16104 77.8659 5.18969 77.7708 5.18969 77.6641C5.18969 77.5547 5.17016 77.4661 5.13109 77.3984C5.09464 77.3307 5.05297 77.2682 5.00609 77.2109C4.95922 77.1536 4.91625 77.0924 4.87719 77.0273C4.84073 76.9622 4.8225 76.875 4.8225 76.7656C4.8225 76.7109 4.83292 76.6536 4.85375 76.5938C4.87458 76.5339 4.90583 76.4792 4.9475 76.4297C4.99177 76.3802 5.04646 76.3398 5.11156 76.3086C5.17927 76.2773 5.2587 76.2617 5.34984 76.2617C5.44099 76.2617 5.52823 76.2812 5.61156 76.3203C5.6975 76.3568 5.77172 76.4141 5.83422 76.4922C5.89932 76.5703 5.9501 76.668 5.98656 76.7852C6.02563 76.9023 6.04516 77.0404 6.04516 77.1992C6.04516 77.4154 6.00479 77.6224 5.92406 77.8203C5.84594 78.0208 5.72745 78.1979 5.56859 78.3516C5.41234 78.5052 5.21573 78.6276 4.97875 78.7188C4.74438 78.8099 4.47094 78.8555 4.15844 78.8555V78.3203Z" fill="white"/>
<path d="M11.7856 72.4141L9.93797 75.6953V77.5195H9.23484V75.6797L7.38719 72.4141H8.22703L9.24266 74.2812L9.61766 75.0312L9.96141 74.3516L10.9888 72.4141H11.7856Z" fill="white"/>
<path d="M14.1941 72L14.0808 73.832H13.4089L13.2995 72H14.1941Z" fill="white"/>
<path d="M16.6338 78.3203C16.7666 78.3255 16.8955 78.3138 17.0205 78.2852C17.1455 78.2565 17.2548 78.2135 17.3486 78.1562C17.4449 78.1016 17.5218 78.0326 17.5791 77.9492C17.6364 77.8659 17.665 77.7708 17.665 77.6641C17.665 77.5547 17.6455 77.4661 17.6064 77.3984C17.5699 77.3307 17.5283 77.2682 17.4814 77.2109C17.4345 77.1536 17.3916 77.0924 17.3525 77.0273C17.316 76.9622 17.2978 76.875 17.2978 76.7656C17.2978 76.7109 17.3082 76.6536 17.3291 76.5938C17.3499 76.5339 17.3811 76.4792 17.4228 76.4297C17.4671 76.3802 17.5218 76.3398 17.5869 76.3086C17.6546 76.2773 17.734 76.2617 17.8252 76.2617C17.9163 76.2617 18.0035 76.2812 18.0869 76.3203C18.1728 76.3568 18.247 76.4141 18.3095 76.4922C18.3746 76.5703 18.4254 76.668 18.4619 76.7852C18.5009 76.9023 18.5205 77.0404 18.5205 77.1992C18.5205 77.4154 18.4801 77.6224 18.3994 77.8203C18.3213 78.0208 18.2028 78.1979 18.0439 78.3516C17.8877 78.5052 17.691 78.6276 17.4541 78.7188C17.2197 78.8099 16.9463 78.8555 16.6338 78.8555V78.3203Z" fill="white"/>
<path d="M23.7727 72.9609L21.1672 76.8711H23.8234V77.5195H20.2961V77L22.9172 73.0469H20.3664V72.4141H23.7727V72.9609Z" fill="white"/>
<path d="M28.3803 77.5195H27.6225L27.267 76.4062H25.142L24.7827 77.5195H24.06L25.7553 72.4141H26.7084L28.3803 77.5195ZM27.0678 75.7852L26.2045 73.0547L25.3412 75.7852H27.0678Z" fill="white"/>
<path d="M32.1481 75.9922C32.1481 76.237 32.0999 76.4544 32.0036 76.6445C31.9098 76.832 31.7744 76.9909 31.5973 77.1211C31.4229 77.2513 31.2106 77.3503 30.9606 77.418C30.7132 77.4857 30.4372 77.5195 30.1325 77.5195H28.7966V72.4141H30.2575C31.3955 72.4141 31.9645 72.8281 31.9645 73.6562C31.9645 73.9323 31.8981 74.1693 31.7653 74.3672C31.6351 74.5651 31.4216 74.7122 31.1247 74.8086C31.2627 74.8346 31.3929 74.8789 31.5153 74.9414C31.6403 75.0039 31.7497 75.0846 31.8434 75.1836C31.9372 75.2826 32.0114 75.3997 32.0661 75.5352C32.1208 75.6706 32.1481 75.8229 32.1481 75.9922ZM31.2419 73.75C31.2419 73.6458 31.2262 73.5482 31.195 73.457C31.1637 73.3633 31.1091 73.2839 31.0309 73.2188C30.9528 73.151 30.8473 73.0977 30.7145 73.0586C30.5817 73.0195 30.4137 73 30.2106 73H29.4919V74.5977H30.1872C30.346 74.5977 30.4893 74.5807 30.6169 74.5469C30.7471 74.513 30.8578 74.4609 30.9489 74.3906C31.0427 74.3203 31.1143 74.2331 31.1637 74.1289C31.2158 74.0221 31.2419 73.8958 31.2419 73.75ZM31.4098 76.0156C31.4098 75.8854 31.3825 75.7682 31.3278 75.6641C31.2731 75.5599 31.1937 75.4727 31.0895 75.4023C30.9854 75.3294 30.8578 75.2734 30.7067 75.2344C30.5583 75.1953 30.3903 75.1758 30.2028 75.1758H29.4919V76.9336H30.2262C30.6247 76.9336 30.9216 76.8594 31.1169 76.7109C31.3122 76.5625 31.4098 76.3307 31.4098 76.0156Z" fill="white"/>
<path d="M36.2245 77.3281C35.8157 77.4974 35.3873 77.582 34.9394 77.582C34.218 77.582 33.6633 77.3672 33.2753 76.9375C32.8899 76.5052 32.6972 75.8672 32.6972 75.0234C32.6972 74.6146 32.7506 74.2448 32.8573 73.9141C32.9641 73.5833 33.1165 73.3034 33.3144 73.0742C33.5123 72.8424 33.7519 72.6641 34.0331 72.5391C34.3144 72.4141 34.6295 72.3516 34.9784 72.3516C35.2154 72.3516 35.4355 72.3724 35.6386 72.4141C35.8417 72.4531 36.037 72.5143 36.2245 72.5977V73.2812C36.0396 73.1797 35.8482 73.1029 35.6503 73.0508C35.4524 72.9961 35.2363 72.9688 35.0019 72.9688C34.7623 72.9688 34.5448 73.0143 34.3495 73.1055C34.1568 73.194 33.9928 73.3242 33.8573 73.4961C33.7219 73.6654 33.6178 73.8737 33.5448 74.1211C33.4719 74.3659 33.4355 74.6458 33.4355 74.9609C33.4355 75.6224 33.5696 76.1211 33.8378 76.457C34.106 76.793 34.4993 76.9609 35.0175 76.9609C35.2363 76.9609 35.4459 76.9362 35.6464 76.8867C35.8469 76.8346 36.0396 76.763 36.2245 76.6719V77.3281Z" fill="white"/>
<path d="M39.1447 72L39.0314 73.832H38.3595L38.2502 72H39.1447Z" fill="white"/>
<path d="M0 87.3203C0.132812 87.3255 0.261719 87.3138 0.386719 87.2852C0.511719 87.2565 0.621094 87.2135 0.714844 87.1562C0.811198 87.1016 0.888021 87.0326 0.945312 86.9492C1.0026 86.8659 1.03125 86.7708 1.03125 86.6641C1.03125 86.5547 1.01172 86.4661 0.972656 86.3984C0.936198 86.3307 0.894531 86.2682 0.847656 86.2109C0.800781 86.1536 0.757812 86.0924 0.71875 86.0273C0.682292 85.9622 0.664062 85.875 0.664062 85.7656C0.664062 85.7109 0.674479 85.6536 0.695312 85.5938C0.716146 85.5339 0.747396 85.4792 0.789062 85.4297C0.833333 85.3802 0.888021 85.3398 0.953125 85.3086C1.02083 85.2773 1.10026 85.2617 1.19141 85.2617C1.28255 85.2617 1.36979 85.2812 1.45312 85.3203C1.53906 85.3568 1.61328 85.4141 1.67578 85.4922C1.74089 85.5703 1.79167 85.668 1.82812 85.7852C1.86719 85.9023 1.88672 86.0404 1.88672 86.1992C1.88672 86.4154 1.84635 86.6224 1.76562 86.8203C1.6875 87.0208 1.56901 87.1979 1.41016 87.3516C1.25391 87.5052 1.05729 87.6276 0.820312 87.7188C0.585938 87.8099 0.3125 87.8555 0 87.8555V87.3203Z" fill="white"/>
<path d="M7.34203 83.9102C7.34203 84.1549 7.3225 84.3893 7.28344 84.6133C7.24698 84.8372 7.18708 85.0456 7.10375 85.2383C7.02042 85.431 6.91234 85.6068 6.77953 85.7656C6.64672 85.9219 6.48396 86.056 6.29125 86.168C6.09854 86.2799 5.87458 86.3672 5.61938 86.4297C5.36417 86.4896 5.0738 86.5195 4.74828 86.5195H3.65453V81.4141H4.97094C5.76781 81.4141 6.36156 81.6198 6.75219 82.0312C7.14542 82.4401 7.34203 83.0664 7.34203 83.9102ZM6.61156 83.9609C6.61156 83.599 6.57771 83.293 6.51 83.043C6.44229 82.793 6.33943 82.5911 6.20141 82.4375C6.06339 82.2839 5.89021 82.1732 5.68188 82.1055C5.47354 82.0352 5.22875 82 4.9475 82H4.34984V85.918H4.86938C6.03083 85.918 6.61156 85.2656 6.61156 83.9609Z" fill="white"/>
<path d="M10.0356 81L9.92234 82.832H9.25047L9.14109 81H10.0356Z" fill="white"/>
<path d="M12.4753 87.3203C12.6081 87.3255 12.737 87.3138 12.862 87.2852C12.987 87.2565 13.0964 87.2135 13.1902 87.1562C13.2865 87.1016 13.3633 87.0326 13.4206 86.9492C13.4779 86.8659 13.5066 86.7708 13.5066 86.6641C13.5066 86.5547 13.487 86.4661 13.448 86.3984C13.4115 86.3307 13.3698 86.2682 13.323 86.2109C13.2761 86.1536 13.2331 86.0924 13.1941 86.0273C13.1576 85.9622 13.1394 85.875 13.1394 85.7656C13.1394 85.7109 13.1498 85.6536 13.1706 85.5938C13.1915 85.5339 13.2227 85.4792 13.2644 85.4297C13.3086 85.3802 13.3633 85.3398 13.4284 85.3086C13.4961 85.2773 13.5756 85.2617 13.6667 85.2617C13.7579 85.2617 13.8451 85.2812 13.9284 85.3203C14.0144 85.3568 14.0886 85.4141 14.1511 85.4922C14.2162 85.5703 14.267 85.668 14.3034 85.7852C14.3425 85.9023 14.362 86.0404 14.362 86.1992C14.362 86.4154 14.3217 86.6224 14.2409 86.8203C14.1628 87.0208 14.0443 87.1979 13.8855 87.3516C13.7292 87.5052 13.5326 87.6276 13.2956 87.7188C13.0612 87.8099 12.7878 87.8555 12.4753 87.8555V87.3203Z" fill="white"/>
<path d="M19.3916 86.5195H16.4892V81.4141H19.3916V82H17.1845V83.582H19.3056V84.168H17.1845V85.9258H19.3916V86.5195Z" fill="white"/>
<path d="M23.5422 82.0078H21.3742V83.6641H23.4289V84.2461H21.3742V86.5195H20.6633V81.4141H23.5422V82.0078Z" fill="white"/>
<path d="M27.9506 82.2891C27.7605 82.1875 27.5652 82.1094 27.3647 82.0547C27.1642 81.9974 26.9454 81.9688 26.7084 81.9688C26.4376 81.9688 26.1967 82.0169 25.9858 82.1133C25.7748 82.2096 25.5965 82.3464 25.4506 82.5234C25.3074 82.6979 25.1967 82.9089 25.1186 83.1562C25.0431 83.4036 25.0053 83.6771 25.0053 83.9766C25.0053 84.2891 25.0366 84.569 25.0991 84.8164C25.1616 85.0638 25.2592 85.2734 25.392 85.4453C25.5248 85.6172 25.6941 85.7487 25.8998 85.8398C26.1082 85.931 26.3569 85.9766 26.6459 85.9766C26.6954 85.9766 26.7488 85.974 26.8061 85.9688C26.8634 85.9635 26.9207 85.957 26.978 85.9492C27.0353 85.9388 27.0899 85.9271 27.142 85.9141C27.1967 85.901 27.2449 85.8867 27.2866 85.8711V84.2461H26.2436V83.6719H27.9741V86.2812C27.8673 86.3307 27.754 86.375 27.6342 86.4141C27.517 86.4531 27.3959 86.4857 27.2709 86.5117C27.1485 86.5378 27.0261 86.5573 26.9037 86.5703C26.7814 86.5833 26.6629 86.5898 26.5483 86.5898C26.1993 86.5898 25.8842 86.5352 25.603 86.4258C25.3243 86.3164 25.086 86.1549 24.8881 85.9414C24.6928 85.7253 24.5418 85.457 24.435 85.1367C24.3308 84.8164 24.2787 84.4453 24.2787 84.0234C24.2787 83.6042 24.3373 83.2292 24.4545 82.8984C24.5717 82.5651 24.7358 82.2839 24.9467 82.0547C25.1603 81.8229 25.4155 81.6471 25.7123 81.5273C26.0118 81.4049 26.3412 81.3438 26.7006 81.3438C26.9298 81.3438 27.1472 81.3646 27.353 81.4062C27.5613 81.4453 27.7605 81.5091 27.9506 81.5977V82.2891Z" fill="white"/>
<path d="M32.1481 86.5195H31.4528V84.1758H29.3083V86.5195H28.613V81.4141H29.3083V83.5742H31.4528V81.4141H32.1481V86.5195Z" fill="white"/>
<path d="M34.1855 82H33.0097V81.4141H36.0644V82H34.8886V85.9258H36.0644V86.5195H33.0097V85.9258H34.1855V82Z" fill="white"/>
<path d="M39.922 81.4141V84.9609C39.922 85.1797 39.8895 85.388 39.8244 85.5859C39.7593 85.7812 39.6603 85.9518 39.5275 86.0977C39.3947 86.2435 39.228 86.3594 39.0275 86.4453C38.827 86.5312 38.5913 86.5742 38.3205 86.5742C38.2189 86.5742 38.1147 86.5664 38.008 86.5508C37.9038 86.5378 37.8022 86.5195 37.7033 86.4961C37.6069 86.4701 37.5158 86.4401 37.4298 86.4062C37.3439 86.3698 37.2697 86.3307 37.2072 86.2891V85.5898C37.3686 85.707 37.547 85.7995 37.7423 85.8672C37.9403 85.9349 38.1356 85.9688 38.3283 85.9688C38.6121 85.9688 38.8309 85.8828 38.9845 85.7109C39.1382 85.5365 39.215 85.2865 39.215 84.9609V82.0156H37.2736V81.4141H39.922Z" fill="white"/>
<path d="M44.7445 86.5195H43.8695L41.9594 84.0156V86.5195H41.2641V81.4141H41.9594V83.7852L43.8305 81.4141H44.6547L42.6391 83.8398L44.7445 86.5195Z" fill="white"/>
<path d="M48.6608 86.5195H45.7233V81.4141H46.4303V85.9258H48.6608V86.5195Z" fill="white"/>
<path d="M53.1786 86.5195H52.4989L52.3973 83.3359L52.3544 82.1133L52.1161 82.8242L51.3622 84.8555H50.8817L50.163 82.9023L49.9247 82.1133L49.9091 83.3906L49.8192 86.5195H49.163L49.413 81.4141H50.2372L50.9247 83.3359L51.1473 83.9844L51.3622 83.3359L52.0848 81.4141H52.9325L53.1786 86.5195Z" fill="white"/>
<path d="M57.0675 86.5195H56.1613L54.673 83.3359L54.2433 82.3125V86.5195H53.5948V81.4141H54.4894L55.9073 84.4297L56.4191 85.5977V81.4141H57.0675V86.5195Z" fill="white"/>
<path d="M61.472 83.9336C61.472 84.3919 61.4173 84.7878 61.308 85.1211C61.2012 85.4544 61.0554 85.7305 60.8705 85.9492C60.6882 86.1654 60.4733 86.3268 60.2259 86.4336C59.9811 86.5378 59.722 86.5898 59.4486 86.5898C59.1205 86.5898 58.834 86.5312 58.5892 86.4141C58.347 86.2943 58.1452 86.1224 57.9837 85.8984C57.8249 85.6745 57.7064 85.4023 57.6283 85.082C57.5502 84.7591 57.5111 84.3958 57.5111 83.9922C57.5111 83.5391 57.5645 83.1458 57.6712 82.8125C57.778 82.4792 57.9226 82.2044 58.1048 81.9883C58.2897 81.7695 58.5046 81.6081 58.7494 81.5039C58.9942 81.3971 59.2533 81.3438 59.5267 81.3438C59.8548 81.3438 60.14 81.4036 60.3822 81.5234C60.627 81.6432 60.8301 81.8151 60.9916 82.0391C61.153 82.2604 61.2728 82.5312 61.3509 82.8516C61.4317 83.1719 61.472 83.5326 61.472 83.9336ZM60.7494 83.9844C60.7494 83.6849 60.7259 83.4115 60.6791 83.1641C60.6348 82.9141 60.5619 82.6992 60.4603 82.5195C60.3587 82.3398 60.2272 82.2005 60.0658 82.1016C59.9069 82.0026 59.7142 81.9531 59.4877 81.9531C59.2689 81.9531 59.0801 82.0065 58.9212 82.1133C58.765 82.2174 58.6361 82.3607 58.5345 82.543C58.433 82.7227 58.3574 82.9349 58.308 83.1797C58.2585 83.4219 58.2337 83.6797 58.2337 83.9531C58.2337 84.2552 58.2572 84.5312 58.3041 84.7812C58.3509 85.0286 58.4239 85.2422 58.5228 85.4219C58.6244 85.599 58.7546 85.737 58.9134 85.8359C59.0723 85.9349 59.2637 85.9844 59.4877 85.9844C59.7064 85.9844 59.8952 85.9323 60.0541 85.8281C60.2129 85.7214 60.3431 85.5781 60.4447 85.3984C60.5489 85.2161 60.6257 85.0039 60.6752 84.7617C60.7246 84.5195 60.7494 84.2604 60.7494 83.9844Z" fill="white"/>
<path d="M65.4156 82.9766C65.4156 83.1849 65.3766 83.3919 65.2984 83.5977C65.2203 83.8008 65.0992 83.9831 64.9352 84.1445C64.7711 84.306 64.5615 84.4375 64.3063 84.5391C64.051 84.638 63.7464 84.6875 63.3922 84.6875H62.7594V86.5195H62.0641V81.4141H63.5016C63.7542 81.4141 63.9964 81.4427 64.2281 81.5C64.4599 81.5547 64.663 81.6445 64.8375 81.7695C65.0146 81.8945 65.1552 82.056 65.2594 82.2539C65.3635 82.4518 65.4156 82.6927 65.4156 82.9766ZM64.693 83.0078C64.693 82.6797 64.5849 82.4284 64.3688 82.2539C64.1552 82.0794 63.8557 81.9922 63.4703 81.9922H62.7594V84.0938H63.4078C63.8193 84.0938 64.1357 84.0039 64.357 83.8242C64.581 83.6445 64.693 83.3724 64.693 83.0078Z" fill="white"/>
<path d="M67.4295 86.5664C67.1587 86.5273 66.923 86.4414 66.7225 86.3086C66.522 86.1758 66.3553 86.0013 66.2225 85.7852C66.0897 85.5664 65.9907 85.3099 65.9256 85.0156C65.8605 84.7188 65.828 84.3906 65.828 84.0312C65.828 83.5677 65.8814 83.1667 65.9881 82.8281C66.0949 82.4896 66.2394 82.2109 66.4217 81.9922C66.6066 81.7708 66.8215 81.6081 67.0663 81.5039C67.311 81.3971 67.5702 81.3438 67.8436 81.3438C68.1717 81.3438 68.4569 81.4036 68.6991 81.5234C68.9439 81.6406 69.147 81.8112 69.3084 82.0352C69.4699 82.2565 69.5897 82.526 69.6678 82.8438C69.7485 83.1589 69.7889 83.5143 69.7889 83.9102C69.7889 84.3268 69.7446 84.6927 69.6561 85.0078C69.5676 85.3203 69.4465 85.5859 69.2928 85.8047C69.1392 86.0234 68.9582 86.1953 68.7498 86.3203C68.5415 86.4453 68.3176 86.5273 68.078 86.5664C68.117 86.7956 68.2082 86.9792 68.3514 87.1172C68.4946 87.2578 68.6965 87.3281 68.9569 87.3281C69.0819 87.3281 69.2043 87.3073 69.3241 87.2656C69.4465 87.224 69.5702 87.1536 69.6952 87.0547L70.0038 87.5352C69.8319 87.6758 69.6548 87.776 69.4725 87.8359C69.2902 87.8958 69.1027 87.9258 68.91 87.9258C68.7017 87.9258 68.5103 87.8971 68.3358 87.8398C68.1613 87.7826 68.009 87.6966 67.8788 87.582C67.7511 87.4701 67.6483 87.3281 67.5702 87.1562C67.492 86.987 67.4452 86.7904 67.4295 86.5664ZM69.0663 83.9922C69.0663 83.6901 69.0428 83.4154 68.9959 83.168C68.9517 82.918 68.8788 82.7044 68.7772 82.5273C68.6756 82.3477 68.5441 82.2083 68.3827 82.1094C68.2238 82.0104 68.0311 81.9609 67.8045 81.9609C67.5858 81.9609 67.397 82.013 67.2381 82.1172C67.0819 82.2214 66.953 82.3633 66.8514 82.543C66.7498 82.7201 66.6743 82.9284 66.6248 83.168C66.5754 83.4049 66.5506 83.6576 66.5506 83.9258C66.5506 84.2357 66.5741 84.5169 66.6209 84.7695C66.6678 85.0195 66.7407 85.2344 66.8397 85.4141C66.9413 85.5938 67.0715 85.7331 67.2303 85.832C67.3892 85.9284 67.5806 85.9766 67.8045 85.9766C68.0233 85.9766 68.2121 85.9245 68.3709 85.8203C68.5298 85.7161 68.66 85.5742 68.7616 85.3945C68.8657 85.2148 68.9426 85.0052 68.992 84.7656C69.0415 84.5234 69.0663 84.2656 69.0663 83.9922Z" fill="white"/>
</svg>
